M48
;Layer_Color=9474304
;FILE_FORMAT=2:5
INCH,LZ
;TYPE=PLATED
T1F00S00C0.02500
T2F00S00C0.02756
T3F00S00C0.03150
T4F00S00C0.03346
T5F00S00C0.03543
T6F00S00C0.03937
T7F00S00C0.20900
%
T01
X06006Y0124626
X0855Y013774
X08585Y0146
X0981063Y02339
X0869Y01889
X08785Y01759
X087Y01569
X08562Y01589
X06768Y03015
X0679Y0308
X02525Y03489
X04053Y03577
X04303Y03712
Y03951
X04015Y0423807
X0411Y0434807
X0435Y04645
X0384Y0463298
X0586Y0381
X058Y0336894
X05845Y033
X05905Y0326
X0597413Y0325
X06Y03375
X0605Y0334
X06024Y0344943
X06057Y03487
X061Y0345638
X06244Y03127
X05605Y0331
X063Y0329
X0627Y03243
X06336Y03135
X0651705Y03244
X06586Y03242
X06887Y0331858
X0691Y034
X0709463Y0358463
X06768Y03653
X0637138Y03744
X0635169Y0379713
X06455Y03909
X0661Y04114
X063705Y035335
T02
X0845Y01345
Y01645
X0213Y05545
X0203
X0193
T03
X09845Y0282
Y0287
Y0292
X0514Y028965
Y0281776
Y0273902
X0506126
Y0281776
Y028965
Y0297524
Y0305398
X0514
Y0297524
X0325024
Y028965
X031715
Y0297524
Y0305398
X0325024
Y0281776
Y0273902
X031715
Y0281776
Y0313272
X0325024
Y0321146
X031715
Y032902
X0325024
Y0336894
X031715
Y0344768
X0325024
Y0352642
X031715
Y0360516
X0325024
Y036839
X031715
Y0376264
X0325024
Y0384138
Y0392012
Y0399886
Y040776
Y0415634
Y0423508
Y0431382
Y0439256
Y044713
Y0455004
Y0462878
X031715
Y0455004
Y044713
Y0439256
Y0431382
Y0423508
Y0415634
Y040776
Y0399886
Y0392012
Y0384138
X0506126
X0514
Y0392012
X0506126
Y0399886
X0514
Y040776
X0506126
Y0415634
X0514
Y0423508
X0506126
Y0431382
X0514
Y0439256
X0506126
Y044713
X0514
Y0455004
X0506126
Y0462878
X0514
Y0376264
X0506126
Y036839
X0514
Y0360516
X0506126
Y0352642
X0514
Y0344768
X0506126
Y0336894
X0514
Y032902
X0506126
Y0321146
X0514
Y0313272
X0506126
Y0470752
X0514
Y0478626
X0506126
Y04865
X0514
Y05095
X0506126
X0498252
X0490378
X0482504
X047463
Y0517996
X0482504
X0490378
X0498252
X0506126
X0514
X0466756
X0458882
X0451008
X0443134
X043526
X0427386
X0419512
X0411638
X0403764
X039589
Y05095
X0403764
X0411638
X0419512
X0427386
X043526
X0443134
X0451008
X0458882
X0466756
X0325024Y04865
X031715
Y0478626
X0325024
Y0470752
X031715
T04
X08665Y011202
X08965
X0853776Y027576
Y030576
X06535Y02405
X06235
T05
X032Y0135
X033
X034
X035
X036
X037
X038
X039
X04
X041
X042
X043
X044
X045
X046
X047
X048
X049
X05
X051
X06145Y01465
X06245
X06645
X06745
X08015Y01435
Y01535
X0955Y01575
Y01675
Y01775
Y01875
X0985
Y01775
Y01675
Y01575
X09835Y02135
Y02185
Y02235
X1009524Y0206
X1037476
X1038976Y0275
X1011024
X0942
X0941563Y0295
X0931563
X0932Y0275
X08785Y02395
X08685
X08275Y031
X0726Y02915
Y02815
X0711626Y0282
Y0292
X06945Y02165
X06845
X06745
X06645
X06545
X06445
X06345
X06245
X06145
X06045
X05945
X05795Y0256
X05695
X0569Y0275
X0579
Y02945
X0569
X051Y0225
X05
X049
X048
X047
X046
X045
X044
X043
X042
X041
X04
X039
X038
X037
X036
X035
X034
X033
X032
X02675Y0424256
X02575
X02475
X02375
Y0454256
X02475
X02575
X02675
X01895Y03815
X01795
X0569Y0313
X0579
X06115Y0412
Y0422
Y0432
Y0442
Y0452
Y0462
X0699Y04655
X0709
Y0448
X0699
X06985Y04315
X07085
X0708Y04145
X0698
X08275Y032
X0931563Y03185
X0941563
X0709Y04815
X0699
Y0498
X0709
X0681Y054
X0671
X0661
X0651
X0641
X06115Y0502
Y0492
Y0482
Y0472
X02685Y04895
X02585
X02485
X02385
Y05195
X02485
X02585
X02685
T06
X0950752Y0116374
Y0124248
X0965516Y0132909
X0975358
X0974374Y01085
X09665
T07
X01235Y01235
X0574Y01195
X1032Y01235
Y05385
X05755
X01235
M30
