G04*
G04 #@! TF.GenerationSoftware,Altium Limited,Altium Designer,18.1.6 (161)*
G04*
G04 Layer_Color=16711935*
%FSLAX25Y25*%
%MOIN*%
G70*
G01*
G75*
%ADD14C,0.00500*%
%ADD16C,0.00300*%
%ADD71C,0.00394*%
D14*
X626724Y304378D02*
G03*
X626764Y304339I39J0D01*
G01*
X627748D02*
G03*
X627787Y304378I0J39D01*
G01*
X615484Y328492D02*
G03*
X615445Y328453I0J-39D01*
G01*
Y327468D02*
G03*
X615484Y327429I39J-0D01*
G01*
Y350146D02*
G03*
X615445Y350106I0J-39D01*
G01*
Y349122D02*
G03*
X615484Y349083I39J-0D01*
G01*
X667158Y367291D02*
G03*
X667118Y367331I-39J0D01*
G01*
X666134D02*
G03*
X666095Y367291I0J-39D01*
G01*
X655346D02*
G03*
X655307Y367331I-39J0D01*
G01*
X654323D02*
G03*
X654284Y367291I0J-39D01*
G01*
X633693D02*
G03*
X633654Y367331I-39J0D01*
G01*
X632669D02*
G03*
X632630Y367291I0J-39D01*
G01*
X678398Y343177D02*
G03*
X678437Y343216I0J39D01*
G01*
Y344201D02*
G03*
X678398Y344240I-39J-0D01*
G01*
Y321524D02*
G03*
X678437Y321563I0J39D01*
G01*
Y322547D02*
G03*
X678398Y322587I-39J0D01*
G01*
X660189Y304378D02*
G03*
X660228Y304339I39J0D01*
G01*
X661213D02*
G03*
X661252Y304378I0J39D01*
G01*
X638535D02*
G03*
X638575Y304339I39J0D01*
G01*
X639559D02*
G03*
X639599Y304378I0J39D01*
G01*
X615484Y316681D02*
G03*
X615445Y316642I0J-39D01*
G01*
Y315657D02*
G03*
X615484Y315618I39J-0D01*
G01*
Y338335D02*
G03*
X615445Y338295I0J-39D01*
G01*
Y337311D02*
G03*
X615484Y337272I39J-0D01*
G01*
Y359988D02*
G03*
X615445Y359949I0J-39D01*
G01*
Y358964D02*
G03*
X615484Y358925I39J0D01*
G01*
X678398Y354988D02*
G03*
X678437Y355028I0J39D01*
G01*
Y356012D02*
G03*
X678398Y356051I-39J0D01*
G01*
X643536Y367291D02*
G03*
X643496Y367331I-39J0D01*
G01*
X642512D02*
G03*
X642473Y367291I0J-39D01*
G01*
X678398Y333335D02*
G03*
X678437Y333374I0J39D01*
G01*
Y334358D02*
G03*
X678398Y334398I-39J0D01*
G01*
Y311681D02*
G03*
X678437Y311720I0J39D01*
G01*
Y312705D02*
G03*
X678398Y312744I-39J0D01*
G01*
X650347Y304378D02*
G03*
X650386Y304339I39J0D01*
G01*
X651370D02*
G03*
X651409Y304378I0J39D01*
G01*
X628693D02*
G03*
X628732Y304339I39J0D01*
G01*
X629717D02*
G03*
X629756Y304378I0J39D01*
G01*
X615484Y326524D02*
G03*
X615445Y326484I0J-39D01*
G01*
Y325500D02*
G03*
X615484Y325461I39J-0D01*
G01*
Y348177D02*
G03*
X615445Y348138I0J-39D01*
G01*
Y347153D02*
G03*
X615484Y347114I39J-0D01*
G01*
X665189Y367291D02*
G03*
X665150Y367331I-39J0D01*
G01*
X664165D02*
G03*
X664126Y367291I0J-39D01*
G01*
X653378D02*
G03*
X653339Y367331I-39J0D01*
G01*
X652354D02*
G03*
X652315Y367291I0J-39D01*
G01*
X631725D02*
G03*
X631685Y367331I-39J0D01*
G01*
X630701D02*
G03*
X630661Y367291I0J-39D01*
G01*
X678398Y345146D02*
G03*
X678437Y345185I0J39D01*
G01*
Y346169D02*
G03*
X678398Y346209I-39J-0D01*
G01*
Y323492D02*
G03*
X678437Y323532I0J39D01*
G01*
Y324516D02*
G03*
X678398Y324555I-39J0D01*
G01*
X662158Y304378D02*
G03*
X662197Y304339I39J0D01*
G01*
X663181D02*
G03*
X663221Y304378I0J39D01*
G01*
X640504D02*
G03*
X640543Y304339I39J0D01*
G01*
X641528D02*
G03*
X641567Y304378I0J39D01*
G01*
X615484Y314713D02*
G03*
X615445Y314673I0J-39D01*
G01*
Y313689D02*
G03*
X615484Y313650I39J0D01*
G01*
Y336366D02*
G03*
X615445Y336327I0J-39D01*
G01*
Y335343D02*
G03*
X615484Y335303I39J-0D01*
G01*
Y358020D02*
G03*
X615445Y357980I0J-39D01*
G01*
Y356996D02*
G03*
X615484Y356957I39J0D01*
G01*
X678398D02*
G03*
X678437Y356996I0J39D01*
G01*
Y357980D02*
G03*
X678398Y358020I-39J0D01*
G01*
X641567Y367291D02*
G03*
X641528Y367331I-39J0D01*
G01*
X640543D02*
G03*
X640504Y367291I0J-39D01*
G01*
X678398Y335303D02*
G03*
X678437Y335343I0J39D01*
G01*
Y336327D02*
G03*
X678398Y336366I-39J0D01*
G01*
Y313650D02*
G03*
X678437Y313689I0J39D01*
G01*
Y314673D02*
G03*
X678398Y314713I-39J0D01*
G01*
X652315Y304378D02*
G03*
X652354Y304339I39J0D01*
G01*
X653339D02*
G03*
X653378Y304378I0J39D01*
G01*
X630661D02*
G03*
X630701Y304339I39J0D01*
G01*
X631685D02*
G03*
X631725Y304378I0J39D01*
G01*
X615484Y324555D02*
G03*
X615445Y324516I0J-39D01*
G01*
Y323532D02*
G03*
X615484Y323492I39J-0D01*
G01*
Y346209D02*
G03*
X615445Y346169I0J-39D01*
G01*
Y345185D02*
G03*
X615484Y345146I39J-0D01*
G01*
X663221Y367291D02*
G03*
X663181Y367331I-39J0D01*
G01*
X662197D02*
G03*
X662158Y367291I0J-39D01*
G01*
X651409D02*
G03*
X651370Y367331I-39J0D01*
G01*
X650386D02*
G03*
X650347Y367291I0J-39D01*
G01*
X629756D02*
G03*
X629717Y367331I-39J0D01*
G01*
X628732D02*
G03*
X628693Y367291I0J-39D01*
G01*
X678398Y347114D02*
G03*
X678437Y347153I0J39D01*
G01*
Y348138D02*
G03*
X678398Y348177I-39J-0D01*
G01*
Y325461D02*
G03*
X678437Y325500I0J39D01*
G01*
Y326484D02*
G03*
X678398Y326524I-39J0D01*
G01*
X664126Y304378D02*
G03*
X664165Y304339I39J0D01*
G01*
X665150D02*
G03*
X665189Y304378I0J39D01*
G01*
X642473D02*
G03*
X642512Y304339I39J0D01*
G01*
X643496D02*
G03*
X643536Y304378I0J39D01*
G01*
X615484Y312744D02*
G03*
X615445Y312705I0J-39D01*
G01*
Y311720D02*
G03*
X615484Y311681I39J0D01*
G01*
Y334398D02*
G03*
X615445Y334358I0J-39D01*
G01*
Y333374D02*
G03*
X615484Y333335I39J-0D01*
G01*
Y356051D02*
G03*
X615445Y356012I0J-39D01*
G01*
Y355028D02*
G03*
X615484Y354988I39J0D01*
G01*
X678398Y358925D02*
G03*
X678437Y358964I0J39D01*
G01*
Y359949D02*
G03*
X678398Y359988I-39J0D01*
G01*
X639599Y367291D02*
G03*
X639559Y367331I-39J0D01*
G01*
X638575D02*
G03*
X638535Y367291I0J-39D01*
G01*
X678398Y337272D02*
G03*
X678437Y337311I0J39D01*
G01*
Y338295D02*
G03*
X678398Y338335I-39J0D01*
G01*
X648378Y304378D02*
G03*
X648417Y304339I39J0D01*
G01*
X649402D02*
G03*
X649441Y304378I0J39D01*
G01*
X678398Y315618D02*
G03*
X678437Y315657I0J39D01*
G01*
Y316642D02*
G03*
X678398Y316681I-39J0D01*
G01*
X654284Y304378D02*
G03*
X654323Y304339I39J0D01*
G01*
X655307D02*
G03*
X655346Y304378I0J39D01*
G01*
X632630D02*
G03*
X632669Y304339I39J0D01*
G01*
X633654D02*
G03*
X633693Y304378I0J39D01*
G01*
X615484Y322587D02*
G03*
X615445Y322547I0J-39D01*
G01*
Y321563D02*
G03*
X615484Y321524I39J-0D01*
G01*
Y344240D02*
G03*
X615445Y344201I0J-39D01*
G01*
Y343216D02*
G03*
X615484Y343177I39J-0D01*
G01*
X661252Y367291D02*
G03*
X661213Y367331I-39J0D01*
G01*
X660228D02*
G03*
X660189Y367291I0J-39D01*
G01*
X649441D02*
G03*
X649402Y367331I-39J0D01*
G01*
X648417D02*
G03*
X648378Y367291I0J-39D01*
G01*
X627787D02*
G03*
X627748Y367331I-39J0D01*
G01*
X626764D02*
G03*
X626724Y367291I0J-39D01*
G01*
X678398Y349083D02*
G03*
X678437Y349122I0J39D01*
G01*
Y350106D02*
G03*
X678398Y350146I-39J-0D01*
G01*
Y327429D02*
G03*
X678437Y327468I0J39D01*
G01*
Y328453D02*
G03*
X678398Y328492I-39J0D01*
G01*
X666095Y304378D02*
G03*
X666134Y304339I39J0D01*
G01*
X667118D02*
G03*
X667158Y304378I0J39D01*
G01*
X644441D02*
G03*
X644480Y304339I39J0D01*
G01*
X645465D02*
G03*
X645504Y304378I0J39D01*
G01*
X622788D02*
G03*
X622827Y304339I39J0D01*
G01*
X623811D02*
G03*
X623850Y304378I0J39D01*
G01*
X615484Y332429D02*
G03*
X615445Y332390I0J-39D01*
G01*
Y331405D02*
G03*
X615484Y331366I39J-0D01*
G01*
Y354083D02*
G03*
X615445Y354043I0J-39D01*
G01*
Y353059D02*
G03*
X615484Y353020I39J0D01*
G01*
X671095Y367291D02*
G03*
X671055Y367331I-39J0D01*
G01*
X670071D02*
G03*
X670032Y367291I0J-39D01*
G01*
X637630D02*
G03*
X637591Y367331I-39J0D01*
G01*
X636606D02*
G03*
X636567Y367291I0J-39D01*
G01*
X678398Y339240D02*
G03*
X678437Y339280I0J39D01*
G01*
Y340264D02*
G03*
X678398Y340303I-39J-0D01*
G01*
Y317587D02*
G03*
X678437Y317626I0J39D01*
G01*
Y318610D02*
G03*
X678398Y318650I-39J0D01*
G01*
X656252Y304378D02*
G03*
X656291Y304339I39J0D01*
G01*
X657276D02*
G03*
X657315Y304378I0J39D01*
G01*
X634598D02*
G03*
X634638Y304339I39J0D01*
G01*
X635622D02*
G03*
X635662Y304378I0J39D01*
G01*
X615484Y320618D02*
G03*
X615445Y320579I0J-39D01*
G01*
Y319595D02*
G03*
X615484Y319555I39J-0D01*
G01*
Y342272D02*
G03*
X615445Y342232I0J-39D01*
G01*
Y341248D02*
G03*
X615484Y341209I39J-0D01*
G01*
X659284Y367291D02*
G03*
X659244Y367331I-39J0D01*
G01*
X658260D02*
G03*
X658221Y367291I0J-39D01*
G01*
X625819D02*
G03*
X625780Y367331I-39J0D01*
G01*
X624795D02*
G03*
X624756Y367291I0J-39D01*
G01*
X678398Y351051D02*
G03*
X678437Y351091I0J39D01*
G01*
Y352075D02*
G03*
X678398Y352114I-39J-0D01*
G01*
X647472Y367291D02*
G03*
X647433Y367331I-39J0D01*
G01*
X646449D02*
G03*
X646410Y367291I0J-39D01*
G01*
X678398Y329398D02*
G03*
X678437Y329437I0J39D01*
G01*
Y330421D02*
G03*
X678398Y330461I-39J0D01*
G01*
X668063Y304378D02*
G03*
X668102Y304339I39J0D01*
G01*
X669087D02*
G03*
X669126Y304378I0J39D01*
G01*
X646410D02*
G03*
X646449Y304339I39J0D01*
G01*
X647433D02*
G03*
X647472Y304378I0J39D01*
G01*
X624756D02*
G03*
X624795Y304339I39J0D01*
G01*
X625780D02*
G03*
X625819Y304378I0J39D01*
G01*
X615484Y330461D02*
G03*
X615445Y330421I0J-39D01*
G01*
Y329437D02*
G03*
X615484Y329398I39J-0D01*
G01*
Y352114D02*
G03*
X615445Y352075I0J-39D01*
G01*
Y351091D02*
G03*
X615484Y351051I39J0D01*
G01*
X669126Y367291D02*
G03*
X669087Y367331I-39J0D01*
G01*
X668102D02*
G03*
X668063Y367291I0J-39D01*
G01*
X657315D02*
G03*
X657276Y367331I-39J0D01*
G01*
X656291D02*
G03*
X656252Y367291I0J-39D01*
G01*
X635662D02*
G03*
X635622Y367331I-39J0D01*
G01*
X634638D02*
G03*
X634598Y367291I0J-39D01*
G01*
X678398Y341209D02*
G03*
X678437Y341248I0J39D01*
G01*
Y342232D02*
G03*
X678398Y342272I-39J-0D01*
G01*
Y319555D02*
G03*
X678437Y319595I0J39D01*
G01*
Y320579D02*
G03*
X678398Y320618I-39J0D01*
G01*
X658221Y304378D02*
G03*
X658260Y304339I39J0D01*
G01*
X659244D02*
G03*
X659284Y304378I0J39D01*
G01*
X636567D02*
G03*
X636606Y304339I39J0D01*
G01*
X637591D02*
G03*
X637630Y304378I0J39D01*
G01*
X615484Y318650D02*
G03*
X615445Y318610I0J-39D01*
G01*
Y317626D02*
G03*
X615484Y317587I39J-0D01*
G01*
Y340303D02*
G03*
X615445Y340264I0J-39D01*
G01*
Y339280D02*
G03*
X615484Y339240I39J-0D01*
G01*
X623850Y367291D02*
G03*
X623811Y367331I-39J0D01*
G01*
X622827D02*
G03*
X622788Y367291I0J-39D01*
G01*
X678398Y353020D02*
G03*
X678437Y353059I0J39D01*
G01*
Y354043D02*
G03*
X678398Y354083I-39J-0D01*
G01*
X645504Y367291D02*
G03*
X645465Y367331I-39J0D01*
G01*
X644480D02*
G03*
X644441Y367291I0J-39D01*
G01*
X678398Y331366D02*
G03*
X678437Y331405I0J39D01*
G01*
Y332390D02*
G03*
X678398Y332429I-39J0D01*
G01*
X670032Y304378D02*
G03*
X670071Y304339I39J0D01*
G01*
X671055D02*
G03*
X671095Y304378I0J39D01*
G01*
X625287Y316150D02*
G03*
X625287Y312213I0J-1969D01*
G01*
D02*
G03*
X625287Y316150I0J1969D01*
G01*
X627787Y306200D02*
Y306763D01*
Y307486D01*
Y308276D01*
X626764Y304339D02*
X627748D01*
X626724Y306763D02*
Y307486D01*
Y304378D02*
Y305808D01*
Y306200D02*
Y306763D01*
X627787Y305808D02*
Y306200D01*
Y304378D02*
Y305808D01*
X626724D02*
Y306200D01*
Y307486D02*
Y308276D01*
X617306Y327429D02*
X617870D01*
X618592D01*
X619382D01*
X615445Y327469D02*
Y328453D01*
X617870Y328492D02*
X618592D01*
X615484D02*
X616914D01*
X617306D02*
X617870D01*
X616914Y327429D02*
X617306D01*
X615484D02*
X616914D01*
Y328492D02*
X617306D01*
X618592D02*
X619382D01*
X617306Y349083D02*
X617870D01*
X618592D01*
X619382D01*
X615445Y349122D02*
Y350106D01*
X617870Y350146D02*
X618592D01*
X615484D02*
X616914D01*
X617306D02*
X617870D01*
X616914Y349083D02*
X617306D01*
X615484D02*
X616914D01*
Y350146D02*
X617306D01*
X618592D02*
X619382D01*
X666095Y364906D02*
Y365470D01*
Y364184D02*
Y364906D01*
Y363394D02*
Y364184D01*
X666134Y367331D02*
X667118D01*
X667158Y364184D02*
Y364906D01*
Y365861D02*
Y367291D01*
Y364906D02*
Y365470D01*
X666095D02*
Y365861D01*
Y367291D01*
X667158Y365470D02*
Y365861D01*
Y363394D02*
Y364184D01*
X654284Y364906D02*
Y365470D01*
Y364184D02*
Y364906D01*
Y363394D02*
Y364184D01*
X654323Y367331D02*
X655307D01*
X655346Y364184D02*
Y364906D01*
Y365861D02*
Y367291D01*
Y364906D02*
Y365470D01*
X654284D02*
Y365861D01*
Y367291D01*
X655346Y365470D02*
Y365861D01*
Y363394D02*
Y364184D01*
X632630Y364906D02*
Y365470D01*
Y364184D02*
Y364906D01*
Y363394D02*
Y364184D01*
X632669Y367331D02*
X633654D01*
X633693Y364184D02*
Y364906D01*
Y365861D02*
Y367291D01*
Y364906D02*
Y365470D01*
X632630D02*
Y365861D01*
Y367291D01*
X633693Y365470D02*
Y365861D01*
Y363394D02*
Y364184D01*
X676012Y344240D02*
X676576D01*
X675290D02*
X676012D01*
X674500D02*
X675290D01*
X678437Y343217D02*
Y344201D01*
X675290Y343177D02*
X676012D01*
X676967D02*
X678398D01*
X676012D02*
X676576D01*
Y344240D02*
X676967D01*
X678398D01*
X676576Y343177D02*
X676967D01*
X674500D02*
X675290D01*
X676012Y322587D02*
X676576D01*
X675290D02*
X676012D01*
X674500D02*
X675290D01*
X678437Y321563D02*
Y322547D01*
X675290Y321524D02*
X676012D01*
X676967D02*
X678398D01*
X676012D02*
X676576D01*
Y322587D02*
X676967D01*
X678398D01*
X676576Y321524D02*
X676967D01*
X674500D02*
X675290D01*
X661252Y306200D02*
Y306763D01*
Y307486D01*
Y308276D01*
X660228Y304339D02*
X661213D01*
X660189Y306763D02*
Y307486D01*
Y304378D02*
Y305808D01*
Y306200D02*
Y306763D01*
X661252Y305808D02*
Y306200D01*
Y304378D02*
Y305808D01*
X660189D02*
Y306200D01*
Y307486D02*
Y308276D01*
X639598Y306200D02*
Y306763D01*
Y307486D01*
Y308276D01*
X638575Y304339D02*
X639559D01*
X638535Y306763D02*
Y307486D01*
Y304378D02*
Y305808D01*
Y306200D02*
Y306763D01*
X639598Y305808D02*
Y306200D01*
Y304378D02*
Y305808D01*
X638535D02*
Y306200D01*
Y307486D02*
Y308276D01*
X617306Y315618D02*
X617870D01*
X618592D01*
X619382D01*
X615445Y315658D02*
Y316642D01*
X617870Y316681D02*
X618592D01*
X615484D02*
X616914D01*
X617306D02*
X617870D01*
X616914Y315618D02*
X617306D01*
X615484D02*
X616914D01*
Y316681D02*
X617306D01*
X618592D02*
X619382D01*
X617306Y337272D02*
X617870D01*
X618592D01*
X619382D01*
X615445Y337311D02*
Y338295D01*
X617870Y338335D02*
X618592D01*
X615484D02*
X616914D01*
X617306D02*
X617870D01*
X616914Y337272D02*
X617306D01*
X615484D02*
X616914D01*
Y338335D02*
X617306D01*
X618592D02*
X619382D01*
X617306Y358925D02*
X617870D01*
X618592D01*
X619382D01*
X615445Y358965D02*
Y359949D01*
X617870Y359988D02*
X618592D01*
X615484D02*
X616914D01*
X617306D02*
X617870D01*
X616914Y358925D02*
X617306D01*
X615484D02*
X616914D01*
Y359988D02*
X617306D01*
X618592D02*
X619382D01*
X676012Y356051D02*
X676576D01*
X675290D02*
X676012D01*
X674500D02*
X675290D01*
X678437Y355028D02*
Y356012D01*
X675290Y354988D02*
X676012D01*
X676967D02*
X678398D01*
X676012D02*
X676576D01*
Y356051D02*
X676967D01*
X678398D01*
X676576Y354988D02*
X676967D01*
X674500D02*
X675290D01*
X642472Y364906D02*
Y365470D01*
Y364184D02*
Y364906D01*
Y363394D02*
Y364184D01*
X642512Y367331D02*
X643496D01*
X643535Y364184D02*
Y364906D01*
Y365861D02*
Y367291D01*
Y364906D02*
Y365470D01*
X642472D02*
Y365861D01*
Y367291D01*
X643535Y365470D02*
Y365861D01*
Y363394D02*
Y364184D01*
X676012Y334398D02*
X676576D01*
X675290D02*
X676012D01*
X674500D02*
X675290D01*
X678437Y333374D02*
Y334358D01*
X675290Y333335D02*
X676012D01*
X676967D02*
X678398D01*
X676012D02*
X676576D01*
Y334398D02*
X676967D01*
X678398D01*
X676576Y333335D02*
X676967D01*
X674500D02*
X675290D01*
X676012Y312744D02*
X676576D01*
X675290D02*
X676012D01*
X674500D02*
X675290D01*
X678437Y311720D02*
Y312705D01*
X675290Y311681D02*
X676012D01*
X676967D02*
X678398D01*
X676012D02*
X676576D01*
Y312744D02*
X676967D01*
X678398D01*
X676576Y311681D02*
X676967D01*
X674500D02*
X675290D01*
X651409Y306200D02*
Y306763D01*
Y307486D01*
Y308276D01*
X650386Y304339D02*
X651370D01*
X650346Y306763D02*
Y307486D01*
Y304378D02*
Y305808D01*
Y306200D02*
Y306763D01*
X651409Y305808D02*
Y306200D01*
Y304378D02*
Y305808D01*
X650346D02*
Y306200D01*
Y307486D02*
Y308276D01*
X629756Y306200D02*
Y306763D01*
Y307486D01*
Y308276D01*
X628732Y304339D02*
X629717D01*
X628693Y306763D02*
Y307486D01*
Y304378D02*
Y305808D01*
Y306200D02*
Y306763D01*
X629756Y305808D02*
Y306200D01*
Y304378D02*
Y305808D01*
X628693D02*
Y306200D01*
Y307486D02*
Y308276D01*
X617306Y325461D02*
X617870D01*
X618592D01*
X619382D01*
X615445Y325500D02*
Y326484D01*
X617870Y326524D02*
X618592D01*
X615484D02*
X616914D01*
X617306D02*
X617870D01*
X616914Y325461D02*
X617306D01*
X615484D02*
X616914D01*
Y326524D02*
X617306D01*
X618592D02*
X619382D01*
X617306Y347114D02*
X617870D01*
X618592D01*
X619382D01*
X615445Y347154D02*
Y348138D01*
X617870Y348177D02*
X618592D01*
X615484D02*
X616914D01*
X617306D02*
X617870D01*
X616914Y347114D02*
X617306D01*
X615484D02*
X616914D01*
Y348177D02*
X617306D01*
X618592D02*
X619382D01*
X664126Y364906D02*
Y365470D01*
Y364184D02*
Y364906D01*
Y363394D02*
Y364184D01*
X664165Y367331D02*
X665150D01*
X665189Y364184D02*
Y364906D01*
Y365861D02*
Y367291D01*
Y364906D02*
Y365470D01*
X664126D02*
Y365861D01*
Y367291D01*
X665189Y365470D02*
Y365861D01*
Y363394D02*
Y364184D01*
X652315Y364906D02*
Y365470D01*
Y364184D02*
Y364906D01*
Y363394D02*
Y364184D01*
X652354Y367331D02*
X653339D01*
X653378Y364184D02*
Y364906D01*
Y365861D02*
Y367291D01*
Y364906D02*
Y365470D01*
X652315D02*
Y365861D01*
Y367291D01*
X653378Y365470D02*
Y365861D01*
Y363394D02*
Y364184D01*
X630661Y364906D02*
Y365470D01*
Y364184D02*
Y364906D01*
Y363394D02*
Y364184D01*
X630701Y367331D02*
X631685D01*
X631724Y364184D02*
Y364906D01*
Y365861D02*
Y367291D01*
Y364906D02*
Y365470D01*
X630661D02*
Y365861D01*
Y367291D01*
X631724Y365470D02*
Y365861D01*
Y363394D02*
Y364184D01*
X676012Y346209D02*
X676576D01*
X675290D02*
X676012D01*
X674500D02*
X675290D01*
X678437Y345185D02*
Y346169D01*
X675290Y345146D02*
X676012D01*
X676967D02*
X678398D01*
X676012D02*
X676576D01*
Y346209D02*
X676967D01*
X678398D01*
X676576Y345146D02*
X676967D01*
X674500D02*
X675290D01*
X676012Y324555D02*
X676576D01*
X675290D02*
X676012D01*
X674500D02*
X675290D01*
X678437Y323532D02*
Y324516D01*
X675290Y323492D02*
X676012D01*
X676967D02*
X678398D01*
X676012D02*
X676576D01*
Y324555D02*
X676967D01*
X678398D01*
X676576Y323492D02*
X676967D01*
X674500D02*
X675290D01*
X663221Y306200D02*
Y306763D01*
Y307486D01*
Y308276D01*
X662197Y304339D02*
X663181D01*
X662158Y306763D02*
Y307486D01*
Y304378D02*
Y305808D01*
Y306200D02*
Y306763D01*
X663221Y305808D02*
Y306200D01*
Y304378D02*
Y305808D01*
X662158D02*
Y306200D01*
Y307486D02*
Y308276D01*
X641567Y306200D02*
Y306763D01*
Y307486D01*
Y308276D01*
X640543Y304339D02*
X641528D01*
X640504Y306763D02*
Y307486D01*
Y304378D02*
Y305808D01*
Y306200D02*
Y306763D01*
X641567Y305808D02*
Y306200D01*
Y304378D02*
Y305808D01*
X640504D02*
Y306200D01*
Y307486D02*
Y308276D01*
X617306Y313650D02*
X617870D01*
X618592D01*
X619382D01*
X615445Y313689D02*
Y314673D01*
X617870Y314713D02*
X618592D01*
X615484D02*
X616914D01*
X617306D02*
X617870D01*
X616914Y313650D02*
X617306D01*
X615484D02*
X616914D01*
Y314713D02*
X617306D01*
X618592D02*
X619382D01*
X617306Y335303D02*
X617870D01*
X618592D01*
X619382D01*
X615445Y335343D02*
Y336327D01*
X617870Y336366D02*
X618592D01*
X615484D02*
X616914D01*
X617306D02*
X617870D01*
X616914Y335303D02*
X617306D01*
X615484D02*
X616914D01*
Y336366D02*
X617306D01*
X618592D02*
X619382D01*
X617306Y356957D02*
X617870D01*
X618592D01*
X619382D01*
X615445Y356996D02*
Y357980D01*
X617870Y358020D02*
X618592D01*
X615484D02*
X616914D01*
X617306D02*
X617870D01*
X616914Y356957D02*
X617306D01*
X615484D02*
X616914D01*
Y358020D02*
X617306D01*
X618592D02*
X619382D01*
X676012D02*
X676576D01*
X675290D02*
X676012D01*
X674500D02*
X675290D01*
X678437Y356996D02*
Y357980D01*
X675290Y356957D02*
X676012D01*
X676967D02*
X678398D01*
X676012D02*
X676576D01*
Y358020D02*
X676967D01*
X678398D01*
X676576Y356957D02*
X676967D01*
X674500D02*
X675290D01*
X640504Y364906D02*
Y365470D01*
Y364184D02*
Y364906D01*
Y363394D02*
Y364184D01*
X640543Y367331D02*
X641528D01*
X641567Y364184D02*
Y364906D01*
Y365861D02*
Y367291D01*
Y364906D02*
Y365470D01*
X640504D02*
Y365861D01*
Y367291D01*
X641567Y365470D02*
Y365861D01*
Y363394D02*
Y364184D01*
X676012Y336366D02*
X676576D01*
X675290D02*
X676012D01*
X674500D02*
X675290D01*
X678437Y335343D02*
Y336327D01*
X675290Y335303D02*
X676012D01*
X676967D02*
X678398D01*
X676012D02*
X676576D01*
Y336366D02*
X676967D01*
X678398D01*
X676576Y335303D02*
X676967D01*
X674500D02*
X675290D01*
X676012Y314713D02*
X676576D01*
X675290D02*
X676012D01*
X674500D02*
X675290D01*
X678437Y313689D02*
Y314673D01*
X675290Y313650D02*
X676012D01*
X676967D02*
X678398D01*
X676012D02*
X676576D01*
Y314713D02*
X676967D01*
X678398D01*
X676576Y313650D02*
X676967D01*
X674500D02*
X675290D01*
X653378Y306200D02*
Y306763D01*
Y307486D01*
Y308276D01*
X652354Y304339D02*
X653339D01*
X652315Y306763D02*
Y307486D01*
Y304378D02*
Y305808D01*
Y306200D02*
Y306763D01*
X653378Y305808D02*
Y306200D01*
Y304378D02*
Y305808D01*
X652315D02*
Y306200D01*
Y307486D02*
Y308276D01*
X631724Y306200D02*
Y306763D01*
Y307486D01*
Y308276D01*
X630701Y304339D02*
X631685D01*
X630661Y306763D02*
Y307486D01*
Y304378D02*
Y305808D01*
Y306200D02*
Y306763D01*
X631724Y305808D02*
Y306200D01*
Y304378D02*
Y305808D01*
X630661D02*
Y306200D01*
Y307486D02*
Y308276D01*
X617306Y323492D02*
X617870D01*
X618592D01*
X619382D01*
X615445Y323532D02*
Y324516D01*
X617870Y324555D02*
X618592D01*
X615484D02*
X616914D01*
X617306D02*
X617870D01*
X616914Y323492D02*
X617306D01*
X615484D02*
X616914D01*
Y324555D02*
X617306D01*
X618592D02*
X619382D01*
X617306Y345146D02*
X617870D01*
X618592D01*
X619382D01*
X615445Y345185D02*
Y346169D01*
X617870Y346209D02*
X618592D01*
X615484D02*
X616914D01*
X617306D02*
X617870D01*
X616914Y345146D02*
X617306D01*
X615484D02*
X616914D01*
Y346209D02*
X617306D01*
X618592D02*
X619382D01*
X662158Y364906D02*
Y365470D01*
Y364184D02*
Y364906D01*
Y363394D02*
Y364184D01*
X662197Y367331D02*
X663181D01*
X663221Y364184D02*
Y364906D01*
Y365861D02*
Y367291D01*
Y364906D02*
Y365470D01*
X662158D02*
Y365861D01*
Y367291D01*
X663221Y365470D02*
Y365861D01*
Y363394D02*
Y364184D01*
X650346Y364906D02*
Y365470D01*
Y364184D02*
Y364906D01*
Y363394D02*
Y364184D01*
X650386Y367331D02*
X651370D01*
X651409Y364184D02*
Y364906D01*
Y365861D02*
Y367291D01*
Y364906D02*
Y365470D01*
X650346D02*
Y365861D01*
Y367291D01*
X651409Y365470D02*
Y365861D01*
Y363394D02*
Y364184D01*
X628693Y364906D02*
Y365470D01*
Y364184D02*
Y364906D01*
Y363394D02*
Y364184D01*
X628732Y367331D02*
X629717D01*
X629756Y364184D02*
Y364906D01*
Y365861D02*
Y367291D01*
Y364906D02*
Y365470D01*
X628693D02*
Y365861D01*
Y367291D01*
X629756Y365470D02*
Y365861D01*
Y363394D02*
Y364184D01*
X676012Y348177D02*
X676576D01*
X675290D02*
X676012D01*
X674500D02*
X675290D01*
X678437Y347154D02*
Y348138D01*
X675290Y347114D02*
X676012D01*
X676967D02*
X678398D01*
X676012D02*
X676576D01*
Y348177D02*
X676967D01*
X678398D01*
X676576Y347114D02*
X676967D01*
X674500D02*
X675290D01*
X676012Y326524D02*
X676576D01*
X675290D02*
X676012D01*
X674500D02*
X675290D01*
X678437Y325500D02*
Y326484D01*
X675290Y325461D02*
X676012D01*
X676967D02*
X678398D01*
X676012D02*
X676576D01*
Y326524D02*
X676967D01*
X678398D01*
X676576Y325461D02*
X676967D01*
X674500D02*
X675290D01*
X665189Y306200D02*
Y306763D01*
Y307486D01*
Y308276D01*
X664165Y304339D02*
X665150D01*
X664126Y306763D02*
Y307486D01*
Y304378D02*
Y305808D01*
Y306200D02*
Y306763D01*
X665189Y305808D02*
Y306200D01*
Y304378D02*
Y305808D01*
X664126D02*
Y306200D01*
Y307486D02*
Y308276D01*
X643535Y306200D02*
Y306763D01*
Y307486D01*
Y308276D01*
X642512Y304339D02*
X643496D01*
X642472Y306763D02*
Y307486D01*
Y304378D02*
Y305808D01*
Y306200D02*
Y306763D01*
X643535Y305808D02*
Y306200D01*
Y304378D02*
Y305808D01*
X642472D02*
Y306200D01*
Y307486D02*
Y308276D01*
X617306Y311681D02*
X617870D01*
X618592D01*
X619382D01*
X615445Y311720D02*
Y312705D01*
X617870Y312744D02*
X618592D01*
X615484D02*
X616914D01*
X617306D02*
X617870D01*
X616914Y311681D02*
X617306D01*
X615484D02*
X616914D01*
Y312744D02*
X617306D01*
X618592D02*
X619382D01*
X617306Y333335D02*
X617870D01*
X618592D01*
X619382D01*
X615445Y333374D02*
Y334358D01*
X617870Y334398D02*
X618592D01*
X615484D02*
X616914D01*
X617306D02*
X617870D01*
X616914Y333335D02*
X617306D01*
X615484D02*
X616914D01*
Y334398D02*
X617306D01*
X618592D02*
X619382D01*
X617306Y354988D02*
X617870D01*
X618592D01*
X619382D01*
X615445Y355028D02*
Y356012D01*
X617870Y356051D02*
X618592D01*
X615484D02*
X616914D01*
X617306D02*
X617870D01*
X616914Y354988D02*
X617306D01*
X615484D02*
X616914D01*
Y356051D02*
X617306D01*
X618592D02*
X619382D01*
X676012Y359988D02*
X676576D01*
X675290D02*
X676012D01*
X674500D02*
X675290D01*
X678437Y358965D02*
Y359949D01*
X675290Y358925D02*
X676012D01*
X676967D02*
X678398D01*
X676012D02*
X676576D01*
Y359988D02*
X676967D01*
X678398D01*
X676576Y358925D02*
X676967D01*
X674500D02*
X675290D01*
X638535Y364906D02*
Y365470D01*
Y364184D02*
Y364906D01*
Y363394D02*
Y364184D01*
X638575Y367331D02*
X639559D01*
X639598Y364184D02*
Y364906D01*
Y365861D02*
Y367291D01*
Y364906D02*
Y365470D01*
X638535D02*
Y365861D01*
Y367291D01*
X639598Y365470D02*
Y365861D01*
Y363394D02*
Y364184D01*
X676012Y338335D02*
X676576D01*
X675290D02*
X676012D01*
X674500D02*
X675290D01*
X678437Y337311D02*
Y338295D01*
X675290Y337272D02*
X676012D01*
X676967D02*
X678398D01*
X676012D02*
X676576D01*
Y338335D02*
X676967D01*
X678398D01*
X676576Y337272D02*
X676967D01*
X674500D02*
X675290D01*
X649441Y306200D02*
Y306763D01*
Y307486D01*
Y308276D01*
X648417Y304339D02*
X649402D01*
X648378Y306763D02*
Y307486D01*
Y304378D02*
Y305808D01*
Y306200D02*
Y306763D01*
X649441Y305808D02*
Y306200D01*
Y304378D02*
Y305808D01*
X648378D02*
Y306200D01*
Y307486D02*
Y308276D01*
X676012Y316681D02*
X676576D01*
X675290D02*
X676012D01*
X674500D02*
X675290D01*
X678437Y315658D02*
Y316642D01*
X675290Y315618D02*
X676012D01*
X676967D02*
X678398D01*
X676012D02*
X676576D01*
Y316681D02*
X676967D01*
X678398D01*
X676576Y315618D02*
X676967D01*
X674500D02*
X675290D01*
X655346Y306200D02*
Y306763D01*
Y307486D01*
Y308276D01*
X654323Y304339D02*
X655307D01*
X654284Y306763D02*
Y307486D01*
Y304378D02*
Y305808D01*
Y306200D02*
Y306763D01*
X655346Y305808D02*
Y306200D01*
Y304378D02*
Y305808D01*
X654284D02*
Y306200D01*
Y307486D02*
Y308276D01*
X633693Y306200D02*
Y306763D01*
Y307486D01*
Y308276D01*
X632669Y304339D02*
X633654D01*
X632630Y306763D02*
Y307486D01*
Y304378D02*
Y305808D01*
Y306200D02*
Y306763D01*
X633693Y305808D02*
Y306200D01*
Y304378D02*
Y305808D01*
X632630D02*
Y306200D01*
Y307486D02*
Y308276D01*
X617306Y321524D02*
X617870D01*
X618592D01*
X619382D01*
X615445Y321563D02*
Y322547D01*
X617870Y322587D02*
X618592D01*
X615484D02*
X616914D01*
X617306D02*
X617870D01*
X616914Y321524D02*
X617306D01*
X615484D02*
X616914D01*
Y322587D02*
X617306D01*
X618592D02*
X619382D01*
X617306Y343177D02*
X617870D01*
X618592D01*
X619382D01*
X615445Y343217D02*
Y344201D01*
X617870Y344240D02*
X618592D01*
X615484D02*
X616914D01*
X617306D02*
X617870D01*
X616914Y343177D02*
X617306D01*
X615484D02*
X616914D01*
Y344240D02*
X617306D01*
X618592D02*
X619382D01*
X660189Y364906D02*
Y365470D01*
Y364184D02*
Y364906D01*
Y363394D02*
Y364184D01*
X660228Y367331D02*
X661213D01*
X661252Y364184D02*
Y364906D01*
Y365861D02*
Y367291D01*
Y364906D02*
Y365470D01*
X660189D02*
Y365861D01*
Y367291D01*
X661252Y365470D02*
Y365861D01*
Y363394D02*
Y364184D01*
X648378Y364906D02*
Y365470D01*
Y364184D02*
Y364906D01*
Y363394D02*
Y364184D01*
X648417Y367331D02*
X649402D01*
X649441Y364184D02*
Y364906D01*
Y365861D02*
Y367291D01*
Y364906D02*
Y365470D01*
X648378D02*
Y365861D01*
Y367291D01*
X649441Y365470D02*
Y365861D01*
Y363394D02*
Y364184D01*
X626724Y364906D02*
Y365470D01*
Y364184D02*
Y364906D01*
Y363394D02*
Y364184D01*
X626764Y367331D02*
X627748D01*
X627787Y364184D02*
Y364906D01*
Y365861D02*
Y367291D01*
Y364906D02*
Y365470D01*
X626724D02*
Y365861D01*
Y367291D01*
X627787Y365470D02*
Y365861D01*
Y363394D02*
Y364184D01*
X676012Y350146D02*
X676576D01*
X675290D02*
X676012D01*
X674500D02*
X675290D01*
X678437Y349122D02*
Y350106D01*
X675290Y349083D02*
X676012D01*
X676967D02*
X678398D01*
X676012D02*
X676576D01*
Y350146D02*
X676967D01*
X678398D01*
X676576Y349083D02*
X676967D01*
X674500D02*
X675290D01*
X676012Y328492D02*
X676576D01*
X675290D02*
X676012D01*
X674500D02*
X675290D01*
X678437Y327469D02*
Y328453D01*
X675290Y327429D02*
X676012D01*
X676967D02*
X678398D01*
X676012D02*
X676576D01*
Y328492D02*
X676967D01*
X678398D01*
X676576Y327429D02*
X676967D01*
X674500D02*
X675290D01*
X667158Y306200D02*
Y306763D01*
Y307486D01*
Y308276D01*
X666134Y304339D02*
X667118D01*
X666095Y306763D02*
Y307486D01*
Y304378D02*
Y305808D01*
Y306200D02*
Y306763D01*
X667158Y305808D02*
Y306200D01*
Y304378D02*
Y305808D01*
X666095D02*
Y306200D01*
Y307486D02*
Y308276D01*
X645504Y306200D02*
Y306763D01*
Y307486D01*
Y308276D01*
X644480Y304339D02*
X645465D01*
X644441Y306763D02*
Y307486D01*
Y304378D02*
Y305808D01*
Y306200D02*
Y306763D01*
X645504Y305808D02*
Y306200D01*
Y304378D02*
Y305808D01*
X644441D02*
Y306200D01*
Y307486D02*
Y308276D01*
X623850Y306200D02*
Y306763D01*
Y307486D01*
Y308276D01*
X622827Y304339D02*
X623811D01*
X622787Y306763D02*
Y307486D01*
Y304378D02*
Y305808D01*
Y306200D02*
Y306763D01*
X623850Y305808D02*
Y306200D01*
Y304378D02*
Y305808D01*
X622787D02*
Y306200D01*
Y307486D02*
Y308276D01*
X617306Y331366D02*
X617870D01*
X618592D01*
X619382D01*
X615445Y331406D02*
Y332390D01*
X617870Y332429D02*
X618592D01*
X615484D02*
X616914D01*
X617306D02*
X617870D01*
X616914Y331366D02*
X617306D01*
X615484D02*
X616914D01*
Y332429D02*
X617306D01*
X618592D02*
X619382D01*
X617306Y353020D02*
X617870D01*
X618592D01*
X619382D01*
X615445Y353059D02*
Y354043D01*
X617870Y354083D02*
X618592D01*
X615484D02*
X616914D01*
X617306D02*
X617870D01*
X616914Y353020D02*
X617306D01*
X615484D02*
X616914D01*
Y354083D02*
X617306D01*
X618592D02*
X619382D01*
X670032Y364906D02*
Y365470D01*
Y364184D02*
Y364906D01*
Y363394D02*
Y364184D01*
X670071Y367331D02*
X671055D01*
X671095Y364184D02*
Y364906D01*
Y365861D02*
Y367291D01*
Y364906D02*
Y365470D01*
X670032D02*
Y365861D01*
Y367291D01*
X671095Y365470D02*
Y365861D01*
Y363394D02*
Y364184D01*
X636567Y364906D02*
Y365470D01*
Y364184D02*
Y364906D01*
Y363394D02*
Y364184D01*
X636606Y367331D02*
X637591D01*
X637630Y364184D02*
Y364906D01*
Y365861D02*
Y367291D01*
Y364906D02*
Y365470D01*
X636567D02*
Y365861D01*
Y367291D01*
X637630Y365470D02*
Y365861D01*
Y363394D02*
Y364184D01*
X676012Y340303D02*
X676576D01*
X675290D02*
X676012D01*
X674500D02*
X675290D01*
X678437Y339280D02*
Y340264D01*
X675290Y339240D02*
X676012D01*
X676967D02*
X678398D01*
X676012D02*
X676576D01*
Y340303D02*
X676967D01*
X678398D01*
X676576Y339240D02*
X676967D01*
X674500D02*
X675290D01*
X676012Y318650D02*
X676576D01*
X675290D02*
X676012D01*
X674500D02*
X675290D01*
X678437Y317626D02*
Y318610D01*
X675290Y317587D02*
X676012D01*
X676967D02*
X678398D01*
X676012D02*
X676576D01*
Y318650D02*
X676967D01*
X678398D01*
X676576Y317587D02*
X676967D01*
X674500D02*
X675290D01*
X657315Y306200D02*
Y306763D01*
Y307486D01*
Y308276D01*
X656291Y304339D02*
X657276D01*
X656252Y306763D02*
Y307486D01*
Y304378D02*
Y305808D01*
Y306200D02*
Y306763D01*
X657315Y305808D02*
Y306200D01*
Y304378D02*
Y305808D01*
X656252D02*
Y306200D01*
Y307486D02*
Y308276D01*
X635661Y306200D02*
Y306763D01*
Y307486D01*
Y308276D01*
X634638Y304339D02*
X635622D01*
X634598Y306763D02*
Y307486D01*
Y304378D02*
Y305808D01*
Y306200D02*
Y306763D01*
X635661Y305808D02*
Y306200D01*
Y304378D02*
Y305808D01*
X634598D02*
Y306200D01*
Y307486D02*
Y308276D01*
X617306Y319555D02*
X617870D01*
X618592D01*
X619382D01*
X615445Y319595D02*
Y320579D01*
X617870Y320618D02*
X618592D01*
X615484D02*
X616914D01*
X617306D02*
X617870D01*
X616914Y319555D02*
X617306D01*
X615484D02*
X616914D01*
Y320618D02*
X617306D01*
X618592D02*
X619382D01*
X617306Y341209D02*
X617870D01*
X618592D01*
X619382D01*
X615445Y341248D02*
Y342232D01*
X617870Y342272D02*
X618592D01*
X615484D02*
X616914D01*
X617306D02*
X617870D01*
X616914Y341209D02*
X617306D01*
X615484D02*
X616914D01*
Y342272D02*
X617306D01*
X618592D02*
X619382D01*
X658221Y364906D02*
Y365470D01*
Y364184D02*
Y364906D01*
Y363394D02*
Y364184D01*
X658260Y367331D02*
X659244D01*
X659284Y364184D02*
Y364906D01*
Y365861D02*
Y367291D01*
Y364906D02*
Y365470D01*
X658221D02*
Y365861D01*
Y367291D01*
X659284Y365470D02*
Y365861D01*
Y363394D02*
Y364184D01*
X624756Y364906D02*
Y365470D01*
Y364184D02*
Y364906D01*
Y363394D02*
Y364184D01*
X624795Y367331D02*
X625780D01*
X625819Y364184D02*
Y364906D01*
Y365861D02*
Y367291D01*
Y364906D02*
Y365470D01*
X624756D02*
Y365861D01*
Y367291D01*
X625819Y365470D02*
Y365861D01*
Y363394D02*
Y364184D01*
X676012Y352114D02*
X676576D01*
X675290D02*
X676012D01*
X674500D02*
X675290D01*
X678437Y351091D02*
Y352075D01*
X675290Y351051D02*
X676012D01*
X676967D02*
X678398D01*
X676012D02*
X676576D01*
Y352114D02*
X676967D01*
X678398D01*
X676576Y351051D02*
X676967D01*
X674500D02*
X675290D01*
X646409Y364906D02*
Y365470D01*
Y364184D02*
Y364906D01*
Y363394D02*
Y364184D01*
X646449Y367331D02*
X647433D01*
X647472Y364184D02*
Y364906D01*
Y365861D02*
Y367291D01*
Y364906D02*
Y365470D01*
X646409D02*
Y365861D01*
Y367291D01*
X647472Y365470D02*
Y365861D01*
Y363394D02*
Y364184D01*
X676012Y330461D02*
X676576D01*
X675290D02*
X676012D01*
X674500D02*
X675290D01*
X678437Y329437D02*
Y330421D01*
X675290Y329398D02*
X676012D01*
X676967D02*
X678398D01*
X676012D02*
X676576D01*
Y330461D02*
X676967D01*
X678398D01*
X676576Y329398D02*
X676967D01*
X674500D02*
X675290D01*
X669126Y306200D02*
Y306763D01*
Y307486D01*
Y308276D01*
X668102Y304339D02*
X669087D01*
X668063Y306763D02*
Y307486D01*
Y304378D02*
Y305808D01*
Y306200D02*
Y306763D01*
X669126Y305808D02*
Y306200D01*
Y304378D02*
Y305808D01*
X668063D02*
Y306200D01*
Y307486D02*
Y308276D01*
X647472Y306200D02*
Y306763D01*
Y307486D01*
Y308276D01*
X646449Y304339D02*
X647433D01*
X646409Y306763D02*
Y307486D01*
Y304378D02*
Y305808D01*
Y306200D02*
Y306763D01*
X647472Y305808D02*
Y306200D01*
Y304378D02*
Y305808D01*
X646409D02*
Y306200D01*
Y307486D02*
Y308276D01*
X625819Y306200D02*
Y306763D01*
Y307486D01*
Y308276D01*
X624795Y304339D02*
X625780D01*
X624756Y306763D02*
Y307486D01*
Y304378D02*
Y305808D01*
Y306200D02*
Y306763D01*
X625819Y305808D02*
Y306200D01*
Y304378D02*
Y305808D01*
X624756D02*
Y306200D01*
Y307486D02*
Y308276D01*
X617306Y329398D02*
X617870D01*
X618592D01*
X619382D01*
X615445Y329437D02*
Y330421D01*
X617870Y330461D02*
X618592D01*
X615484D02*
X616914D01*
X617306D02*
X617870D01*
X616914Y329398D02*
X617306D01*
X615484D02*
X616914D01*
Y330461D02*
X617306D01*
X618592D02*
X619382D01*
X617306Y351051D02*
X617870D01*
X618592D01*
X619382D01*
X615445Y351091D02*
Y352075D01*
X617870Y352114D02*
X618592D01*
X615484D02*
X616914D01*
X617306D02*
X617870D01*
X616914Y351051D02*
X617306D01*
X615484D02*
X616914D01*
Y352114D02*
X617306D01*
X618592D02*
X619382D01*
X668063Y364906D02*
Y365470D01*
Y364184D02*
Y364906D01*
Y363394D02*
Y364184D01*
X668102Y367331D02*
X669087D01*
X669126Y364184D02*
Y364906D01*
Y365861D02*
Y367291D01*
Y364906D02*
Y365470D01*
X668063D02*
Y365861D01*
Y367291D01*
X669126Y365470D02*
Y365861D01*
Y363394D02*
Y364184D01*
X656252Y364906D02*
Y365470D01*
Y364184D02*
Y364906D01*
Y363394D02*
Y364184D01*
X656291Y367331D02*
X657276D01*
X657315Y364184D02*
Y364906D01*
Y365861D02*
Y367291D01*
Y364906D02*
Y365470D01*
X656252D02*
Y365861D01*
Y367291D01*
X657315Y365470D02*
Y365861D01*
Y363394D02*
Y364184D01*
X634598Y364906D02*
Y365470D01*
Y364184D02*
Y364906D01*
Y363394D02*
Y364184D01*
X634638Y367331D02*
X635622D01*
X635661Y364184D02*
Y364906D01*
Y365861D02*
Y367291D01*
Y364906D02*
Y365470D01*
X634598D02*
Y365861D01*
Y367291D01*
X635661Y365470D02*
Y365861D01*
Y363394D02*
Y364184D01*
X676012Y342272D02*
X676576D01*
X675290D02*
X676012D01*
X674500D02*
X675290D01*
X678437Y341248D02*
Y342232D01*
X675290Y341209D02*
X676012D01*
X676967D02*
X678398D01*
X676012D02*
X676576D01*
Y342272D02*
X676967D01*
X678398D01*
X676576Y341209D02*
X676967D01*
X674500D02*
X675290D01*
X676012Y320618D02*
X676576D01*
X675290D02*
X676012D01*
X674500D02*
X675290D01*
X678437Y319595D02*
Y320579D01*
X675290Y319555D02*
X676012D01*
X676967D02*
X678398D01*
X676012D02*
X676576D01*
Y320618D02*
X676967D01*
X678398D01*
X676576Y319555D02*
X676967D01*
X674500D02*
X675290D01*
X659284Y306200D02*
Y306763D01*
Y307486D01*
Y308276D01*
X658260Y304339D02*
X659244D01*
X658221Y306763D02*
Y307486D01*
Y304378D02*
Y305808D01*
Y306200D02*
Y306763D01*
X659284Y305808D02*
Y306200D01*
Y304378D02*
Y305808D01*
X658221D02*
Y306200D01*
Y307486D02*
Y308276D01*
X637630Y306200D02*
Y306763D01*
Y307486D01*
Y308276D01*
X636606Y304339D02*
X637591D01*
X636567Y306763D02*
Y307486D01*
Y304378D02*
Y305808D01*
Y306200D02*
Y306763D01*
X637630Y305808D02*
Y306200D01*
Y304378D02*
Y305808D01*
X636567D02*
Y306200D01*
Y307486D02*
Y308276D01*
X617306Y317587D02*
X617870D01*
X618592D01*
X619382D01*
X615445Y317626D02*
Y318610D01*
X617870Y318650D02*
X618592D01*
X615484D02*
X616914D01*
X617306D02*
X617870D01*
X616914Y317587D02*
X617306D01*
X615484D02*
X616914D01*
Y318650D02*
X617306D01*
X618592D02*
X619382D01*
X617306Y339240D02*
X617870D01*
X618592D01*
X619382D01*
X615445Y339280D02*
Y340264D01*
X617870Y340303D02*
X618592D01*
X615484D02*
X616914D01*
X617306D02*
X617870D01*
X616914Y339240D02*
X617306D01*
X615484D02*
X616914D01*
Y340303D02*
X617306D01*
X618592D02*
X619382D01*
X622787Y364906D02*
Y365470D01*
Y364184D02*
Y364906D01*
Y363394D02*
Y364184D01*
X622827Y367331D02*
X623811D01*
X623850Y364184D02*
Y364906D01*
Y365861D02*
Y367291D01*
Y364906D02*
Y365470D01*
X622787D02*
Y365861D01*
Y367291D01*
X623850Y365470D02*
Y365861D01*
Y363394D02*
Y364184D01*
X676012Y354083D02*
X676576D01*
X675290D02*
X676012D01*
X674500D02*
X675290D01*
X678437Y353059D02*
Y354043D01*
X675290Y353020D02*
X676012D01*
X676967D02*
X678398D01*
X676012D02*
X676576D01*
Y354083D02*
X676967D01*
X678398D01*
X676576Y353020D02*
X676967D01*
X674500D02*
X675290D01*
X644441Y364906D02*
Y365470D01*
Y364184D02*
Y364906D01*
Y363394D02*
Y364184D01*
X644480Y367331D02*
X645465D01*
X645504Y364184D02*
Y364906D01*
Y365861D02*
Y367291D01*
Y364906D02*
Y365470D01*
X644441D02*
Y365861D01*
Y367291D01*
X645504Y365470D02*
Y365861D01*
Y363394D02*
Y364184D01*
X676012Y332429D02*
X676576D01*
X675290D02*
X676012D01*
X674500D02*
X675290D01*
X678437Y331406D02*
Y332390D01*
X675290Y331366D02*
X676012D01*
X676967D02*
X678398D01*
X676012D02*
X676576D01*
Y332429D02*
X676967D01*
X678398D01*
X676576Y331366D02*
X676967D01*
X674500D02*
X675290D01*
X671095Y306200D02*
Y306763D01*
Y307486D01*
Y308276D01*
X670071Y304339D02*
X671055D01*
X670032Y306763D02*
Y307486D01*
Y304378D02*
Y305808D01*
Y306200D02*
Y306763D01*
X671095Y305808D02*
Y306200D01*
Y304378D02*
Y305808D01*
X670032D02*
Y306200D01*
Y307486D02*
Y308276D01*
X621595Y308866D02*
X672287D01*
X619972Y361181D02*
X621595Y362803D01*
X672287Y308866D02*
X672532Y308276D01*
Y363394D02*
X674500Y361425D01*
X621350Y308276D02*
X672532D01*
X621350Y363394D02*
X672532D01*
X619382Y361425D02*
X621350Y363394D01*
X672287Y308866D02*
X673909Y310489D01*
Y361181D01*
X672287Y362803D02*
X673909Y361181D01*
Y310489D02*
X674500Y310244D01*
X619382D02*
X621350Y308276D01*
X619972Y310489D02*
X621595Y308866D01*
X673909Y361181D02*
X674500Y361425D01*
X621350Y308276D02*
X621595Y308866D01*
X674500Y310244D02*
Y361425D01*
X619382D02*
X619972Y361181D01*
X619382Y310244D02*
Y361425D01*
X619972Y310489D02*
Y361181D01*
X672287Y362803D02*
X672532Y363394D01*
X619382Y310244D02*
X619972Y310489D01*
X621595Y362803D02*
X672287D01*
X672532Y308276D02*
X674500Y310244D01*
X621350Y363394D02*
X621595Y362803D01*
D16*
X643557Y328709D02*
X647722D01*
X648555Y329542D01*
Y331208D01*
X647722Y332041D01*
X643557D01*
X648555Y333707D02*
Y335373D01*
Y334540D01*
X643557D01*
X644390Y333707D01*
D71*
X880221Y144433D02*
G03*
X880221Y144433I-1969J0D01*
G01*
X989406Y226295D02*
G03*
X989406Y210705I-5906J-7795D01*
G01*
X271201Y449886D02*
G03*
X271201Y449886I-1969J0D01*
G01*
X272201Y515130D02*
G03*
X272201Y515130I-1969J0D01*
G01*
X981909Y188937D02*
G03*
X981909Y188937I-1969J0D01*
G01*
X249768Y468244D02*
Y473756D01*
X258232Y468244D02*
Y473756D01*
X249768Y468244D02*
X258232D01*
X249768Y473756D02*
X258232D01*
X879445Y318004D02*
Y323516D01*
X870980Y318004D02*
Y323516D01*
X879445D01*
X870980Y318004D02*
X879445D01*
X872232Y286657D02*
X879319D01*
X872232Y298862D02*
X879319D01*
X872232Y286657D02*
Y298862D01*
X879319Y286657D02*
Y298862D01*
X902244Y146768D02*
X907756D01*
X902244Y155232D02*
X907756D01*
Y146768D02*
Y155232D01*
X902244Y146768D02*
Y155232D01*
X858268Y120764D02*
X866732D01*
X858268Y126276D02*
X866732D01*
X858268Y120764D02*
Y126276D01*
X866732Y120764D02*
Y126276D01*
X884445Y192764D02*
Y198275D01*
X875980Y192764D02*
Y198275D01*
Y192764D02*
X884445D01*
X875980Y198275D02*
X884445D01*
X862445Y192764D02*
Y198275D01*
X853980Y192764D02*
Y198275D01*
Y192764D02*
X862445D01*
X853980Y198275D02*
X862445D01*
X875854Y179764D02*
X884319D01*
X875854Y185276D02*
X884319D01*
Y179764D02*
Y185276D01*
X875854Y179764D02*
Y185276D01*
X853980Y185275D02*
X862445D01*
X853980Y179764D02*
X862445D01*
X853980D02*
Y185275D01*
X862445Y179764D02*
Y185275D01*
X856205Y140890D02*
X881795D01*
X856205Y162150D02*
X881795D01*
Y140890D02*
Y162150D01*
X856205Y140890D02*
Y162150D01*
X565295Y340744D02*
Y346256D01*
X556831Y340744D02*
Y346256D01*
Y340744D02*
X565295D01*
X556831Y346256D02*
X565295D01*
X950744Y225232D02*
X956256D01*
X950744Y216768D02*
X956256D01*
X950744D02*
Y225232D01*
X956256Y216768D02*
Y225232D01*
X989406Y210705D02*
Y226295D01*
X1027232Y253244D02*
Y258756D01*
X1018768Y253244D02*
Y258756D01*
X1027232D01*
X1018768Y253244D02*
X1027232D01*
X737795Y412150D02*
Y417661D01*
X729331Y412150D02*
Y417661D01*
Y412150D02*
X737795D01*
X729331Y417661D02*
X737795D01*
X738232Y428744D02*
Y434256D01*
X729768Y428744D02*
Y434256D01*
Y428744D02*
X738232D01*
X729768Y434256D02*
X738232D01*
X738732Y478744D02*
Y484256D01*
X730268Y478744D02*
Y484256D01*
Y478744D02*
X738732D01*
X730268Y484256D02*
X738732D01*
X738232Y445244D02*
Y450756D01*
X729768Y445244D02*
Y450756D01*
Y445244D02*
X738232D01*
X729768Y450756D02*
X738232D01*
Y464244D02*
Y469756D01*
X729768Y464244D02*
Y469756D01*
Y464244D02*
X738232D01*
X729768Y469756D02*
X738232D01*
X738169Y495244D02*
Y500756D01*
X729705Y495244D02*
Y500756D01*
Y495244D02*
X738169D01*
X729705Y500756D02*
X738169D01*
X629362Y273406D02*
Y281870D01*
X623850Y273406D02*
Y281870D01*
X629362D01*
X623850Y273406D02*
X629362D01*
X641362D02*
Y281870D01*
X635850Y273406D02*
Y281870D01*
X641362D01*
X635850Y273406D02*
X641362D01*
X657744D02*
Y281870D01*
X663256Y273406D02*
Y281870D01*
X657744Y273406D02*
X663256D01*
X657744Y281870D02*
X663256D01*
X587268Y341244D02*
X595732D01*
X587268Y346756D02*
X595732D01*
Y341244D02*
Y346756D01*
X587268Y341244D02*
Y346756D01*
X626244Y388205D02*
Y396669D01*
X631756Y388205D02*
Y396669D01*
X626244Y388205D02*
X631756D01*
X626244Y396669D02*
X631756D01*
X701268Y352362D02*
X709732D01*
X701268Y346850D02*
X709732D01*
X701268D02*
Y352362D01*
X709732Y346850D02*
Y352362D01*
X701268Y340862D02*
X709732D01*
X701268Y335350D02*
X709732D01*
X701268D02*
Y340862D01*
X709732Y335350D02*
Y340862D01*
X209768Y488744D02*
X218232D01*
X209768Y494256D02*
X218232D01*
X209768Y488744D02*
Y494256D01*
X218232Y488744D02*
Y494256D01*
X208705Y471256D02*
X217169D01*
X208705Y465744D02*
X217169D01*
Y471256D01*
X208705Y465744D02*
Y471256D01*
X207705Y443244D02*
X216169D01*
X207705Y448756D02*
X216169D01*
X207705Y443244D02*
Y448756D01*
X216169Y443244D02*
Y448756D01*
X232224Y425083D02*
Y453429D01*
X272776Y425083D02*
Y453429D01*
X232224Y425083D02*
X272776D01*
X232224Y453429D02*
X272776D01*
X233224Y490327D02*
Y518673D01*
X273776Y490327D02*
Y518673D01*
X233224Y490327D02*
X273776D01*
X233224Y518673D02*
X273776D01*
X989169Y258244D02*
Y263756D01*
X980705Y258244D02*
Y263756D01*
X989169D01*
X980705Y258244D02*
X989169D01*
X989232Y239744D02*
Y245256D01*
X980768Y239744D02*
Y245256D01*
X989232D01*
X980768Y239744D02*
X989232D01*
X1018768Y222744D02*
Y228256D01*
X1027232Y222744D02*
Y228256D01*
X1018768Y222744D02*
X1027232D01*
X1018768Y228256D02*
X1027232D01*
X956516Y152520D02*
X983484D01*
X956516Y192480D02*
X983484D01*
X956516Y152520D02*
Y192480D01*
X983484Y152520D02*
Y192480D01*
X890020Y292492D02*
X895532D01*
X890020Y284028D02*
X895532D01*
X890020D02*
Y292492D01*
X895532Y284028D02*
Y292492D01*
X951244Y249795D02*
X956756D01*
X951244Y241331D02*
X956756D01*
X951244D02*
Y249795D01*
X956756Y241331D02*
Y249795D01*
X1018331Y238244D02*
Y243756D01*
X1026795Y238244D02*
Y243756D01*
X1018331Y238244D02*
X1026795D01*
X1018331Y243756D02*
X1026795D01*
X675244Y124331D02*
Y132795D01*
X680756Y124331D02*
Y132795D01*
X675244D02*
X680756D01*
X675244Y124331D02*
X680756D01*
X660744D02*
Y132795D01*
X666256Y124331D02*
Y132795D01*
X660744D02*
X666256D01*
X660744Y124331D02*
X666256D01*
X630256Y125205D02*
Y133669D01*
X624744Y125205D02*
Y133669D01*
Y125205D02*
X630256D01*
X624744Y133669D02*
X630256D01*
X608244Y124831D02*
Y133295D01*
X613756Y124831D02*
Y133295D01*
X608244D02*
X613756D01*
X608244Y124831D02*
X613756D01*
X701831Y371882D02*
Y377394D01*
X710295Y371882D02*
Y377394D01*
X701831D02*
X710295D01*
X701831Y371882D02*
X710295D01*
M02*
