G04*
G04 #@! TF.GenerationSoftware,Altium Limited,Altium Designer,18.1.6 (161)*
G04*
G04 Layer_Color=16711935*
%FSLAX25Y25*%
%MOIN*%
G70*
G01*
G75*
%ADD22R,0.06312X0.06706*%
%ADD23R,0.06706X0.06312*%
%ADD27C,0.06312*%
%ADD28O,0.18517X0.08674*%
%ADD29O,0.16548X0.08674*%
%ADD30O,0.08674X0.16548*%
%ADD31C,0.06706*%
%ADD32C,0.06706*%
%ADD33R,0.05524X0.05524*%
%ADD34C,0.05524*%
%ADD35R,0.06706X0.06706*%
%ADD36R,0.06706X0.06706*%
%ADD37O,0.08674X0.04737*%
%ADD38O,0.08674X0.04737*%
%ADD39R,0.05524X0.05524*%
%ADD40C,0.30800*%
%ADD41C,0.04800*%
%ADD65R,0.05918X0.03556*%
%ADD66O,0.02572X0.10249*%
D22*
X250063Y471000D02*
D03*
X257937D02*
D03*
X879150Y320760D02*
D03*
X871276D02*
D03*
X858563Y123520D02*
D03*
X866437D02*
D03*
X884150Y195520D02*
D03*
X876276D02*
D03*
X862150D02*
D03*
X854276D02*
D03*
X884024Y182520D02*
D03*
X876150D02*
D03*
X854276D02*
D03*
X862150D02*
D03*
X1026937Y256000D02*
D03*
X1019063D02*
D03*
X210063Y491500D02*
D03*
X217937D02*
D03*
X216874Y468500D02*
D03*
X209000D02*
D03*
X208000Y446000D02*
D03*
X215874D02*
D03*
X988874Y261000D02*
D03*
X981000D02*
D03*
X988937Y242500D02*
D03*
X981063D02*
D03*
X1019063Y225500D02*
D03*
X1026937D02*
D03*
X1018626Y241000D02*
D03*
X1026500D02*
D03*
D23*
X905000Y147063D02*
D03*
Y154937D02*
D03*
X953500Y224937D02*
D03*
Y217063D02*
D03*
X892776Y292197D02*
D03*
Y284323D02*
D03*
X954000Y249500D02*
D03*
Y241626D02*
D03*
X678000Y132500D02*
D03*
Y124626D02*
D03*
X663500Y132500D02*
D03*
Y124626D02*
D03*
X627500Y125500D02*
D03*
Y133374D02*
D03*
X611000Y133000D02*
D03*
Y125126D02*
D03*
D27*
X653500Y240500D02*
D03*
X623500D02*
D03*
X896500Y112020D02*
D03*
X866500D02*
D03*
X853776Y275760D02*
D03*
Y305760D02*
D03*
D28*
X970437Y132909D02*
D03*
D29*
Y108500D02*
D03*
D30*
X950752Y120311D02*
D03*
D31*
X975358Y132909D02*
D03*
X965516D02*
D03*
D32*
X966500Y108500D02*
D03*
X974374D02*
D03*
X950752Y124248D02*
D03*
Y116374D02*
D03*
X931563Y318500D02*
D03*
X941563Y295000D02*
D03*
X868500Y239500D02*
D03*
X932000Y275000D02*
D03*
X801500Y143500D02*
D03*
X827500Y320000D02*
D03*
X1037476Y206000D02*
D03*
X698000Y414500D02*
D03*
X698500Y431500D02*
D03*
X699000Y448000D02*
D03*
X611500Y422000D02*
D03*
Y442000D02*
D03*
Y452000D02*
D03*
Y462000D02*
D03*
Y472000D02*
D03*
Y482000D02*
D03*
Y492000D02*
D03*
Y502000D02*
D03*
Y432000D02*
D03*
X699000Y465500D02*
D03*
Y481500D02*
D03*
Y498000D02*
D03*
X726000Y281500D02*
D03*
X711626Y282000D02*
D03*
X569000Y294500D02*
D03*
Y313000D02*
D03*
X569500Y256000D02*
D03*
X569000Y275000D02*
D03*
X671000Y540000D02*
D03*
X661000D02*
D03*
X651000D02*
D03*
X641000D02*
D03*
X237500Y424256D02*
D03*
X247500D02*
D03*
X257500D02*
D03*
X267500D02*
D03*
X237500Y454256D02*
D03*
X247500D02*
D03*
X257500D02*
D03*
X238500Y489500D02*
D03*
X248500D02*
D03*
X258500D02*
D03*
X268500D02*
D03*
X238500Y519500D02*
D03*
X248500D02*
D03*
X258500D02*
D03*
X189500Y381500D02*
D03*
X1038976Y275000D02*
D03*
X955000Y157500D02*
D03*
Y167500D02*
D03*
Y177500D02*
D03*
Y187500D02*
D03*
X985000Y157500D02*
D03*
Y167500D02*
D03*
Y177500D02*
D03*
X614500Y146500D02*
D03*
X664500D02*
D03*
X594500Y216500D02*
D03*
X604500D02*
D03*
X614500D02*
D03*
X624500D02*
D03*
X634500D02*
D03*
X644500D02*
D03*
X654500D02*
D03*
X664500D02*
D03*
X674500D02*
D03*
X684500D02*
D03*
X330000Y225000D02*
D03*
X340000D02*
D03*
X350000D02*
D03*
X360000D02*
D03*
X370000D02*
D03*
X380000D02*
D03*
X390000D02*
D03*
X400000D02*
D03*
X410000D02*
D03*
X420000D02*
D03*
X430000D02*
D03*
X440000D02*
D03*
X450000D02*
D03*
X460000D02*
D03*
X470000D02*
D03*
X480000D02*
D03*
X490000D02*
D03*
X500000D02*
D03*
X510000D02*
D03*
X330000Y135000D02*
D03*
X340000D02*
D03*
X350000D02*
D03*
X360000D02*
D03*
X370000D02*
D03*
X380000D02*
D03*
X390000D02*
D03*
X400000D02*
D03*
X410000D02*
D03*
X420000D02*
D03*
X430000D02*
D03*
X440000D02*
D03*
X450000D02*
D03*
X460000D02*
D03*
X470000D02*
D03*
X480000D02*
D03*
X490000D02*
D03*
X500000D02*
D03*
X510000D02*
D03*
D33*
X845000Y164500D02*
D03*
X514000Y486500D02*
D03*
X325024D02*
D03*
D34*
X845000Y134500D02*
D03*
X213000Y554500D02*
D03*
X203000D02*
D03*
X514000Y273902D02*
D03*
X506126D02*
D03*
X317150D02*
D03*
X325024D02*
D03*
X514000Y517996D02*
D03*
X506126Y509500D02*
D03*
Y517996D02*
D03*
X498252Y509500D02*
D03*
Y517996D02*
D03*
X490378Y509500D02*
D03*
Y517996D02*
D03*
X482504Y509500D02*
D03*
Y517996D02*
D03*
X474630Y509500D02*
D03*
Y517996D02*
D03*
X466756Y509500D02*
D03*
Y517996D02*
D03*
X458882Y509500D02*
D03*
Y517996D02*
D03*
X451008Y509500D02*
D03*
Y517996D02*
D03*
X443134Y509500D02*
D03*
Y517996D02*
D03*
X435260Y509500D02*
D03*
Y517996D02*
D03*
X427386Y509500D02*
D03*
Y517996D02*
D03*
X419512Y509500D02*
D03*
Y517996D02*
D03*
X411638Y509500D02*
D03*
Y517996D02*
D03*
X403764Y509500D02*
D03*
Y517996D02*
D03*
X395890Y509500D02*
D03*
Y517996D02*
D03*
X506126Y384138D02*
D03*
X514000D02*
D03*
X506126Y392012D02*
D03*
X514000D02*
D03*
X506126Y399886D02*
D03*
X514000D02*
D03*
X506126Y407760D02*
D03*
X514000D02*
D03*
X506126Y415634D02*
D03*
X514000D02*
D03*
X506126Y423508D02*
D03*
X514000D02*
D03*
X506126Y431382D02*
D03*
X514000D02*
D03*
X506126Y439256D02*
D03*
X514000D02*
D03*
X506126Y447130D02*
D03*
X514000D02*
D03*
X506126Y455004D02*
D03*
X514000D02*
D03*
X506126Y462878D02*
D03*
X514000D02*
D03*
X506126Y470752D02*
D03*
X514000D02*
D03*
X506126Y478626D02*
D03*
X514000D02*
D03*
X506126Y486500D02*
D03*
X514000Y376264D02*
D03*
X506126D02*
D03*
X514000Y368390D02*
D03*
X506126D02*
D03*
Y281776D02*
D03*
X514000D02*
D03*
Y360516D02*
D03*
X506126D02*
D03*
X514000Y352642D02*
D03*
X506126D02*
D03*
X514000Y344768D02*
D03*
X506126D02*
D03*
X514000Y336894D02*
D03*
X506126D02*
D03*
X514000Y329020D02*
D03*
X506126D02*
D03*
X514000Y321146D02*
D03*
X506126D02*
D03*
X514000Y313272D02*
D03*
X506126D02*
D03*
X514000Y305398D02*
D03*
X506126D02*
D03*
X514000Y297524D02*
D03*
X506126D02*
D03*
X514000Y289650D02*
D03*
X506126D02*
D03*
X317150D02*
D03*
X325024D02*
D03*
X317150Y297524D02*
D03*
X325024D02*
D03*
X317150Y305398D02*
D03*
X325024D02*
D03*
X317150Y313272D02*
D03*
X325024D02*
D03*
X317150Y321146D02*
D03*
X325024D02*
D03*
X317150Y329020D02*
D03*
X325024D02*
D03*
X317150Y336894D02*
D03*
X325024D02*
D03*
X317150Y344768D02*
D03*
X325024D02*
D03*
X317150Y352642D02*
D03*
X325024D02*
D03*
X317150Y360516D02*
D03*
X325024D02*
D03*
Y281776D02*
D03*
X317150D02*
D03*
Y368390D02*
D03*
X325024D02*
D03*
X317150Y376264D02*
D03*
X325024D02*
D03*
X317150Y486500D02*
D03*
X325024Y478626D02*
D03*
X317150D02*
D03*
X325024Y470752D02*
D03*
X317150D02*
D03*
X325024Y462878D02*
D03*
X317150D02*
D03*
X325024Y455004D02*
D03*
X317150D02*
D03*
X325024Y447130D02*
D03*
X317150D02*
D03*
X325024Y439256D02*
D03*
X317150D02*
D03*
X325024Y431382D02*
D03*
X317150D02*
D03*
X325024Y423508D02*
D03*
X317150D02*
D03*
X325024Y415634D02*
D03*
X317150D02*
D03*
X325024Y407760D02*
D03*
X317150D02*
D03*
X325024Y399886D02*
D03*
X317150D02*
D03*
X325024Y392012D02*
D03*
X317150D02*
D03*
X325024Y384138D02*
D03*
X317150D02*
D03*
D35*
X941563Y318500D02*
D03*
X931563Y295000D02*
D03*
X878500Y239500D02*
D03*
X942000Y275000D02*
D03*
X1009524Y206000D02*
D03*
X708000Y414500D02*
D03*
X708500Y431500D02*
D03*
X709000Y448000D02*
D03*
Y465500D02*
D03*
Y481500D02*
D03*
Y498000D02*
D03*
X579000Y294500D02*
D03*
Y313000D02*
D03*
X579500Y256000D02*
D03*
X579000Y275000D02*
D03*
X681000Y540000D02*
D03*
X179500Y381500D02*
D03*
X1011024Y275000D02*
D03*
X985000Y187500D02*
D03*
X624500Y146500D02*
D03*
X674500D02*
D03*
X694500Y216500D02*
D03*
X320000Y225000D02*
D03*
Y135000D02*
D03*
D36*
X801500Y153500D02*
D03*
X827500Y310000D02*
D03*
X611500Y412000D02*
D03*
X726000Y291500D02*
D03*
X711626Y292000D02*
D03*
X267500Y454256D02*
D03*
X268500Y519500D02*
D03*
D37*
X983500Y213500D02*
D03*
Y223500D02*
D03*
X984500Y282000D02*
D03*
Y287000D02*
D03*
Y292000D02*
D03*
D38*
X983500Y218500D02*
D03*
D39*
X193000Y554500D02*
D03*
X514000Y509500D02*
D03*
D40*
X574000Y119500D02*
D03*
X575500Y538500D02*
D03*
X123500D02*
D03*
Y123500D02*
D03*
X1032000D02*
D03*
Y538500D02*
D03*
D41*
X586000Y381000D02*
D03*
X580000Y336894D02*
D03*
X560500Y331000D02*
D03*
X590500Y326000D02*
D03*
X584500Y330000D02*
D03*
X605000Y334000D02*
D03*
X600000Y337500D02*
D03*
X597413Y325000D02*
D03*
X384000Y463298D02*
D03*
X602400Y344943D02*
D03*
X435000Y464500D02*
D03*
X858500Y146000D02*
D03*
X635169Y379713D02*
D03*
X637138Y374400D02*
D03*
X411000Y434807D02*
D03*
X401500Y423807D02*
D03*
X405300Y357700D02*
D03*
X430300Y371200D02*
D03*
Y395100D02*
D03*
X600600Y124626D02*
D03*
X855000Y137740D02*
D03*
X869000Y188900D02*
D03*
X870000Y156900D02*
D03*
X878500Y175900D02*
D03*
X679000Y308000D02*
D03*
X676800Y301500D02*
D03*
X630000Y329000D02*
D03*
X627000Y324300D02*
D03*
X624400Y312700D02*
D03*
X633600Y313500D02*
D03*
X610000Y345638D02*
D03*
X661000Y411400D02*
D03*
X676800Y365300D02*
D03*
X252500Y348900D02*
D03*
X651705Y324400D02*
D03*
X658600Y324200D02*
D03*
X688700Y331858D02*
D03*
X856200Y158900D02*
D03*
X645500Y390900D02*
D03*
X637050Y353350D02*
D03*
X605700Y348700D02*
D03*
X981063Y233900D02*
D03*
X709463Y358463D02*
D03*
X691000Y340000D02*
D03*
D65*
X871051Y296500D02*
D03*
Y292760D02*
D03*
Y289020D02*
D03*
X880500D02*
D03*
Y292760D02*
D03*
Y296500D02*
D03*
D66*
X877957Y137740D02*
D03*
X875398D02*
D03*
X872839D02*
D03*
X870280D02*
D03*
X867720D02*
D03*
X865161D02*
D03*
X862602D02*
D03*
X860043D02*
D03*
X877957Y165299D02*
D03*
X875398D02*
D03*
X872839D02*
D03*
X870280D02*
D03*
X867720D02*
D03*
X865161D02*
D03*
X862602D02*
D03*
X860043D02*
D03*
M02*
