G04*
G04 #@! TF.GenerationSoftware,Altium Limited,Altium Designer,18.1.6 (161)*
G04*
G04 Layer_Color=65535*
%FSLAX25Y25*%
%MOIN*%
G70*
G01*
G75*
%ADD10C,0.00787*%
%ADD11C,0.02362*%
%ADD12C,0.00984*%
%ADD13C,0.01000*%
%ADD14C,0.00500*%
%ADD15C,0.00591*%
%ADD16C,0.00300*%
D10*
X875000Y149500D02*
G03*
X875000Y149500I-30000J0D01*
G01*
X272776Y441756D02*
G03*
X272776Y436756I0J-2500D01*
G01*
X273776Y507000D02*
G03*
X273776Y502000I0J-2500D01*
G01*
X627600Y240500D02*
X628500D01*
X648500D02*
X649400D01*
X628500D02*
Y243500D01*
X648500D01*
Y237500D02*
Y243500D01*
X628500Y237500D02*
X648500D01*
X628500D02*
Y240500D01*
X891500Y112020D02*
Y115020D01*
X871500D02*
X891500D01*
X871500Y109020D02*
Y115020D01*
Y109020D02*
X891500D01*
Y112020D01*
X870600D02*
X871500D01*
X891500D02*
X892400D01*
X853776Y300760D02*
Y301660D01*
Y279860D02*
Y280760D01*
Y300760D02*
X856776D01*
Y280760D02*
Y300760D01*
X850776Y280760D02*
X856776D01*
X850776D02*
Y300760D01*
X853776D01*
X561063Y340941D02*
Y346059D01*
X806500Y138500D02*
Y158500D01*
X796500D02*
X806500D01*
X796500Y138500D02*
Y158500D01*
Y138500D02*
X806500D01*
X822500Y305000D02*
Y325000D01*
Y305000D02*
X832500D01*
Y325000D01*
X822500D02*
X832500D01*
X183000Y564500D02*
X223000D01*
Y554500D02*
Y564500D01*
Y554500D02*
X228000D01*
Y544500D02*
Y554500D01*
X183000Y544500D02*
X228000D01*
X183000D02*
Y564500D01*
X733563Y412346D02*
Y417465D01*
X734000Y428941D02*
Y434059D01*
X734500Y478941D02*
Y484059D01*
X734000Y445441D02*
Y450559D01*
Y464441D02*
Y469559D01*
X693000Y409500D02*
X713000D01*
Y419500D01*
X693000D02*
X713000D01*
X693000Y409500D02*
Y419500D01*
X693500Y426500D02*
X713500D01*
Y436500D01*
X693500D02*
X713500D01*
X693500Y426500D02*
Y436500D01*
X694000Y443000D02*
X714000D01*
Y453000D01*
X694000D02*
X714000D01*
X694000Y443000D02*
Y453000D01*
X606500Y507000D02*
X616500D01*
Y407000D02*
Y507000D01*
X606500Y407000D02*
X616500D01*
X606500D02*
Y414500D01*
Y507000D01*
X694000Y460500D02*
X714000D01*
Y470500D01*
X694000D02*
X714000D01*
X694000Y460500D02*
Y470500D01*
X733937Y495441D02*
Y500559D01*
X694000Y476500D02*
X714000D01*
Y486500D01*
X694000D02*
X714000D01*
X694000Y476500D02*
Y486500D01*
Y493000D02*
X714000D01*
Y503000D01*
X694000D02*
X714000D01*
X694000Y493000D02*
Y503000D01*
X731000Y276500D02*
Y296500D01*
X721000D02*
X731000D01*
X721000Y276500D02*
Y296500D01*
Y276500D02*
X731000D01*
X716626Y277000D02*
Y297000D01*
X706626D02*
X716626D01*
X706626Y277000D02*
Y297000D01*
Y277000D02*
X716626D01*
X564000Y289500D02*
X584000D01*
Y299500D01*
X564000D02*
X584000D01*
X564000Y289500D02*
Y299500D01*
Y308000D02*
X584000D01*
Y318000D01*
X564000D02*
X584000D01*
X564000Y308000D02*
Y318000D01*
X564500Y251000D02*
X584500D01*
Y261000D01*
X564500D02*
X584500D01*
X564500Y251000D02*
Y261000D01*
X564000Y270000D02*
X584000D01*
Y280000D01*
X564000D02*
X584000D01*
X564000Y270000D02*
Y280000D01*
X624047Y277638D02*
X629165D01*
X636047D02*
X641165D01*
X657941D02*
X663059D01*
X591500Y341441D02*
Y346559D01*
X626441Y392437D02*
X631559D01*
X705500Y347047D02*
Y352165D01*
Y335547D02*
Y340665D01*
X232224Y428823D02*
Y449689D01*
X272776Y428823D02*
Y436756D01*
Y441756D02*
Y449689D01*
X232224Y428823D02*
X272776D01*
X232224Y449689D02*
X272776D01*
X233224Y494067D02*
Y514933D01*
X273776Y494067D02*
Y502000D01*
Y507000D02*
Y514933D01*
X233224Y494067D02*
X273776D01*
X233224Y514933D02*
X273776D01*
X706063Y372079D02*
Y377197D01*
X622571Y311386D02*
X671390D01*
X622571Y360205D02*
X671390D01*
X622571Y311386D02*
Y360205D01*
X671390Y311386D02*
Y360205D01*
X609500Y141500D02*
Y151500D01*
X629500D01*
Y141500D02*
Y151500D01*
X609500Y141500D02*
X629500D01*
X659500D02*
Y151500D01*
X679500D01*
Y141500D02*
Y151500D01*
X659500Y141500D02*
X679500D01*
X589500Y211500D02*
X692000D01*
X699500D01*
Y221500D01*
X589500D02*
X699500D01*
X589500Y211500D02*
Y221500D01*
X515000Y220000D02*
Y230000D01*
X315000Y220000D02*
X515000D01*
X315000D02*
Y230000D01*
X322500D01*
X515000D01*
Y130000D02*
Y140000D01*
X315000Y130000D02*
X515000D01*
X315000D02*
Y140000D01*
X322500D01*
X515000D01*
D11*
X270020Y445752D02*
G03*
X270020Y445752I-1181J0D01*
G01*
X271020Y510996D02*
G03*
X271020Y510996I-1181J0D01*
G01*
X627689Y315323D02*
G03*
X627689Y315323I-1181J0D01*
G01*
D12*
X273110Y454256D02*
G03*
X273110Y454256I-492J0D01*
G01*
X274110Y519500D02*
G03*
X274110Y519500I-492J0D01*
G01*
X621095Y305776D02*
G03*
X621095Y305776I-492J0D01*
G01*
D13*
X422528Y440461D02*
G03*
X430028Y440461I3750J0D01*
G01*
Y350461D02*
G03*
X422528Y350461I-3750J0D01*
G01*
X589500Y221500D02*
X699500D01*
Y141500D02*
Y221500D01*
X589500Y141500D02*
X699500D01*
X589500D02*
Y221500D01*
X552000Y407000D02*
X616500D01*
X552000D02*
Y409000D01*
Y507000D01*
X616500D01*
X249500Y130000D02*
Y532500D01*
Y130000D02*
X251500Y128000D01*
X904500D01*
Y532500D01*
X249500D02*
X904500D01*
X397528Y437961D02*
X400028Y440461D01*
X397528Y350461D02*
Y437961D01*
Y350461D02*
X422528D01*
X430028D02*
X437528D01*
Y440461D01*
X400028D02*
X422528D01*
X430028D02*
X437528D01*
X109500Y214085D02*
Y220083D01*
X112499D01*
X113499Y219084D01*
Y217084D01*
X112499Y216085D01*
X109500D01*
X111499D02*
X113499Y214085D01*
X118497D02*
X116498D01*
X115498Y215085D01*
Y217084D01*
X116498Y218084D01*
X118497D01*
X119497Y217084D01*
Y216085D01*
X115498D01*
X122496Y218084D02*
X124495D01*
X125495Y217084D01*
Y214085D01*
X122496D01*
X121496Y215085D01*
X122496Y216085D01*
X125495D01*
X127494Y214085D02*
X129493D01*
X128494D01*
Y220083D01*
X127494D01*
X132493Y214085D02*
X134492D01*
X133492D01*
Y220083D01*
X132493D01*
X137491Y218084D02*
Y215085D01*
X138491Y214085D01*
X141490D01*
Y213086D01*
X140490Y212086D01*
X139490D01*
X141490Y214085D02*
Y218084D01*
X109500Y202488D02*
Y206487D01*
X111499Y208486D01*
X113499Y206487D01*
Y202488D01*
Y205487D01*
X109500D01*
X115498Y206487D02*
Y203488D01*
X116498Y202488D01*
X117497Y203488D01*
X118497Y202488D01*
X119497Y203488D01*
Y206487D01*
X124495Y202488D02*
X122496D01*
X121496Y203488D01*
Y205487D01*
X122496Y206487D01*
X124495D01*
X125495Y205487D01*
Y204488D01*
X121496D01*
X127494Y202488D02*
X130493D01*
X131493Y203488D01*
X130493Y204488D01*
X128494D01*
X127494Y205487D01*
X128494Y206487D01*
X131493D01*
X134492Y202488D02*
X136491D01*
X137491Y203488D01*
Y205487D01*
X136491Y206487D01*
X134492D01*
X133492Y205487D01*
Y203488D01*
X134492Y202488D01*
X139490D02*
Y206487D01*
X140490D01*
X141490Y205487D01*
Y202488D01*
Y205487D01*
X142489Y206487D01*
X143489Y205487D01*
Y202488D01*
X148487D02*
X146488D01*
X145488Y203488D01*
Y205487D01*
X146488Y206487D01*
X148487D01*
X149487Y205487D01*
Y204488D01*
X145488D01*
X109500Y192891D02*
Y198889D01*
X111499Y196889D01*
X113499Y198889D01*
Y192891D01*
X118497D02*
X116498D01*
X115498Y193890D01*
Y195890D01*
X116498Y196889D01*
X118497D01*
X119497Y195890D01*
Y194890D01*
X115498D01*
X121496Y192891D02*
Y196889D01*
X124495D01*
X125495Y195890D01*
Y192891D01*
X113499Y170096D02*
X109500D01*
Y164098D01*
X113499D01*
X109500Y167097D02*
X111499D01*
X115498Y168096D02*
X117497Y164098D01*
X119497Y168096D01*
X122496D02*
X124495D01*
X125495Y167097D01*
Y164098D01*
X122496D01*
X121496Y165097D01*
X122496Y166097D01*
X125495D01*
X127494Y164098D02*
Y168096D01*
X130493D01*
X131493Y167097D01*
Y164098D01*
X139490Y170096D02*
Y164098D01*
X141490Y166097D01*
X143489Y164098D01*
Y170096D01*
X146488Y168096D02*
X148487D01*
X149487Y167097D01*
Y164098D01*
X146488D01*
X145488Y165097D01*
X146488Y166097D01*
X149487D01*
X151486Y168096D02*
X155485Y164098D01*
X153486Y166097D01*
X155485Y168096D01*
X151486Y164098D01*
X157484D02*
Y168096D01*
X158484D01*
X159484Y167097D01*
Y164098D01*
Y167097D01*
X160484Y168096D01*
X161483Y167097D01*
Y164098D01*
X164482Y168096D02*
X166482D01*
X167481Y167097D01*
Y164098D01*
X164482D01*
X163482Y165097D01*
X164482Y166097D01*
X167481D01*
X169481Y164098D02*
Y168096D01*
X172480D01*
X173479Y167097D01*
Y164098D01*
X113499Y159498D02*
X112499Y160498D01*
X110500D01*
X109500Y159498D01*
Y155500D01*
X110500Y154500D01*
X112499D01*
X113499Y155500D01*
X115498Y160498D02*
Y154500D01*
Y157499D01*
X116498Y158499D01*
X118497D01*
X119497Y157499D01*
Y154500D01*
X121496Y158499D02*
Y154500D01*
Y156499D01*
X122496Y157499D01*
X123495Y158499D01*
X124495D01*
X127494Y154500D02*
X129493D01*
X128494D01*
Y158499D01*
X127494D01*
X132493Y154500D02*
X135492D01*
X136491Y155500D01*
X135492Y156499D01*
X133492D01*
X132493Y157499D01*
X133492Y158499D01*
X136491D01*
X148487Y159498D02*
X147488Y160498D01*
X145488D01*
X144489Y159498D01*
Y155500D01*
X145488Y154500D01*
X147488D01*
X148487Y155500D01*
X150487Y158499D02*
Y154500D01*
Y156499D01*
X151486Y157499D01*
X152486Y158499D01*
X153486D01*
X156485Y154500D02*
X158484D01*
X157484D01*
Y158499D01*
X156485D01*
X162483Y159498D02*
Y158499D01*
X161483D01*
X163482D01*
X162483D01*
Y155500D01*
X163482Y154500D01*
X169481D02*
X167481D01*
X166482Y155500D01*
Y157499D01*
X167481Y158499D01*
X169481D01*
X170480Y157499D01*
Y156499D01*
X166482D01*
X172480Y154500D02*
X174479D01*
X173479D01*
Y160498D01*
X172480D01*
X177478Y154500D02*
X179477D01*
X178478D01*
Y160498D01*
X177478D01*
X182476Y154500D02*
X184476D01*
X183476D01*
Y158499D01*
X182476D01*
X946500Y551095D02*
Y545097D01*
X949499D01*
X950499Y546097D01*
Y550095D01*
X949499Y551095D01*
X946500D01*
X953498Y545097D02*
X955497D01*
X956497Y546097D01*
Y548096D01*
X955497Y549096D01*
X953498D01*
X952498Y548096D01*
Y546097D01*
X953498Y545097D01*
X959496D02*
X961495D01*
X962495Y546097D01*
Y548096D01*
X961495Y549096D01*
X959496D01*
X958496Y548096D01*
Y546097D01*
X959496Y545097D01*
X968493Y551095D02*
Y545097D01*
X965494D01*
X964494Y546097D01*
Y548096D01*
X965494Y549096D01*
X968493D01*
X970492Y545097D02*
X972492D01*
X971492D01*
Y551095D01*
X970492D01*
X978490Y545097D02*
X976490D01*
X975491Y546097D01*
Y548096D01*
X976490Y549096D01*
X978490D01*
X979489Y548096D01*
Y547096D01*
X975491D01*
X987487Y551095D02*
Y545097D01*
X990486D01*
X991485Y546097D01*
Y547096D01*
X990486Y548096D01*
X987487D01*
X990486D01*
X991485Y549096D01*
Y550095D01*
X990486Y551095D01*
X987487D01*
X994485Y545097D02*
X996484D01*
X997484Y546097D01*
Y548096D01*
X996484Y549096D01*
X994485D01*
X993485Y548096D01*
Y546097D01*
X994485Y545097D01*
X999483Y549096D02*
Y546097D01*
X1000482Y545097D01*
X1003482D01*
Y544097D01*
X1002482Y543098D01*
X1001482D01*
X1003482Y545097D02*
Y549096D01*
X946500Y537499D02*
X948499Y533500D01*
X950499Y537499D01*
X952498Y533500D02*
X954497D01*
X953498D01*
Y539498D01*
X952498Y538498D01*
X957496Y533500D02*
Y534500D01*
X958496D01*
Y533500D01*
X957496D01*
X962495Y538498D02*
X963494Y539498D01*
X965494D01*
X966494Y538498D01*
Y534500D01*
X965494Y533500D01*
X963494D01*
X962495Y534500D01*
Y538498D01*
X250000Y540498D02*
Y534500D01*
X253999D01*
X259997Y539498D02*
X258997Y540498D01*
X256998D01*
X255998Y539498D01*
Y535500D01*
X256998Y534500D01*
X258997D01*
X259997Y535500D01*
X261996Y540498D02*
Y534500D01*
X264995D01*
X265995Y535500D01*
Y539498D01*
X264995Y540498D01*
X261996D01*
X277991Y539498D02*
X276991Y540498D01*
X274992D01*
X273992Y539498D01*
Y538499D01*
X274992Y537499D01*
X276991D01*
X277991Y536499D01*
Y535500D01*
X276991Y534500D01*
X274992D01*
X273992Y535500D01*
X283989Y539498D02*
X282989Y540498D01*
X280990D01*
X279990Y539498D01*
Y535500D01*
X280990Y534500D01*
X282989D01*
X283989Y535500D01*
X285988Y534500D02*
Y540498D01*
X288987D01*
X289987Y539498D01*
Y537499D01*
X288987Y536499D01*
X285988D01*
X287988D02*
X289987Y534500D01*
X295985Y540498D02*
X291986D01*
Y534500D01*
X295985D01*
X291986Y537499D02*
X293986D01*
X301983Y540498D02*
X297985D01*
Y534500D01*
X301983D01*
X297985Y537499D02*
X299984D01*
X303982Y534500D02*
Y540498D01*
X307981Y534500D01*
Y540498D01*
X553226Y351600D02*
Y357598D01*
X556225D01*
X557225Y356598D01*
Y354599D01*
X556225Y353599D01*
X553226D01*
X555225D02*
X557225Y351600D01*
X563223D02*
X559224D01*
X563223Y355599D01*
Y356598D01*
X562223Y357598D01*
X560224D01*
X559224Y356598D01*
X565222D02*
X566222Y357598D01*
X568221D01*
X569221Y356598D01*
Y352600D01*
X568221Y351600D01*
X566222D01*
X565222Y352600D01*
Y356598D01*
X537499Y277998D02*
X536499Y278998D01*
X534500D01*
X533500Y277998D01*
Y276999D01*
X534500Y275999D01*
X536499D01*
X537499Y274999D01*
Y274000D01*
X536499Y273000D01*
X534500D01*
X533500Y274000D01*
X539498Y278998D02*
Y273000D01*
X541497Y274999D01*
X543497Y273000D01*
Y278998D01*
X551494D02*
Y274000D01*
X552494Y273000D01*
X554493D01*
X555493Y274000D01*
Y278998D01*
X557492Y273000D02*
Y278998D01*
X560491D01*
X561491Y277998D01*
Y275999D01*
X560491Y274999D01*
X557492D01*
X641999Y500498D02*
X640999Y501498D01*
X639000D01*
X638000Y500498D01*
Y499499D01*
X639000Y498499D01*
X640999D01*
X641999Y497499D01*
Y496500D01*
X640999Y495500D01*
X639000D01*
X638000Y496500D01*
X643998Y501498D02*
Y495500D01*
X645997Y497499D01*
X647997Y495500D01*
Y501498D01*
X655994D02*
Y496500D01*
X656994Y495500D01*
X658993D01*
X659993Y496500D01*
Y501498D01*
X661992Y495500D02*
Y501498D01*
X664991D01*
X665991Y500498D01*
Y498499D01*
X664991Y497499D01*
X661992D01*
X673988Y501498D02*
Y495500D01*
X677987D01*
X683985Y501498D02*
X679986D01*
Y495500D01*
X683985D01*
X679986Y498499D02*
X681986D01*
X685985Y501498D02*
Y495500D01*
X688983D01*
X689983Y496500D01*
Y500498D01*
X688983Y501498D01*
X685985D01*
X521499Y257998D02*
X520499Y258998D01*
X518500D01*
X517500Y257998D01*
Y256999D01*
X518500Y255999D01*
X520499D01*
X521499Y254999D01*
Y254000D01*
X520499Y253000D01*
X518500D01*
X517500Y254000D01*
X523498Y258998D02*
Y253000D01*
X525497Y254999D01*
X527497Y253000D01*
Y258998D01*
X535494Y253000D02*
Y258998D01*
X538493D01*
X539493Y257998D01*
Y255999D01*
X538493Y254999D01*
X535494D01*
X537494D02*
X539493Y253000D01*
X541492Y258998D02*
X543492D01*
X542492D01*
Y253000D01*
X541492D01*
X543492D01*
X550489Y257998D02*
X549490Y258998D01*
X547490D01*
X546491Y257998D01*
Y254000D01*
X547490Y253000D01*
X549490D01*
X550489Y254000D01*
Y255999D01*
X548490D01*
X552489Y258998D02*
Y253000D01*
Y255999D01*
X556487D01*
Y258998D01*
Y253000D01*
X558487Y258998D02*
X562486D01*
X560486D01*
Y253000D01*
X625499Y449998D02*
X624499Y450998D01*
X622500D01*
X621500Y449998D01*
Y448999D01*
X622500Y447999D01*
X624499D01*
X625499Y446999D01*
Y446000D01*
X624499Y445000D01*
X622500D01*
X621500Y446000D01*
X627498Y450998D02*
Y445000D01*
X629497Y446999D01*
X631497Y445000D01*
Y450998D01*
X639494Y445000D02*
Y450998D01*
X642493D01*
X643493Y449998D01*
Y447999D01*
X642493Y446999D01*
X639494D01*
X641494D02*
X643493Y445000D01*
X645492Y450998D02*
X647492D01*
X646492D01*
Y445000D01*
X645492D01*
X647492D01*
X654489Y449998D02*
X653490Y450998D01*
X651490D01*
X650491Y449998D01*
Y446000D01*
X651490Y445000D01*
X653490D01*
X654489Y446000D01*
Y447999D01*
X652490D01*
X656489Y450998D02*
Y445000D01*
Y447999D01*
X660487D01*
Y450998D01*
Y445000D01*
X662487Y450998D02*
X666486D01*
X664486D01*
Y445000D01*
X674483Y450998D02*
Y445000D01*
X678482D01*
X684480Y450998D02*
X680481D01*
Y445000D01*
X684480D01*
X680481Y447999D02*
X682480D01*
X686479Y450998D02*
Y445000D01*
X689478D01*
X690478Y446000D01*
Y449998D01*
X689478Y450998D01*
X686479D01*
X524999Y296998D02*
X523999Y297998D01*
X522000D01*
X521000Y296998D01*
Y295999D01*
X522000Y294999D01*
X523999D01*
X524999Y293999D01*
Y293000D01*
X523999Y292000D01*
X522000D01*
X521000Y293000D01*
X526998Y297998D02*
Y292000D01*
X528997Y293999D01*
X530997Y292000D01*
Y297998D01*
X538994D02*
Y292000D01*
X542993D01*
X548991Y297998D02*
X544992D01*
Y292000D01*
X548991D01*
X544992Y294999D02*
X546992D01*
X554989Y297998D02*
X550990D01*
Y294999D01*
X552990D01*
X550990D01*
Y292000D01*
X556988Y297998D02*
X560987D01*
X558988D01*
Y292000D01*
X629999Y466998D02*
X628999Y467998D01*
X627000D01*
X626000Y466998D01*
Y465999D01*
X627000Y464999D01*
X628999D01*
X629999Y463999D01*
Y463000D01*
X628999Y462000D01*
X627000D01*
X626000Y463000D01*
X631998Y467998D02*
Y462000D01*
X633997Y463999D01*
X635997Y462000D01*
Y467998D01*
X643994D02*
Y462000D01*
X647993D01*
X653991Y467998D02*
X649992D01*
Y462000D01*
X653991D01*
X649992Y464999D02*
X651992D01*
X659989Y467998D02*
X655990D01*
Y464999D01*
X657990D01*
X655990D01*
Y462000D01*
X661988Y467998D02*
X665987D01*
X663988D01*
Y462000D01*
X673984Y467998D02*
Y462000D01*
X677983D01*
X683981Y467998D02*
X679983D01*
Y462000D01*
X683981D01*
X679983Y464999D02*
X681982D01*
X685981Y467998D02*
Y462000D01*
X688980D01*
X689979Y463000D01*
Y466998D01*
X688980Y467998D01*
X685981D01*
X524499Y315498D02*
X523499Y316498D01*
X521500D01*
X520500Y315498D01*
Y314499D01*
X521500Y313499D01*
X523499D01*
X524499Y312499D01*
Y311500D01*
X523499Y310500D01*
X521500D01*
X520500Y311500D01*
X526498Y316498D02*
Y310500D01*
X528497Y312499D01*
X530497Y310500D01*
Y316498D01*
X538494D02*
Y310500D01*
X541493D01*
X542493Y311500D01*
Y315498D01*
X541493Y316498D01*
X538494D01*
X547491D02*
X545492D01*
X544492Y315498D01*
Y311500D01*
X545492Y310500D01*
X547491D01*
X548491Y311500D01*
Y315498D01*
X547491Y316498D01*
X550490D02*
Y310500D01*
X552490Y312499D01*
X554489Y310500D01*
Y316498D01*
X556488Y310500D02*
Y316498D01*
X560487Y310500D01*
Y316498D01*
X629499Y482998D02*
X628499Y483998D01*
X626500D01*
X625500Y482998D01*
Y481999D01*
X626500Y480999D01*
X628499D01*
X629499Y479999D01*
Y479000D01*
X628499Y478000D01*
X626500D01*
X625500Y479000D01*
X631498Y483998D02*
Y478000D01*
X633497Y479999D01*
X635497Y478000D01*
Y483998D01*
X643494D02*
Y478000D01*
X646493D01*
X647493Y479000D01*
Y482998D01*
X646493Y483998D01*
X643494D01*
X652491D02*
X650492D01*
X649492Y482998D01*
Y479000D01*
X650492Y478000D01*
X652491D01*
X653491Y479000D01*
Y482998D01*
X652491Y483998D01*
X655490D02*
Y478000D01*
X657490Y479999D01*
X659489Y478000D01*
Y483998D01*
X661488Y478000D02*
Y483998D01*
X665487Y478000D01*
Y483998D01*
X673485D02*
Y478000D01*
X677483D01*
X683481Y483998D02*
X679483D01*
Y478000D01*
X683481D01*
X679483Y480999D02*
X681482D01*
X685481Y483998D02*
Y478000D01*
X688480D01*
X689479Y479000D01*
Y482998D01*
X688480Y483998D01*
X685481D01*
X709128Y254999D02*
X708128Y253999D01*
Y252000D01*
X709128Y251000D01*
X710127D01*
X711127Y252000D01*
Y253999D01*
X712127Y254999D01*
X713126D01*
X714126Y253999D01*
Y252000D01*
X713126Y251000D01*
X708128Y256998D02*
X714126D01*
X712127Y258997D01*
X714126Y260997D01*
X708128D01*
Y268994D02*
X714126D01*
Y271993D01*
X713126Y272993D01*
X712127D01*
X711127Y271993D01*
Y268994D01*
Y271993D01*
X710127Y272993D01*
X709128D01*
X708128Y271993D01*
Y268994D01*
X647499Y416998D02*
X646499Y417998D01*
X644500D01*
X643500Y416998D01*
Y415999D01*
X644500Y414999D01*
X646499D01*
X647499Y413999D01*
Y413000D01*
X646499Y412000D01*
X644500D01*
X643500Y413000D01*
X649498Y417998D02*
Y412000D01*
X651497Y413999D01*
X653497Y412000D01*
Y417998D01*
X661494D02*
Y412000D01*
X664493D01*
X665493Y413000D01*
Y413999D01*
X664493Y414999D01*
X661494D01*
X664493D01*
X665493Y415999D01*
Y416998D01*
X664493Y417998D01*
X661494D01*
X673490D02*
Y412000D01*
X677489D01*
X683487Y417998D02*
X679488D01*
Y412000D01*
X683487D01*
X679488Y414999D02*
X681488D01*
X685486Y417998D02*
Y412000D01*
X688485D01*
X689485Y413000D01*
Y416998D01*
X688485Y417998D01*
X685486D01*
X723502Y254499D02*
X722502Y253499D01*
Y251500D01*
X723502Y250500D01*
X724501D01*
X725501Y251500D01*
Y253499D01*
X726501Y254499D01*
X727500D01*
X728500Y253499D01*
Y251500D01*
X727500Y250500D01*
X722502Y256498D02*
X728500D01*
X726501Y258497D01*
X728500Y260497D01*
X722502D01*
X728500Y268494D02*
X724501D01*
X722502Y270494D01*
X724501Y272493D01*
X728500D01*
X725501D01*
Y268494D01*
X647499Y432998D02*
X646499Y433998D01*
X644500D01*
X643500Y432998D01*
Y431999D01*
X644500Y430999D01*
X646499D01*
X647499Y429999D01*
Y429000D01*
X646499Y428000D01*
X644500D01*
X643500Y429000D01*
X649498Y433998D02*
Y428000D01*
X651497Y429999D01*
X653497Y428000D01*
Y433998D01*
X661494Y428000D02*
Y431999D01*
X663493Y433998D01*
X665493Y431999D01*
Y428000D01*
Y430999D01*
X661494D01*
X673490Y433998D02*
Y428000D01*
X677489D01*
X683487Y433998D02*
X679488D01*
Y428000D01*
X683487D01*
X679488Y430999D02*
X681488D01*
X685486Y433998D02*
Y428000D01*
X688485D01*
X689485Y429000D01*
Y432998D01*
X688485Y433998D01*
X685486D01*
X746500Y496500D02*
Y502498D01*
X749499D01*
X750499Y501498D01*
Y499499D01*
X749499Y498499D01*
X746500D01*
X748499D02*
X750499Y496500D01*
X752498D02*
X754497D01*
X753498D01*
Y502498D01*
X752498Y501498D01*
X757496Y497500D02*
X758496Y496500D01*
X760496D01*
X761495Y497500D01*
Y501498D01*
X760496Y502498D01*
X758496D01*
X757496Y501498D01*
Y500499D01*
X758496Y499499D01*
X761495D01*
X746500Y479000D02*
Y484998D01*
X749499D01*
X750499Y483998D01*
Y481999D01*
X749499Y480999D01*
X746500D01*
X748499D02*
X750499Y479000D01*
X752498D02*
X754497D01*
X753498D01*
Y484998D01*
X752498Y483998D01*
X757496D02*
X758496Y484998D01*
X760496D01*
X761495Y483998D01*
Y482999D01*
X760496Y481999D01*
X761495Y480999D01*
Y480000D01*
X760496Y479000D01*
X758496D01*
X757496Y480000D01*
Y480999D01*
X758496Y481999D01*
X757496Y482999D01*
Y483998D01*
X758496Y481999D02*
X760496D01*
X745626Y412405D02*
Y418403D01*
X748625D01*
X749625Y417404D01*
Y415405D01*
X748625Y414405D01*
X745626D01*
X747625D02*
X749625Y412405D01*
X751624D02*
X753623D01*
X752624D01*
Y418403D01*
X751624Y417404D01*
X756622Y418403D02*
X760621D01*
Y417404D01*
X756622Y413405D01*
Y412405D01*
X746500Y464500D02*
Y470498D01*
X749499D01*
X750499Y469498D01*
Y467499D01*
X749499Y466499D01*
X746500D01*
X748499D02*
X750499Y464500D01*
X752498D02*
X754497D01*
X753498D01*
Y470498D01*
X752498Y469498D01*
X761495Y470498D02*
X759496Y469498D01*
X757496Y467499D01*
Y465500D01*
X758496Y464500D01*
X760496D01*
X761495Y465500D01*
Y466499D01*
X760496Y467499D01*
X757496D01*
X746500Y446000D02*
Y451998D01*
X749499D01*
X750499Y450998D01*
Y448999D01*
X749499Y447999D01*
X746500D01*
X748499D02*
X750499Y446000D01*
X752498D02*
X754497D01*
X753498D01*
Y451998D01*
X752498Y450998D01*
X761495Y451998D02*
X757496D01*
Y448999D01*
X759496Y449999D01*
X760496D01*
X761495Y448999D01*
Y447000D01*
X760496Y446000D01*
X758496D01*
X757496Y447000D01*
X746500Y429500D02*
Y435498D01*
X749499D01*
X750499Y434498D01*
Y432499D01*
X749499Y431499D01*
X746500D01*
X748499D02*
X750499Y429500D01*
X752498D02*
X754497D01*
X753498D01*
Y435498D01*
X752498Y434498D01*
X878000Y124518D02*
Y118520D01*
X881999D01*
X887997D02*
X883998D01*
X887997Y122518D01*
Y123518D01*
X886997Y124518D01*
X884998D01*
X883998Y123518D01*
X841778Y287260D02*
X847776D01*
Y291259D01*
Y293258D02*
Y295257D01*
Y294258D01*
X841778D01*
X842777Y293258D01*
X232800Y466598D02*
Y461600D01*
X233800Y460600D01*
X235799D01*
X236799Y461600D01*
Y466598D01*
X238798Y465598D02*
X239798Y466598D01*
X241797D01*
X242797Y465598D01*
Y464599D01*
X241797Y463599D01*
X240797D01*
X241797D01*
X242797Y462599D01*
Y461600D01*
X241797Y460600D01*
X239798D01*
X238798Y461600D01*
X233800Y531898D02*
Y526900D01*
X234800Y525900D01*
X236799D01*
X237799Y526900D01*
Y531898D01*
X243797Y525900D02*
X239798D01*
X243797Y529899D01*
Y530898D01*
X242797Y531898D01*
X240798D01*
X239798Y530898D01*
X186500Y533500D02*
Y539498D01*
X189499D01*
X190499Y538498D01*
Y536499D01*
X189499Y535499D01*
X186500D01*
X195497Y539498D02*
X193498D01*
X192498Y538498D01*
Y534500D01*
X193498Y533500D01*
X195497D01*
X196497Y534500D01*
Y538498D01*
X195497Y539498D01*
X198496D02*
X202495D01*
X200496D01*
Y533500D01*
X597000Y511000D02*
Y516998D01*
X598999Y514999D01*
X600999Y516998D01*
Y511000D01*
X606997Y515998D02*
X605997Y516998D01*
X603998D01*
X602998Y515998D01*
Y512000D01*
X603998Y511000D01*
X605997D01*
X606997Y512000D01*
X608996Y516998D02*
Y512000D01*
X609996Y511000D01*
X611995D01*
X612995Y512000D01*
Y516998D01*
X611780Y380993D02*
Y375995D01*
X612780Y374995D01*
X614779D01*
X615779Y375995D01*
Y380993D01*
X617778Y374995D02*
X619778D01*
X618778D01*
Y380993D01*
X617778Y379994D01*
X698200Y382738D02*
Y388736D01*
X701199D01*
X702199Y387736D01*
Y385737D01*
X701199Y384737D01*
X698200D01*
X700199D02*
X702199Y382738D01*
X708197D02*
X704198D01*
X708197Y386736D01*
Y387736D01*
X707197Y388736D01*
X705198D01*
X704198Y387736D01*
X787002Y142999D02*
Y139000D01*
X790001D01*
X789001Y140999D01*
Y141999D01*
X790001Y142999D01*
X792000D01*
X793000Y141999D01*
Y140000D01*
X792000Y139000D01*
X787002Y144998D02*
X791001D01*
X793000Y146997D01*
X791001Y148997D01*
X787002D01*
Y156994D02*
Y160993D01*
Y158993D01*
X793000D01*
Y162992D02*
X787002D01*
Y165991D01*
X788002Y166991D01*
X790001D01*
X791001Y165991D01*
Y162992D01*
X814002Y302500D02*
X813002Y303500D01*
Y305499D01*
X814002Y306499D01*
X815001D01*
X816001Y305499D01*
Y304499D01*
Y305499D01*
X817001Y306499D01*
X818000D01*
X819000Y305499D01*
Y303500D01*
X818000Y302500D01*
X813002Y308498D02*
X817001D01*
X819000Y310497D01*
X817001Y312497D01*
X813002D01*
X814002Y314496D02*
X813002Y315496D01*
Y317495D01*
X814002Y318495D01*
X815001D01*
X816001Y317495D01*
Y316495D01*
Y317495D01*
X817001Y318495D01*
X818000D01*
X819000Y317495D01*
Y315496D01*
X818000Y314496D01*
X813002Y326492D02*
Y330491D01*
Y328492D01*
X819000D01*
Y332490D02*
X813002D01*
Y335489D01*
X814002Y336489D01*
X816001D01*
X817001Y335489D01*
Y332490D01*
X660500Y245498D02*
Y239500D01*
X664499D01*
X666498D02*
X668497D01*
X667498D01*
Y245498D01*
X666498Y244498D01*
X624108Y255637D02*
X623108Y254637D01*
Y252638D01*
X624108Y251638D01*
X628107D01*
X629106Y252638D01*
Y254637D01*
X628107Y255637D01*
X629106Y257636D02*
Y259635D01*
Y258635D01*
X623108D01*
X624108Y257636D01*
Y262634D02*
X623108Y263634D01*
Y265633D01*
X624108Y266633D01*
X628107D01*
X629106Y265633D01*
Y263634D01*
X628107Y262634D01*
X624108D01*
X636608Y259636D02*
X635608Y258637D01*
Y256638D01*
X636608Y255638D01*
X640607D01*
X641606Y256638D01*
Y258637D01*
X640607Y259636D01*
Y261636D02*
X641606Y262635D01*
Y264635D01*
X640607Y265635D01*
X636608D01*
X635608Y264635D01*
Y262635D01*
X636608Y261636D01*
X637608D01*
X638607Y262635D01*
Y265635D01*
X641998Y394237D02*
X642998Y395237D01*
Y397236D01*
X641998Y398236D01*
X638000D01*
X637000Y397236D01*
Y395237D01*
X638000Y394237D01*
X641998Y392238D02*
X642998Y391238D01*
Y389239D01*
X641998Y388239D01*
X640999D01*
X639999Y389239D01*
X638999Y388239D01*
X638000D01*
X637000Y389239D01*
Y391238D01*
X638000Y392238D01*
X638999D01*
X639999Y391238D01*
X640999Y392238D01*
X641998D01*
X639999Y391238D02*
Y389239D01*
X856998Y150241D02*
X857998Y151241D01*
Y153241D01*
X856998Y154240D01*
X853000D01*
X852000Y153241D01*
Y151241D01*
X853000Y150241D01*
X852000Y145243D02*
X857998D01*
X854999Y148242D01*
Y144243D01*
X591062Y356766D02*
X590062Y357766D01*
X588063D01*
X587063Y356766D01*
Y352767D01*
X588063Y351768D01*
X590062D01*
X591062Y352767D01*
X593061Y357766D02*
X597060D01*
Y356766D01*
X593061Y352767D01*
Y351768D01*
X658116Y260137D02*
X657116Y259137D01*
Y257137D01*
X658116Y256138D01*
X662114D01*
X663114Y257137D01*
Y259137D01*
X662114Y260137D01*
X657116Y266135D02*
X658116Y264135D01*
X660115Y262136D01*
X662114D01*
X663114Y263136D01*
Y265135D01*
X662114Y266135D01*
X661115D01*
X660115Y265135D01*
Y262136D01*
X721936Y340105D02*
X720936Y341104D01*
X718937D01*
X717937Y340105D01*
Y336106D01*
X718937Y335106D01*
X720936D01*
X721936Y336106D01*
X727934Y341104D02*
X723935D01*
Y338105D01*
X725934Y339105D01*
X726934D01*
X727934Y338105D01*
Y336106D01*
X726934Y335106D01*
X724935D01*
X723935Y336106D01*
X721436Y352105D02*
X720436Y353104D01*
X718437D01*
X717437Y352105D01*
Y348106D01*
X718437Y347106D01*
X720436D01*
X721436Y348106D01*
X726434Y347106D02*
Y353104D01*
X723435Y350105D01*
X727434D01*
X590100Y230898D02*
X594099D01*
X592099D01*
Y224900D01*
X597098D02*
X599097D01*
X600097Y225900D01*
Y227899D01*
X599097Y228899D01*
X597098D01*
X596098Y227899D01*
Y225900D01*
X597098Y224900D01*
X602096Y228899D02*
Y225900D01*
X603096Y224900D01*
X606095D01*
Y228899D01*
X612093D02*
X609094D01*
X608094Y227899D01*
Y225900D01*
X609094Y224900D01*
X612093D01*
X614092Y230898D02*
Y224900D01*
Y227899D01*
X615092Y228899D01*
X617091D01*
X618091Y227899D01*
Y224900D01*
X630087Y229898D02*
X629087Y230898D01*
X627088D01*
X626088Y229898D01*
Y225900D01*
X627088Y224900D01*
X629087D01*
X630087Y225900D01*
X633086Y224900D02*
X635085D01*
X636085Y225900D01*
Y227899D01*
X635085Y228899D01*
X633086D01*
X632086Y227899D01*
Y225900D01*
X633086Y224900D01*
X638085D02*
Y228899D01*
X641083D01*
X642083Y227899D01*
Y224900D01*
X645082Y229898D02*
Y228899D01*
X644082D01*
X646082D01*
X645082D01*
Y225900D01*
X646082Y224900D01*
X649081Y228899D02*
Y224900D01*
Y226899D01*
X650081Y227899D01*
X651080Y228899D01*
X652080D01*
X656079Y224900D02*
X658078D01*
X659078Y225900D01*
Y227899D01*
X658078Y228899D01*
X656079D01*
X655079Y227899D01*
Y225900D01*
X656079Y224900D01*
X661077D02*
X663076D01*
X662077D01*
Y230898D01*
X661077D01*
X666075Y224900D02*
X668075D01*
X667075D01*
Y230898D01*
X666075D01*
X674073Y224900D02*
X672074D01*
X671074Y225900D01*
Y227899D01*
X672074Y228899D01*
X674073D01*
X675072Y227899D01*
Y226899D01*
X671074D01*
X677072Y228899D02*
Y224900D01*
Y226899D01*
X678071Y227899D01*
X679071Y228899D01*
X680071D01*
X610100Y154900D02*
Y160898D01*
X613099D01*
X614099Y159898D01*
Y157899D01*
X613099Y156899D01*
X610100D01*
X619097Y154900D02*
Y160898D01*
X616098Y157899D01*
X620097D01*
X660100Y154900D02*
Y160898D01*
X663099D01*
X664099Y159898D01*
Y157899D01*
X663099Y156899D01*
X660100D01*
X666098Y159898D02*
X667098Y160898D01*
X669097D01*
X670097Y159898D01*
Y158899D01*
X669097Y157899D01*
X668097D01*
X669097D01*
X670097Y156899D01*
Y155900D01*
X669097Y154900D01*
X667098D01*
X666098Y155900D01*
X315600Y150398D02*
Y144400D01*
X319599D01*
X325597Y149398D02*
X324597Y150398D01*
X322598D01*
X321598Y149398D01*
Y145400D01*
X322598Y144400D01*
X324597D01*
X325597Y145400D01*
X327596Y150398D02*
Y144400D01*
X330595D01*
X331595Y145400D01*
Y149398D01*
X330595Y150398D01*
X327596D01*
X333594Y143400D02*
X337593D01*
X339592Y149398D02*
X340592Y150398D01*
X342591D01*
X343591Y149398D01*
Y145400D01*
X342591Y144400D01*
X340592D01*
X339592Y145400D01*
Y149398D01*
X315600Y240398D02*
Y234400D01*
X319599D01*
X325597Y239398D02*
X324597Y240398D01*
X322598D01*
X321598Y239398D01*
Y235400D01*
X322598Y234400D01*
X324597D01*
X325597Y235400D01*
X327596Y240398D02*
Y234400D01*
X330595D01*
X331595Y235400D01*
Y239398D01*
X330595Y240398D01*
X327596D01*
X333594Y233400D02*
X337593D01*
X339592Y234400D02*
X341592D01*
X340592D01*
Y240398D01*
X339592Y239398D01*
X396048Y448966D02*
X395049Y449966D01*
X393049D01*
X392050Y448966D01*
Y447966D01*
X393049Y446967D01*
X395049D01*
X396048Y445967D01*
Y444967D01*
X395049Y443968D01*
X393049D01*
X392050Y444967D01*
X398048Y443968D02*
Y449966D01*
X401047D01*
X402046Y448966D01*
Y446967D01*
X401047Y445967D01*
X398048D01*
X400047D02*
X402046Y443968D01*
X404046D02*
Y447966D01*
X406045Y449966D01*
X408044Y447966D01*
Y443968D01*
Y446967D01*
X404046D01*
X410044Y443968D02*
Y449966D01*
X412043Y447966D01*
X414043Y449966D01*
Y443968D01*
D14*
X397528Y351720D02*
Y437961D01*
D15*
X844949Y181515D02*
Y185451D01*
X842981Y183483D02*
X846917D01*
D16*
X641982Y335795D02*
X646980D01*
Y338295D01*
X646147Y339128D01*
X642815D01*
X641982Y338295D01*
Y335795D01*
Y344126D02*
Y340794D01*
X646980D01*
Y344126D01*
X644481Y340794D02*
Y342460D01*
X641982Y345792D02*
X645314D01*
X646980Y347458D01*
X645314Y349124D01*
X641982D01*
X646980Y335795D02*
X641982D01*
Y338295D01*
X642815Y339128D01*
X644481D01*
X645314Y338295D01*
Y335795D01*
X646980Y340794D02*
X641982D01*
X646980Y344126D01*
X641982D01*
Y335795D02*
X645314D01*
X646980Y337461D01*
X645314Y339128D01*
X641982D01*
X646980Y340794D02*
X643648D01*
X641982Y342460D01*
X643648Y344126D01*
X646980D01*
X644481D01*
Y340794D01*
X641982Y345792D02*
X646980D01*
Y349124D01*
X641982Y335795D02*
Y339128D01*
Y337461D01*
X646980D01*
X641982Y343293D02*
Y341627D01*
X642815Y340794D01*
X646147D01*
X646980Y341627D01*
Y343293D01*
X646147Y344126D01*
X642815D01*
X641982Y343293D01*
Y345792D02*
X646980D01*
Y349124D01*
M02*
