G04*
G04 #@! TF.GenerationSoftware,Altium Limited,Altium Designer,18.1.6 (161)*
G04*
G04 Layer_Color=16711935*
%FSLAX25Y25*%
%MOIN*%
G70*
G01*
G75*
%ADD68C,0.03937*%
%ADD69C,0.00118*%
D68*
X966500Y108500D02*
X974374D01*
X950752Y116374D02*
Y124248D01*
X965516Y132909D02*
X975358D01*
D69*
X990382Y80098D02*
X991562D01*
X991169Y80492D01*
X991562Y80886D01*
X990382D01*
Y81870D02*
Y81476D01*
X990578Y81279D01*
X990972D01*
X991169Y81476D01*
Y81870D01*
X990972Y82066D01*
X990775D01*
Y81279D01*
X991169Y83247D02*
Y82657D01*
X990972Y82460D01*
X990578D01*
X990382Y82657D01*
Y83247D01*
X991562Y83641D02*
X990382D01*
X990972D01*
X991169Y83837D01*
Y84231D01*
X990972Y84428D01*
X990382D01*
Y86789D02*
Y86002D01*
X991169Y86789D01*
X991366D01*
X991562Y86592D01*
Y86199D01*
X991366Y86002D01*
X990972Y88363D02*
Y89151D01*
X991366Y91512D02*
X991562Y91315D01*
Y90922D01*
X991366Y90725D01*
X990578D01*
X990382Y90922D01*
Y91315D01*
X990578Y91512D01*
X990382Y91906D02*
Y92299D01*
Y92102D01*
X991562D01*
Y91906D01*
X990382Y93480D02*
Y93086D01*
X990578Y92889D01*
X990972D01*
X991169Y93086D01*
Y93480D01*
X990972Y93677D01*
X990775D01*
Y92889D01*
X991169Y94267D02*
Y94661D01*
X990972Y94857D01*
X990382D01*
Y94267D01*
X990578Y94070D01*
X990775Y94267D01*
Y94857D01*
X991169Y95251D02*
X990382D01*
X990775D01*
X990972Y95448D01*
X991169Y95644D01*
Y95841D01*
Y96628D02*
Y97022D01*
X990972Y97219D01*
X990382D01*
Y96628D01*
X990578Y96432D01*
X990775Y96628D01*
Y97219D01*
X990382Y97612D02*
X991169D01*
Y98203D01*
X990972Y98400D01*
X990382D01*
X991169Y99580D02*
Y98990D01*
X990972Y98793D01*
X990578D01*
X990382Y98990D01*
Y99580D01*
Y100564D02*
Y100171D01*
X990578Y99974D01*
X990972D01*
X991169Y100171D01*
Y100564D01*
X990972Y100761D01*
X990775D01*
Y99974D01*
X990185Y101351D02*
X990382Y101548D01*
X990578D01*
Y101351D01*
X990382D01*
Y101548D01*
X990185Y101351D01*
X989988Y101155D01*
X990382Y103516D02*
X991169D01*
Y103713D01*
X990972Y103910D01*
X990382D01*
X990972D01*
X991169Y104106D01*
X990972Y104303D01*
X990382D01*
Y104894D02*
Y105287D01*
X990578Y105484D01*
X990972D01*
X991169Y105287D01*
Y104894D01*
X990972Y104697D01*
X990578D01*
X990382Y104894D01*
X991169Y105877D02*
X990382Y106271D01*
X991169Y106665D01*
X990382Y107649D02*
Y107255D01*
X990578Y107058D01*
X990972D01*
X991169Y107255D01*
Y107649D01*
X990972Y107845D01*
X990775D01*
Y107058D01*
X991366Y109616D02*
X991169D01*
Y109420D01*
Y109813D01*
Y109616D01*
X990578D01*
X990382Y109813D01*
Y110600D02*
Y110994D01*
X990578Y111191D01*
X990972D01*
X991169Y110994D01*
Y110600D01*
X990972Y110404D01*
X990578D01*
X990382Y110600D01*
Y112765D02*
Y113159D01*
Y112962D01*
X991169D01*
Y112765D01*
X990382Y113749D02*
X991169D01*
Y114339D01*
X990972Y114536D01*
X990382D01*
X991366Y115126D02*
X991169D01*
Y114930D01*
Y115323D01*
Y115126D01*
X990578D01*
X990382Y115323D01*
Y116504D02*
Y116110D01*
X990578Y115914D01*
X990972D01*
X991169Y116110D01*
Y116504D01*
X990972Y116701D01*
X990775D01*
Y115914D01*
X991169Y117094D02*
X990382D01*
X990775D01*
X990972Y117291D01*
X991169Y117488D01*
Y117685D01*
X990382Y118275D02*
X991169D01*
Y118865D01*
X990972Y119062D01*
X990382D01*
X991169Y119652D02*
Y120046D01*
X990972Y120243D01*
X990382D01*
Y119652D01*
X990578Y119456D01*
X990775Y119652D01*
Y120243D01*
X990382Y120636D02*
Y121030D01*
Y120833D01*
X991562D01*
Y120636D01*
X989988Y122801D02*
X991169D01*
Y123391D01*
X990972Y123588D01*
X990578D01*
X990382Y123391D01*
Y122801D01*
Y123982D02*
Y124375D01*
Y124179D01*
X991562D01*
Y123982D01*
X991169Y125162D02*
Y125556D01*
X990972Y125753D01*
X990382D01*
Y125162D01*
X990578Y124966D01*
X990775Y125162D01*
Y125753D01*
X990382Y126146D02*
X991169D01*
Y126737D01*
X990972Y126934D01*
X990382D01*
Y127918D02*
Y127524D01*
X990578Y127327D01*
X990972D01*
X991169Y127524D01*
Y127918D01*
X990972Y128114D01*
X990775D01*
Y127327D01*
X990382Y129689D02*
Y130082D01*
Y129885D01*
X991169D01*
Y129689D01*
X990382Y130869D02*
X991366D01*
X990972D01*
Y130673D01*
Y131066D01*
Y130869D01*
X991366D01*
X991562Y131066D01*
X989988Y132837D02*
X991169D01*
Y133428D01*
X990972Y133624D01*
X990578D01*
X990382Y133428D01*
Y132837D01*
X991169Y134018D02*
X990382D01*
X990775D01*
X990972Y134215D01*
X991169Y134412D01*
Y134608D01*
X990382Y135789D02*
Y135395D01*
X990578Y135199D01*
X990972D01*
X991169Y135395D01*
Y135789D01*
X990972Y135986D01*
X990775D01*
Y135199D01*
X990382Y136379D02*
Y136970D01*
X990578Y137167D01*
X990775Y136970D01*
Y136576D01*
X990972Y136379D01*
X991169Y136576D01*
Y137167D01*
X990382Y138150D02*
Y137757D01*
X990578Y137560D01*
X990972D01*
X991169Y137757D01*
Y138150D01*
X990972Y138347D01*
X990775D01*
Y137560D01*
X990382Y138741D02*
X991169D01*
Y139331D01*
X990972Y139528D01*
X990382D01*
X991366Y140118D02*
X991169D01*
Y139921D01*
Y140315D01*
Y140118D01*
X990578D01*
X990382Y140315D01*
X992350Y80098D02*
X993531D01*
X993137Y80492D01*
X993531Y80886D01*
X992350D01*
Y81870D02*
Y81476D01*
X992547Y81279D01*
X992940D01*
X993137Y81476D01*
Y81870D01*
X992940Y82066D01*
X992744D01*
Y81279D01*
X993137Y83247D02*
Y82657D01*
X992940Y82460D01*
X992547D01*
X992350Y82657D01*
Y83247D01*
X993531Y83641D02*
X992350D01*
X992940D01*
X993137Y83837D01*
Y84231D01*
X992940Y84428D01*
X992350D01*
Y86002D02*
Y86396D01*
Y86199D01*
X993531D01*
X993334Y86002D01*
X992940Y88167D02*
Y88954D01*
X993334Y91315D02*
X993531Y91118D01*
Y90725D01*
X993334Y90528D01*
X993137D01*
X992940Y90725D01*
Y91118D01*
X992744Y91315D01*
X992547D01*
X992350Y91118D01*
Y90725D01*
X992547Y90528D01*
X992350Y91709D02*
Y92102D01*
Y91906D01*
X993531D01*
Y91709D01*
X992350Y92889D02*
Y93283D01*
X992547Y93480D01*
X992940D01*
X993137Y93283D01*
Y92889D01*
X992940Y92693D01*
X992547D01*
X992350Y92889D01*
X993334Y94070D02*
X993137D01*
Y93874D01*
Y94267D01*
Y94070D01*
X992547D01*
X992350Y94267D01*
X993137Y96825D02*
Y96235D01*
X992940Y96038D01*
X992547D01*
X992350Y96235D01*
Y96825D01*
X993137Y97219D02*
X992547D01*
X992350Y97416D01*
Y98006D01*
X993137D01*
X993334Y98596D02*
X993137D01*
Y98400D01*
Y98793D01*
Y98596D01*
X992547D01*
X992350Y98793D01*
X992940Y99383D02*
Y100171D01*
X992350Y100761D02*
Y101155D01*
X992547Y101351D01*
X992940D01*
X993137Y101155D01*
Y100761D01*
X992940Y100564D01*
X992547D01*
X992350Y100761D01*
X993137Y101745D02*
X992547D01*
X992350Y101942D01*
Y102532D01*
X993137D01*
X993334Y103122D02*
X993137D01*
Y102926D01*
Y103319D01*
Y103122D01*
X992547D01*
X992350Y103319D01*
X996287Y80098D02*
X997074D01*
X997468Y80492D01*
X997074Y80886D01*
X996287D01*
X996877D01*
Y80098D01*
X996287Y81279D02*
Y81870D01*
X996484Y82066D01*
X996681Y81870D01*
Y81476D01*
X996877Y81279D01*
X997074Y81476D01*
Y82066D01*
X996287Y82460D02*
Y83050D01*
X996484Y83247D01*
X996681Y83050D01*
Y82657D01*
X996877Y82460D01*
X997074Y82657D01*
Y83247D01*
X996287Y83641D02*
Y84034D01*
Y83837D01*
X997074D01*
Y83641D01*
X995893Y85018D02*
Y85215D01*
X996090Y85412D01*
X997074D01*
Y84821D01*
X996877Y84624D01*
X996484D01*
X996287Y84821D01*
Y85412D01*
Y85805D02*
X997074D01*
Y86396D01*
X996877Y86592D01*
X996287D01*
Y88167D02*
X997468D01*
X996681D02*
X997074Y88757D01*
X996681Y88167D02*
X996287Y88757D01*
Y89938D02*
Y89544D01*
X996484Y89347D01*
X996877D01*
X997074Y89544D01*
Y89938D01*
X996877Y90135D01*
X996681D01*
Y89347D01*
X996287Y91118D02*
Y90725D01*
X996484Y90528D01*
X996877D01*
X997074Y90725D01*
Y91118D01*
X996877Y91315D01*
X996681D01*
Y90528D01*
X995893Y91709D02*
X997074D01*
Y92299D01*
X996877Y92496D01*
X996484D01*
X996287Y92299D01*
Y91709D01*
X996877Y92889D02*
Y93677D01*
X996287Y94267D02*
Y94661D01*
X996484Y94857D01*
X996877D01*
X997074Y94661D01*
Y94267D01*
X996877Y94070D01*
X996484D01*
X996287Y94267D01*
X997074Y95251D02*
X996484D01*
X996287Y95448D01*
Y96038D01*
X997074D01*
X997271Y96628D02*
X997074D01*
Y96432D01*
Y96825D01*
Y96628D01*
X996484D01*
X996287Y96825D01*
X997074Y98793D02*
Y99187D01*
X996877Y99383D01*
X996287D01*
Y98793D01*
X996484Y98596D01*
X996681Y98793D01*
Y99383D01*
X997074Y99777D02*
X996287D01*
X996681D01*
X996877Y99974D01*
X997074Y100171D01*
Y100367D01*
X996287Y101548D02*
Y101155D01*
X996484Y100958D01*
X996877D01*
X997074Y101155D01*
Y101548D01*
X996877Y101745D01*
X996681D01*
Y100958D01*
X997074Y102335D02*
Y102729D01*
X996877Y102926D01*
X996287D01*
Y102335D01*
X996484Y102138D01*
X996681Y102335D01*
Y102926D01*
X997271Y104697D02*
X997074D01*
Y104500D01*
Y104894D01*
Y104697D01*
X996484D01*
X996287Y104894D01*
Y105681D02*
Y106074D01*
X996484Y106271D01*
X996877D01*
X997074Y106074D01*
Y105681D01*
X996877Y105484D01*
X996484D01*
X996287Y105681D01*
Y107845D02*
Y108436D01*
X996484Y108633D01*
X996681Y108436D01*
Y108042D01*
X996877Y107845D01*
X997074Y108042D01*
Y108633D01*
X996287Y109026D02*
Y109420D01*
Y109223D01*
X997468D01*
Y109026D01*
X996287Y110207D02*
Y110600D01*
X996484Y110797D01*
X996877D01*
X997074Y110600D01*
Y110207D01*
X996877Y110010D01*
X996484D01*
X996287Y110207D01*
X997271Y111388D02*
X997074D01*
Y111191D01*
Y111584D01*
Y111388D01*
X996484D01*
X996287Y111584D01*
X994318Y80098D02*
X995106D01*
X995499Y80492D01*
X995106Y80886D01*
X994318D01*
X994909D01*
Y80098D01*
X994318Y81279D02*
Y81673D01*
Y81476D01*
X995499D01*
Y81279D01*
X994318Y82853D02*
Y82460D01*
X994515Y82263D01*
X994909D01*
X995106Y82460D01*
Y82853D01*
X994909Y83050D01*
X994712D01*
Y82263D01*
X995106Y83444D02*
X994318D01*
X994712D01*
X994909Y83641D01*
X995106Y83837D01*
Y84034D01*
X995302Y84821D02*
X995106D01*
Y84624D01*
Y85018D01*
Y84821D01*
X994515D01*
X994318Y85018D01*
Y86789D02*
X995499D01*
Y87379D01*
X995302Y87576D01*
X994909D01*
X994712Y87379D01*
Y86789D01*
X995302Y88757D02*
X995499Y88560D01*
Y88167D01*
X995302Y87970D01*
X994515D01*
X994318Y88167D01*
Y88560D01*
X994515Y88757D01*
X995499Y89151D02*
X994318D01*
Y89741D01*
X994515Y89938D01*
X994712D01*
X994909Y89741D01*
Y89151D01*
Y89741D01*
X995106Y89938D01*
X995302D01*
X995499Y89741D01*
Y89151D01*
X994318Y91709D02*
X995302D01*
X994909D01*
Y91512D01*
Y91906D01*
Y91709D01*
X995302D01*
X995499Y91906D01*
X995106Y92693D02*
Y93086D01*
X994909Y93283D01*
X994318D01*
Y92693D01*
X994515Y92496D01*
X994712Y92693D01*
Y93283D01*
X995499Y93677D02*
X994318D01*
Y94267D01*
X994515Y94464D01*
X994712D01*
X994909D01*
X995106Y94267D01*
Y93677D01*
X995302Y96235D02*
X995106D01*
Y96038D01*
Y96432D01*
Y96235D01*
X994515D01*
X994318Y96432D01*
Y97219D02*
Y97612D01*
X994515Y97809D01*
X994909D01*
X995106Y97612D01*
Y97219D01*
X994909Y97022D01*
X994515D01*
X994318Y97219D01*
Y99383D02*
Y99974D01*
X994515Y100171D01*
X994712Y99974D01*
Y99580D01*
X994909Y99383D01*
X995106Y99580D01*
Y100171D01*
X994318Y100564D02*
Y100958D01*
Y100761D01*
X995499D01*
Y100564D01*
X994318Y101745D02*
Y102138D01*
X994515Y102335D01*
X994909D01*
X995106Y102138D01*
Y101745D01*
X994909Y101548D01*
X994515D01*
X994318Y101745D01*
X995302Y102926D02*
X995106D01*
Y102729D01*
Y103122D01*
Y102926D01*
X994515D01*
X994318Y103122D01*
X995499Y105681D02*
X994318D01*
Y105090D01*
X994515Y104894D01*
X994909D01*
X995106Y105090D01*
Y105681D01*
X994318Y106665D02*
Y106271D01*
X994515Y106074D01*
X994909D01*
X995106Y106271D01*
Y106665D01*
X994909Y106861D01*
X994712D01*
Y106074D01*
X995302Y107452D02*
X995106D01*
Y107255D01*
Y107649D01*
Y107452D01*
X994515D01*
X994318Y107649D01*
X995106Y108436D02*
Y108829D01*
X994909Y109026D01*
X994318D01*
Y108436D01*
X994515Y108239D01*
X994712Y108436D01*
Y109026D01*
X994318Y109420D02*
Y109813D01*
Y109616D01*
X995106D01*
Y109420D01*
X994318Y110404D02*
Y110797D01*
Y110600D01*
X995499D01*
Y110404D01*
X994318Y111387D02*
Y111978D01*
X994515Y112175D01*
X994712Y111978D01*
Y111584D01*
X994909Y111387D01*
X995106Y111584D01*
Y112175D01*
M02*
