G04*
G04 #@! TF.GenerationSoftware,Altium Limited,Altium Designer,18.1.6 (161)*
G04*
G04 Layer_Color=8388736*
%FSLAX25Y25*%
%MOIN*%
G70*
G01*
G75*
%ADD73C,0.00408*%
%ADD74C,0.00510*%
D73*
X242500Y510500D02*
X239101D01*
Y512199D01*
X239668Y512766D01*
X240801D01*
X241367Y512199D01*
Y510500D01*
Y511633D02*
X242500Y512766D01*
X239668Y513899D02*
X239101Y514465D01*
Y515598D01*
X239668Y516165D01*
X241933D01*
X242500Y515598D01*
Y514465D01*
X241933Y513899D01*
X239668D01*
X252500Y510500D02*
X249101D01*
Y512199D01*
X249668Y512766D01*
X250801D01*
X251367Y512199D01*
Y510500D01*
Y511633D02*
X252500Y512766D01*
Y513899D02*
Y515032D01*
Y514465D01*
X249101D01*
X249668Y513899D01*
X262500Y510500D02*
X259101D01*
Y512199D01*
X259668Y512766D01*
X260801D01*
X261367Y512199D01*
Y510500D01*
Y511633D02*
X262500Y512766D01*
Y516165D02*
Y513899D01*
X260234Y516165D01*
X259668D01*
X259101Y515598D01*
Y514465D01*
X259668Y513899D01*
X272500Y510500D02*
X269101D01*
Y512199D01*
X269668Y512766D01*
X270801D01*
X271367Y512199D01*
Y510500D01*
Y511633D02*
X272500Y512766D01*
X269668Y513899D02*
X269101Y514465D01*
Y515598D01*
X269668Y516165D01*
X270234D01*
X270801Y515598D01*
Y515032D01*
Y515598D01*
X271367Y516165D01*
X271934D01*
X272500Y515598D01*
Y514465D01*
X271934Y513899D01*
X282500Y510500D02*
X279101D01*
Y512199D01*
X279668Y512766D01*
X280801D01*
X281367Y512199D01*
Y510500D01*
Y511633D02*
X282500Y512766D01*
Y515598D02*
X279101D01*
X280801Y513899D01*
Y516165D01*
X292500Y510500D02*
X289101D01*
Y512199D01*
X289668Y512766D01*
X290801D01*
X291367Y512199D01*
Y510500D01*
Y511633D02*
X292500Y512766D01*
X289101Y516165D02*
Y513899D01*
X290801D01*
X290234Y515032D01*
Y515598D01*
X290801Y516165D01*
X291933D01*
X292500Y515598D01*
Y514465D01*
X291933Y513899D01*
X302500Y510500D02*
X299101D01*
Y512199D01*
X299668Y512766D01*
X300801D01*
X301367Y512199D01*
Y510500D01*
Y511633D02*
X302500Y512766D01*
X299101Y516165D02*
X299668Y515032D01*
X300801Y513899D01*
X301934D01*
X302500Y514465D01*
Y515598D01*
X301934Y516165D01*
X301367D01*
X300801Y515598D01*
Y513899D01*
X312500Y510500D02*
X309101D01*
Y512199D01*
X309668Y512766D01*
X310801D01*
X311367Y512199D01*
Y510500D01*
Y511633D02*
X312500Y512766D01*
X309101Y513899D02*
Y516165D01*
X309668D01*
X311933Y513899D01*
X312500D01*
X319101Y510500D02*
X322500D01*
Y512199D01*
X321934Y512766D01*
X321367D01*
X320801Y512199D01*
Y510500D01*
Y512199D01*
X320234Y512766D01*
X319668D01*
X319101Y512199D01*
Y510500D01*
X319668Y513899D02*
X319101Y514465D01*
Y515598D01*
X319668Y516165D01*
X321934D01*
X322500Y515598D01*
Y514465D01*
X321934Y513899D01*
X319668D01*
X329101Y510500D02*
X332500D01*
Y512199D01*
X331933Y512766D01*
X331367D01*
X330801Y512199D01*
Y510500D01*
Y512199D01*
X330234Y512766D01*
X329668D01*
X329101Y512199D01*
Y510500D01*
X332500Y513899D02*
Y515032D01*
Y514465D01*
X329101D01*
X329668Y513899D01*
X339101Y510500D02*
X342500D01*
Y512199D01*
X341933Y512766D01*
X341367D01*
X340801Y512199D01*
Y510500D01*
Y512199D01*
X340234Y512766D01*
X339668D01*
X339101Y512199D01*
Y510500D01*
X342500Y516165D02*
Y513899D01*
X340234Y516165D01*
X339668D01*
X339101Y515598D01*
Y514465D01*
X339668Y513899D01*
X349101Y510500D02*
X352500D01*
Y512199D01*
X351934Y512766D01*
X351367D01*
X350801Y512199D01*
Y510500D01*
Y512199D01*
X350234Y512766D01*
X349668D01*
X349101Y512199D01*
Y510500D01*
X349668Y513899D02*
X349101Y514465D01*
Y515598D01*
X349668Y516165D01*
X350234D01*
X350801Y515598D01*
Y515032D01*
Y515598D01*
X351367Y516165D01*
X351934D01*
X352500Y515598D01*
Y514465D01*
X351934Y513899D01*
X359101Y510500D02*
X362500D01*
Y512199D01*
X361933Y512766D01*
X361367D01*
X360801Y512199D01*
Y510500D01*
Y512199D01*
X360234Y512766D01*
X359668D01*
X359101Y512199D01*
Y510500D01*
X362500Y515598D02*
X359101D01*
X360801Y513899D01*
Y516165D01*
X369101Y510500D02*
X372500D01*
Y512199D01*
X371934Y512766D01*
X371367D01*
X370801Y512199D01*
Y510500D01*
Y512199D01*
X370234Y512766D01*
X369668D01*
X369101Y512199D01*
Y510500D01*
Y516165D02*
Y513899D01*
X370801D01*
X370234Y515032D01*
Y515598D01*
X370801Y516165D01*
X371934D01*
X372500Y515598D01*
Y514465D01*
X371934Y513899D01*
X379101Y510500D02*
X382500D01*
Y512199D01*
X381933Y512766D01*
X381367D01*
X380801Y512199D01*
Y510500D01*
Y512199D01*
X380234Y512766D01*
X379668D01*
X379101Y512199D01*
Y510500D01*
Y516165D02*
X379668Y515032D01*
X380801Y513899D01*
X381933D01*
X382500Y514465D01*
Y515598D01*
X381933Y516165D01*
X381367D01*
X380801Y515598D01*
Y513899D01*
X389101Y510500D02*
X392500D01*
Y512199D01*
X391933Y512766D01*
X391367D01*
X390801Y512199D01*
Y510500D01*
Y512199D01*
X390234Y512766D01*
X389668D01*
X389101Y512199D01*
Y510500D01*
Y513899D02*
Y516165D01*
X389668D01*
X391933Y513899D01*
X392500D01*
X399101Y510500D02*
X402500Y512766D01*
X399101D02*
X402500Y510500D01*
Y513899D02*
X399101D01*
Y515598D01*
X399668Y516165D01*
X400801D01*
X401367Y515598D01*
Y513899D01*
Y515032D02*
X402500Y516165D01*
X409101Y510500D02*
X409668D01*
X410801Y511633D01*
X409668Y512766D01*
X409101D01*
X410801Y511633D02*
X412500D01*
X409101Y513899D02*
X412500D01*
Y515598D01*
X411934Y516165D01*
X409668D01*
X409101Y515598D01*
Y513899D01*
X419101Y510500D02*
X422500Y512766D01*
X419101D02*
X422500Y510500D01*
X419101Y513899D02*
X422500D01*
Y516165D01*
X429101Y510500D02*
X429668D01*
X430801Y511633D01*
X429668Y512766D01*
X429101D01*
X430801Y511633D02*
X432500D01*
X429101Y513899D02*
X431933D01*
X432500Y514465D01*
Y515598D01*
X431933Y516165D01*
X429101D01*
X428500Y582835D02*
X431899D01*
Y584535D01*
X431332Y585101D01*
X429067D01*
X428500Y584535D01*
Y582835D01*
Y588500D02*
Y586234D01*
X431899D01*
Y588500D01*
X430199Y586234D02*
Y587367D01*
X418500Y572639D02*
X420766D01*
X421899Y573771D01*
X420766Y574904D01*
X418500D01*
X419066Y578303D02*
X418500Y577737D01*
Y576604D01*
X419066Y576037D01*
X419633D01*
X420199Y576604D01*
Y577737D01*
X420766Y578303D01*
X421332D01*
X421899Y577737D01*
Y576604D01*
X421332Y576037D01*
X418500Y579436D02*
X419066D01*
X420199Y580569D01*
X419066Y581702D01*
X418500D01*
X420199Y580569D02*
X421899D01*
Y582835D02*
X418500D01*
X421899Y585101D01*
X418500D01*
X419066Y588500D02*
X418500Y587933D01*
Y586801D01*
X419066Y586234D01*
X421332D01*
X421899Y586801D01*
Y587933D01*
X421332Y588500D01*
X408500Y572639D02*
X411899D01*
X410199D01*
Y574904D01*
X408500D01*
X411899D01*
X409066Y578303D02*
X408500Y577737D01*
Y576604D01*
X409066Y576037D01*
X409633D01*
X410199Y576604D01*
Y577737D01*
X410766Y578303D01*
X411332D01*
X411899Y577737D01*
Y576604D01*
X411332Y576037D01*
X408500Y579436D02*
X409066D01*
X410199Y580569D01*
X409066Y581702D01*
X408500D01*
X410199Y580569D02*
X411899D01*
Y582835D02*
X408500D01*
X411899Y585101D01*
X408500D01*
X409066Y588500D02*
X408500Y587933D01*
Y586801D01*
X409066Y586234D01*
X411332D01*
X411899Y586801D01*
Y587933D01*
X411332Y588500D01*
X399066Y569806D02*
Y568673D01*
X399633Y568107D01*
X401899D01*
X402465Y568673D01*
Y569806D01*
X401899Y570372D01*
X399633D01*
X399066Y569806D01*
X402465Y571505D02*
X399066D01*
X402465Y573771D01*
X399066D01*
X402465Y574904D02*
X400199Y577170D01*
X401332Y578303D02*
X398500D01*
X401899D02*
X402465D01*
X399066Y581136D02*
Y580003D01*
X399633Y579436D01*
X401899D01*
X402465Y580003D01*
Y581136D01*
X401899Y581702D01*
X399633D01*
X399066Y581136D01*
Y585101D02*
Y582835D01*
X400766D01*
Y583968D01*
Y582835D01*
X402465D01*
X399066Y588500D02*
Y586234D01*
X400766D01*
Y587367D01*
Y586234D01*
X402465D01*
X389067Y581702D02*
X388500Y581136D01*
Y580003D01*
X389067Y579436D01*
X391332D01*
X391899Y580003D01*
Y581136D01*
X391332Y581702D01*
X388500Y582835D02*
X391899D01*
Y585101D01*
X388500Y586234D02*
X391899D01*
X390766D01*
X388500Y588500D01*
X390199Y586801D01*
X391899Y588500D01*
X379066Y581702D02*
X378500Y581136D01*
Y580003D01*
X379066Y579436D01*
X381332D01*
X381899Y580003D01*
Y581136D01*
X381332Y581702D01*
X380199D01*
Y580569D01*
X381899Y582835D02*
X378500D01*
X381899Y585101D01*
X378500D01*
Y586234D02*
X381899D01*
Y587933D01*
X381332Y588500D01*
X379066D01*
X378500Y587933D01*
Y586234D01*
X369067Y585101D02*
X368500Y584535D01*
Y583402D01*
X369067Y582835D01*
X371332D01*
X371899Y583402D01*
Y584535D01*
X371332Y585101D01*
X370199D01*
Y583968D01*
X368500Y586234D02*
Y588500D01*
X369067D01*
X371332Y586234D01*
X371899D01*
X359067Y585101D02*
X358500Y584535D01*
Y583402D01*
X359067Y582835D01*
X361332D01*
X361899Y583402D01*
Y584535D01*
X361332Y585101D01*
X360199D01*
Y583968D01*
X358500Y588500D02*
X359067Y587367D01*
X360199Y586234D01*
X361332D01*
X361899Y586801D01*
Y587933D01*
X361332Y588500D01*
X360766D01*
X360199Y587933D01*
Y586234D01*
X349066Y585101D02*
X348500Y584535D01*
Y583402D01*
X349066Y582835D01*
X351332D01*
X351899Y583402D01*
Y584535D01*
X351332Y585101D01*
X350199D01*
Y583968D01*
X348500Y588500D02*
Y586234D01*
X350199D01*
X349633Y587367D01*
Y587933D01*
X350199Y588500D01*
X351332D01*
X351899Y587933D01*
Y586801D01*
X351332Y586234D01*
X339067Y585101D02*
X338500Y584535D01*
Y583402D01*
X339067Y582835D01*
X341332D01*
X341899Y583402D01*
Y584535D01*
X341332Y585101D01*
X340199D01*
Y583968D01*
X341899Y587933D02*
X338500D01*
X340199Y586234D01*
Y588500D01*
X329066Y585101D02*
X328500Y584535D01*
Y583402D01*
X329066Y582835D01*
X331332D01*
X331899Y583402D01*
Y584535D01*
X331332Y585101D01*
X330199D01*
Y583968D01*
X329066Y586234D02*
X328500Y586801D01*
Y587933D01*
X329066Y588500D01*
X329633D01*
X330199Y587933D01*
Y587367D01*
Y587933D01*
X330766Y588500D01*
X331332D01*
X331899Y587933D01*
Y586801D01*
X331332Y586234D01*
X319067Y585101D02*
X318500Y584535D01*
Y583402D01*
X319067Y582835D01*
X321332D01*
X321899Y583402D01*
Y584535D01*
X321332Y585101D01*
X320199D01*
Y583968D01*
X321899Y588500D02*
Y586234D01*
X319633Y588500D01*
X319067D01*
X318500Y587933D01*
Y586801D01*
X319067Y586234D01*
X309067Y586234D02*
X308500Y585668D01*
Y584535D01*
X309067Y583968D01*
X311332D01*
X311899Y584535D01*
Y585668D01*
X311332Y586234D01*
X310199D01*
Y585101D01*
X311899Y587367D02*
Y588500D01*
Y587933D01*
X308500D01*
X309067Y587367D01*
X299066Y585101D02*
X298500Y584535D01*
Y583402D01*
X299066Y582835D01*
X301332D01*
X301899Y583402D01*
Y584535D01*
X301332Y585101D01*
X300199D01*
Y583968D01*
X299066Y586234D02*
X298500Y586801D01*
Y587933D01*
X299066Y588500D01*
X301332D01*
X301899Y587933D01*
Y586801D01*
X301332Y586234D01*
X299066D01*
X289067Y576604D02*
X288500Y577170D01*
Y578303D01*
X289067Y578870D01*
X289633D01*
X290199Y578303D01*
Y577737D01*
Y578303D01*
X290766Y578870D01*
X291332D01*
X291899Y578303D01*
Y577170D01*
X291332Y576604D01*
X291899Y580003D02*
X291332D01*
Y580569D01*
X291899D01*
Y580003D01*
X289067Y582835D02*
X288500Y583402D01*
Y584535D01*
X289067Y585101D01*
X289633D01*
X290199Y584535D01*
Y583968D01*
Y584535D01*
X290766Y585101D01*
X291332D01*
X291899Y584535D01*
Y583402D01*
X291332Y582835D01*
X288500Y586234D02*
X290766D01*
X291899Y587367D01*
X290766Y588500D01*
X288500D01*
X249066Y581702D02*
X248500Y581136D01*
Y580003D01*
X249066Y579436D01*
X251332D01*
X251899Y580003D01*
Y581136D01*
X251332Y581702D01*
X250199D01*
Y580569D01*
X251899Y582835D02*
X248500D01*
X251899Y585101D01*
X248500D01*
Y586234D02*
X251899D01*
Y587933D01*
X251332Y588500D01*
X249066D01*
X248500Y587933D01*
Y586234D01*
X281899Y579436D02*
X278500D01*
Y581136D01*
X279066Y581702D01*
X280199D01*
X280766Y581136D01*
Y579436D01*
X278500Y582835D02*
X281899D01*
X280766Y583968D01*
X281899Y585101D01*
X278500D01*
X281899Y586234D02*
X278500D01*
X279633Y587367D01*
X278500Y588500D01*
X281899D01*
X268500Y582835D02*
X271899D01*
Y585101D01*
Y586234D02*
X269633D01*
X268500Y587367D01*
X269633Y588500D01*
X271899D01*
X270199D01*
Y586234D01*
X258500Y582835D02*
X261899D01*
Y585101D01*
X258500Y586234D02*
X261899D01*
X260766D01*
X258500Y588500D01*
X260199Y586801D01*
X261899Y588500D01*
X238500Y578870D02*
Y576604D01*
X240199D01*
X239633Y577737D01*
Y578303D01*
X240199Y578870D01*
X241332D01*
X241899Y578303D01*
Y577170D01*
X241332Y576604D01*
X238500Y580003D02*
X240766D01*
X241899Y581136D01*
X240766Y582269D01*
X238500D01*
Y583402D02*
Y584535D01*
Y583968D01*
X241899D01*
Y583402D01*
Y584535D01*
Y586234D02*
X238500D01*
X241899Y588500D01*
X238500D01*
X375858Y306500D02*
X372459D01*
Y308199D01*
X373026Y308766D01*
X374159D01*
X374725Y308199D01*
Y306500D01*
Y307633D02*
X375858Y308766D01*
X373026Y309899D02*
X372459Y310465D01*
Y311598D01*
X373026Y312165D01*
X375291D01*
X375858Y311598D01*
Y310465D01*
X375291Y309899D01*
X373026D01*
X385858Y306500D02*
X382459D01*
Y308199D01*
X383026Y308766D01*
X384159D01*
X384725Y308199D01*
Y306500D01*
Y307633D02*
X385858Y308766D01*
Y309899D02*
Y311032D01*
Y310465D01*
X382459D01*
X383026Y309899D01*
X395858Y306500D02*
X392459D01*
Y308199D01*
X393026Y308766D01*
X394159D01*
X394725Y308199D01*
Y306500D01*
Y307633D02*
X395858Y308766D01*
Y312165D02*
Y309899D01*
X393592Y312165D01*
X393026D01*
X392459Y311598D01*
Y310465D01*
X393026Y309899D01*
X405858Y306500D02*
X402459D01*
Y308199D01*
X403026Y308766D01*
X404159D01*
X404725Y308199D01*
Y306500D01*
Y307633D02*
X405858Y308766D01*
X403026Y309899D02*
X402459Y310465D01*
Y311598D01*
X403026Y312165D01*
X403592D01*
X404159Y311598D01*
Y311032D01*
Y311598D01*
X404725Y312165D01*
X405292D01*
X405858Y311598D01*
Y310465D01*
X405292Y309899D01*
X415858Y306500D02*
X412459D01*
Y308199D01*
X413026Y308766D01*
X414159D01*
X414725Y308199D01*
Y306500D01*
Y307633D02*
X415858Y308766D01*
Y311598D02*
X412459D01*
X414159Y309899D01*
Y312165D01*
X425858Y306500D02*
X422459D01*
Y308199D01*
X423026Y308766D01*
X424159D01*
X424725Y308199D01*
Y306500D01*
Y307633D02*
X425858Y308766D01*
X422459Y312165D02*
Y309899D01*
X424159D01*
X423592Y311032D01*
Y311598D01*
X424159Y312165D01*
X425291D01*
X425858Y311598D01*
Y310465D01*
X425291Y309899D01*
X435858Y306500D02*
X432459D01*
Y308199D01*
X433026Y308766D01*
X434159D01*
X434725Y308199D01*
Y306500D01*
Y307633D02*
X435858Y308766D01*
X432459Y312165D02*
X433026Y311032D01*
X434159Y309899D01*
X435291D01*
X435858Y310465D01*
Y311598D01*
X435291Y312165D01*
X434725D01*
X434159Y311598D01*
Y309899D01*
X445858Y306500D02*
X442459D01*
Y308199D01*
X443026Y308766D01*
X444159D01*
X444725Y308199D01*
Y306500D01*
Y307633D02*
X445858Y308766D01*
X442459Y309899D02*
Y312165D01*
X443026D01*
X445292Y309899D01*
X445858D01*
X452459Y306500D02*
X455858D01*
Y308199D01*
X455292Y308766D01*
X454725D01*
X454159Y308199D01*
Y306500D01*
Y308199D01*
X453592Y308766D01*
X453026D01*
X452459Y308199D01*
Y306500D01*
X453026Y309899D02*
X452459Y310465D01*
Y311598D01*
X453026Y312165D01*
X455292D01*
X455858Y311598D01*
Y310465D01*
X455292Y309899D01*
X453026D01*
X462459Y306500D02*
X465858D01*
Y308199D01*
X465292Y308766D01*
X464725D01*
X464159Y308199D01*
Y306500D01*
Y308199D01*
X463592Y308766D01*
X463026D01*
X462459Y308199D01*
Y306500D01*
X465858Y309899D02*
Y311032D01*
Y310465D01*
X462459D01*
X463026Y309899D01*
X472459Y306500D02*
X475858D01*
Y308199D01*
X475291Y308766D01*
X474725D01*
X474159Y308199D01*
Y306500D01*
Y308199D01*
X473592Y308766D01*
X473026D01*
X472459Y308199D01*
Y306500D01*
X475858Y312165D02*
Y309899D01*
X473592Y312165D01*
X473026D01*
X472459Y311598D01*
Y310465D01*
X473026Y309899D01*
X482459Y306500D02*
X485858D01*
Y308199D01*
X485291Y308766D01*
X484725D01*
X484159Y308199D01*
Y306500D01*
Y308199D01*
X483592Y308766D01*
X483026D01*
X482459Y308199D01*
Y306500D01*
X483026Y309899D02*
X482459Y310465D01*
Y311598D01*
X483026Y312165D01*
X483592D01*
X484159Y311598D01*
Y311032D01*
Y311598D01*
X484725Y312165D01*
X485291D01*
X485858Y311598D01*
Y310465D01*
X485291Y309899D01*
X492459Y306500D02*
X495858D01*
Y308199D01*
X495292Y308766D01*
X494725D01*
X494159Y308199D01*
Y306500D01*
Y308199D01*
X493592Y308766D01*
X493026D01*
X492459Y308199D01*
Y306500D01*
X495858Y311598D02*
X492459D01*
X494159Y309899D01*
Y312165D01*
X502459Y306500D02*
X505858D01*
Y308199D01*
X505292Y308766D01*
X504725D01*
X504159Y308199D01*
Y306500D01*
Y308199D01*
X503592Y308766D01*
X503026D01*
X502459Y308199D01*
Y306500D01*
Y312165D02*
Y309899D01*
X504159D01*
X503592Y311032D01*
Y311598D01*
X504159Y312165D01*
X505292D01*
X505858Y311598D01*
Y310465D01*
X505292Y309899D01*
X512459Y306500D02*
X515858D01*
Y308199D01*
X515292Y308766D01*
X514725D01*
X514159Y308199D01*
Y306500D01*
Y308199D01*
X513592Y308766D01*
X513026D01*
X512459Y308199D01*
Y306500D01*
Y312165D02*
X513026Y311032D01*
X514159Y309899D01*
X515292D01*
X515858Y310465D01*
Y311598D01*
X515292Y312165D01*
X514725D01*
X514159Y311598D01*
Y309899D01*
X522459Y306500D02*
X525858D01*
Y308199D01*
X525291Y308766D01*
X524725D01*
X524159Y308199D01*
Y306500D01*
Y308199D01*
X523592Y308766D01*
X523026D01*
X522459Y308199D01*
Y306500D01*
Y309899D02*
Y312165D01*
X523026D01*
X525291Y309899D01*
X525858D01*
X532459Y306500D02*
X535858Y308766D01*
X532459D02*
X535858Y306500D01*
Y309899D02*
X532459D01*
Y311598D01*
X533026Y312165D01*
X534159D01*
X534725Y311598D01*
Y309899D01*
Y311032D02*
X535858Y312165D01*
X542459Y306500D02*
X543026D01*
X544159Y307633D01*
X543026Y308766D01*
X542459D01*
X544159Y307633D02*
X545858D01*
X542459Y309899D02*
X545858D01*
Y311598D01*
X545292Y312165D01*
X543026D01*
X542459Y311598D01*
Y309899D01*
X552459Y306500D02*
X555858Y308766D01*
X552459D02*
X555858Y306500D01*
X552459Y309899D02*
X555858D01*
Y312165D01*
X562459Y306500D02*
X563026D01*
X564159Y307633D01*
X563026Y308766D01*
X562459D01*
X564159Y307633D02*
X565858D01*
X562459Y309899D02*
X565292D01*
X565858Y310465D01*
Y311598D01*
X565292Y312165D01*
X562459D01*
X561858Y378835D02*
X565257D01*
Y380535D01*
X564690Y381101D01*
X562425D01*
X561858Y380535D01*
Y378835D01*
Y384500D02*
Y382234D01*
X565257D01*
Y384500D01*
X563557Y382234D02*
Y383367D01*
X551858Y368638D02*
X554124D01*
X555257Y369771D01*
X554124Y370904D01*
X551858D01*
X552424Y374303D02*
X551858Y373737D01*
Y372604D01*
X552424Y372037D01*
X552991D01*
X553557Y372604D01*
Y373737D01*
X554124Y374303D01*
X554690D01*
X555257Y373737D01*
Y372604D01*
X554690Y372037D01*
X551858Y375436D02*
X552424D01*
X553557Y376569D01*
X552424Y377702D01*
X551858D01*
X553557Y376569D02*
X555257D01*
Y378835D02*
X551858D01*
X555257Y381101D01*
X551858D01*
X552424Y384500D02*
X551858Y383933D01*
Y382801D01*
X552424Y382234D01*
X554690D01*
X555257Y382801D01*
Y383933D01*
X554690Y384500D01*
X541858Y368638D02*
X545257D01*
X543557D01*
Y370904D01*
X541858D01*
X545257D01*
X542424Y374303D02*
X541858Y373737D01*
Y372604D01*
X542424Y372037D01*
X542991D01*
X543557Y372604D01*
Y373737D01*
X544124Y374303D01*
X544690D01*
X545257Y373737D01*
Y372604D01*
X544690Y372037D01*
X541858Y375436D02*
X542424D01*
X543557Y376569D01*
X542424Y377702D01*
X541858D01*
X543557Y376569D02*
X545257D01*
Y378835D02*
X541858D01*
X545257Y381101D01*
X541858D01*
X542424Y384500D02*
X541858Y383933D01*
Y382801D01*
X542424Y382234D01*
X544690D01*
X545257Y382801D01*
Y383933D01*
X544690Y384500D01*
X532424Y365806D02*
Y364673D01*
X532991Y364107D01*
X535257D01*
X535823Y364673D01*
Y365806D01*
X535257Y366372D01*
X532991D01*
X532424Y365806D01*
X535823Y367506D02*
X532424D01*
X535823Y369771D01*
X532424D01*
X535823Y370904D02*
X533557Y373170D01*
X534690Y374303D02*
X531858D01*
X535257D02*
X535823D01*
X532424Y377136D02*
Y376003D01*
X532991Y375436D01*
X535257D01*
X535823Y376003D01*
Y377136D01*
X535257Y377702D01*
X532991D01*
X532424Y377136D01*
Y381101D02*
Y378835D01*
X534124D01*
Y379968D01*
Y378835D01*
X535823D01*
X532424Y384500D02*
Y382234D01*
X534124D01*
Y383367D01*
Y382234D01*
X535823D01*
X522425Y377702D02*
X521858Y377136D01*
Y376003D01*
X522425Y375436D01*
X524690D01*
X525257Y376003D01*
Y377136D01*
X524690Y377702D01*
X521858Y378835D02*
X525257D01*
Y381101D01*
X521858Y382234D02*
X525257D01*
X524124D01*
X521858Y384500D01*
X523557Y382801D01*
X525257Y384500D01*
X512425Y377702D02*
X511858Y377136D01*
Y376003D01*
X512425Y375436D01*
X514690D01*
X515257Y376003D01*
Y377136D01*
X514690Y377702D01*
X513557D01*
Y376569D01*
X515257Y378835D02*
X511858D01*
X515257Y381101D01*
X511858D01*
Y382234D02*
X515257D01*
Y383933D01*
X514690Y384500D01*
X512425D01*
X511858Y383933D01*
Y382234D01*
X502424Y381101D02*
X501858Y380535D01*
Y379402D01*
X502424Y378835D01*
X504690D01*
X505257Y379402D01*
Y380535D01*
X504690Y381101D01*
X503557D01*
Y379968D01*
X501858Y382234D02*
Y384500D01*
X502424D01*
X504690Y382234D01*
X505257D01*
X492424Y381101D02*
X491858Y380535D01*
Y379402D01*
X492424Y378835D01*
X494690D01*
X495257Y379402D01*
Y380535D01*
X494690Y381101D01*
X493557D01*
Y379968D01*
X491858Y384500D02*
X492424Y383367D01*
X493557Y382234D01*
X494690D01*
X495257Y382801D01*
Y383933D01*
X494690Y384500D01*
X494124D01*
X493557Y383933D01*
Y382234D01*
X482424Y381101D02*
X481858Y380535D01*
Y379402D01*
X482424Y378835D01*
X484690D01*
X485257Y379402D01*
Y380535D01*
X484690Y381101D01*
X483557D01*
Y379968D01*
X481858Y384500D02*
Y382234D01*
X483557D01*
X482991Y383367D01*
Y383933D01*
X483557Y384500D01*
X484690D01*
X485257Y383933D01*
Y382801D01*
X484690Y382234D01*
X472425Y381101D02*
X471858Y380535D01*
Y379402D01*
X472425Y378835D01*
X474690D01*
X475257Y379402D01*
Y380535D01*
X474690Y381101D01*
X473557D01*
Y379968D01*
X475257Y383933D02*
X471858D01*
X473557Y382234D01*
Y384500D01*
X462425Y381101D02*
X461858Y380535D01*
Y379402D01*
X462425Y378835D01*
X464690D01*
X465257Y379402D01*
Y380535D01*
X464690Y381101D01*
X463557D01*
Y379968D01*
X462425Y382234D02*
X461858Y382801D01*
Y383933D01*
X462425Y384500D01*
X462991D01*
X463557Y383933D01*
Y383367D01*
Y383933D01*
X464124Y384500D01*
X464690D01*
X465257Y383933D01*
Y382801D01*
X464690Y382234D01*
X452424Y381101D02*
X451858Y380535D01*
Y379402D01*
X452424Y378835D01*
X454690D01*
X455257Y379402D01*
Y380535D01*
X454690Y381101D01*
X453557D01*
Y379968D01*
X455257Y384500D02*
Y382234D01*
X452991Y384500D01*
X452424D01*
X451858Y383933D01*
Y382801D01*
X452424Y382234D01*
X442424Y382234D02*
X441858Y381668D01*
Y380535D01*
X442424Y379968D01*
X444690D01*
X445257Y380535D01*
Y381668D01*
X444690Y382234D01*
X443557D01*
Y381101D01*
X445257Y383367D02*
Y384500D01*
Y383933D01*
X441858D01*
X442424Y383367D01*
X432424Y381101D02*
X431858Y380535D01*
Y379402D01*
X432424Y378835D01*
X434690D01*
X435257Y379402D01*
Y380535D01*
X434690Y381101D01*
X433557D01*
Y379968D01*
X432424Y382234D02*
X431858Y382801D01*
Y383933D01*
X432424Y384500D01*
X434690D01*
X435257Y383933D01*
Y382801D01*
X434690Y382234D01*
X432424D01*
X422425Y372604D02*
X421858Y373170D01*
Y374303D01*
X422425Y374870D01*
X422991D01*
X423557Y374303D01*
Y373737D01*
Y374303D01*
X424124Y374870D01*
X424690D01*
X425257Y374303D01*
Y373170D01*
X424690Y372604D01*
X425257Y376003D02*
X424690D01*
Y376569D01*
X425257D01*
Y376003D01*
X422425Y378835D02*
X421858Y379402D01*
Y380535D01*
X422425Y381101D01*
X422991D01*
X423557Y380535D01*
Y379968D01*
Y380535D01*
X424124Y381101D01*
X424690D01*
X425257Y380535D01*
Y379402D01*
X424690Y378835D01*
X421858Y382234D02*
X424124D01*
X425257Y383367D01*
X424124Y384500D01*
X421858D01*
X382424Y377702D02*
X381858Y377136D01*
Y376003D01*
X382424Y375436D01*
X384690D01*
X385257Y376003D01*
Y377136D01*
X384690Y377702D01*
X383558D01*
Y376569D01*
X385257Y378835D02*
X381858D01*
X385257Y381101D01*
X381858D01*
Y382234D02*
X385257D01*
Y383933D01*
X384690Y384500D01*
X382424D01*
X381858Y383933D01*
Y382234D01*
X415257Y375436D02*
X411858D01*
Y377136D01*
X412425Y377702D01*
X413557D01*
X414124Y377136D01*
Y375436D01*
X411858Y378835D02*
X415257D01*
X414124Y379968D01*
X415257Y381101D01*
X411858D01*
X415257Y382234D02*
X411858D01*
X412991Y383367D01*
X411858Y384500D01*
X415257D01*
X401858Y378835D02*
X405257D01*
Y381101D01*
Y382234D02*
X402991D01*
X401858Y383367D01*
X402991Y384500D01*
X405257D01*
X403557D01*
Y382234D01*
X391858Y378835D02*
X395257D01*
Y381101D01*
X391858Y382234D02*
X395257D01*
X394124D01*
X391858Y384500D01*
X393558Y382801D01*
X395257Y384500D01*
X371858Y374870D02*
Y372604D01*
X373557D01*
X372991Y373737D01*
Y374303D01*
X373557Y374870D01*
X374690D01*
X375257Y374303D01*
Y373170D01*
X374690Y372604D01*
X371858Y376003D02*
X374124D01*
X375257Y377136D01*
X374124Y378269D01*
X371858D01*
Y379402D02*
Y380535D01*
Y379968D01*
X375257D01*
Y379402D01*
Y380535D01*
Y382234D02*
X371858D01*
X375257Y384500D01*
X371858D01*
X222764Y338000D02*
X219365D01*
Y339699D01*
X219932Y340266D01*
X221065D01*
X221631Y339699D01*
Y338000D01*
Y339133D02*
X222764Y340266D01*
X219932Y341399D02*
X219365Y341965D01*
Y343098D01*
X219932Y343665D01*
X222198D01*
X222764Y343098D01*
Y341965D01*
X222198Y341399D01*
X219932D01*
X232764Y338000D02*
X229365D01*
Y339699D01*
X229932Y340266D01*
X231065D01*
X231631Y339699D01*
Y338000D01*
Y339133D02*
X232764Y340266D01*
Y341399D02*
Y342532D01*
Y341965D01*
X229365D01*
X229932Y341399D01*
X242764Y338000D02*
X239365D01*
Y339699D01*
X239932Y340266D01*
X241065D01*
X241631Y339699D01*
Y338000D01*
Y339133D02*
X242764Y340266D01*
Y343665D02*
Y341399D01*
X240498Y343665D01*
X239932D01*
X239365Y343098D01*
Y341965D01*
X239932Y341399D01*
X252764Y338000D02*
X249365D01*
Y339699D01*
X249932Y340266D01*
X251065D01*
X251631Y339699D01*
Y338000D01*
Y339133D02*
X252764Y340266D01*
X249932Y341399D02*
X249365Y341965D01*
Y343098D01*
X249932Y343665D01*
X250498D01*
X251065Y343098D01*
Y342532D01*
Y343098D01*
X251631Y343665D01*
X252198D01*
X252764Y343098D01*
Y341965D01*
X252198Y341399D01*
X262764Y338000D02*
X259365D01*
Y339699D01*
X259932Y340266D01*
X261065D01*
X261631Y339699D01*
Y338000D01*
Y339133D02*
X262764Y340266D01*
Y343098D02*
X259365D01*
X261065Y341399D01*
Y343665D01*
X272764Y338000D02*
X269365D01*
Y339699D01*
X269932Y340266D01*
X271065D01*
X271631Y339699D01*
Y338000D01*
Y339133D02*
X272764Y340266D01*
X269365Y343665D02*
Y341399D01*
X271065D01*
X270498Y342532D01*
Y343098D01*
X271065Y343665D01*
X272198D01*
X272764Y343098D01*
Y341965D01*
X272198Y341399D01*
X282764Y338000D02*
X279365D01*
Y339699D01*
X279932Y340266D01*
X281065D01*
X281631Y339699D01*
Y338000D01*
Y339133D02*
X282764Y340266D01*
X279365Y343665D02*
X279932Y342532D01*
X281065Y341399D01*
X282197D01*
X282764Y341965D01*
Y343098D01*
X282197Y343665D01*
X281631D01*
X281065Y343098D01*
Y341399D01*
X292764Y338000D02*
X289365D01*
Y339699D01*
X289932Y340266D01*
X291065D01*
X291631Y339699D01*
Y338000D01*
Y339133D02*
X292764Y340266D01*
X289365Y341399D02*
Y343665D01*
X289932D01*
X292197Y341399D01*
X292764D01*
X299365Y338000D02*
X302764D01*
Y339699D01*
X302198Y340266D01*
X301631D01*
X301065Y339699D01*
Y338000D01*
Y339699D01*
X300498Y340266D01*
X299932D01*
X299365Y339699D01*
Y338000D01*
X299932Y341399D02*
X299365Y341965D01*
Y343098D01*
X299932Y343665D01*
X302198D01*
X302764Y343098D01*
Y341965D01*
X302198Y341399D01*
X299932D01*
X309365Y338000D02*
X312764D01*
Y339699D01*
X312197Y340266D01*
X311631D01*
X311065Y339699D01*
Y338000D01*
Y339699D01*
X310498Y340266D01*
X309932D01*
X309365Y339699D01*
Y338000D01*
X312764Y341399D02*
Y342532D01*
Y341965D01*
X309365D01*
X309932Y341399D01*
X319365Y338000D02*
X322764D01*
Y339699D01*
X322198Y340266D01*
X321631D01*
X321065Y339699D01*
Y338000D01*
Y339699D01*
X320498Y340266D01*
X319932D01*
X319365Y339699D01*
Y338000D01*
X322764Y343665D02*
Y341399D01*
X320498Y343665D01*
X319932D01*
X319365Y343098D01*
Y341965D01*
X319932Y341399D01*
X329365Y338000D02*
X332764D01*
Y339699D01*
X332197Y340266D01*
X331631D01*
X331065Y339699D01*
Y338000D01*
Y339699D01*
X330498Y340266D01*
X329932D01*
X329365Y339699D01*
Y338000D01*
X329932Y341399D02*
X329365Y341965D01*
Y343098D01*
X329932Y343665D01*
X330498D01*
X331065Y343098D01*
Y342532D01*
Y343098D01*
X331631Y343665D01*
X332197D01*
X332764Y343098D01*
Y341965D01*
X332197Y341399D01*
X339365Y338000D02*
X342764D01*
Y339699D01*
X342197Y340266D01*
X341631D01*
X341065Y339699D01*
Y338000D01*
Y339699D01*
X340498Y340266D01*
X339932D01*
X339365Y339699D01*
Y338000D01*
X342764Y343098D02*
X339365D01*
X341065Y341399D01*
Y343665D01*
X349365Y338000D02*
X352764D01*
Y339699D01*
X352198Y340266D01*
X351631D01*
X351065Y339699D01*
Y338000D01*
Y339699D01*
X350498Y340266D01*
X349932D01*
X349365Y339699D01*
Y338000D01*
Y343665D02*
Y341399D01*
X351065D01*
X350498Y342532D01*
Y343098D01*
X351065Y343665D01*
X352198D01*
X352764Y343098D01*
Y341965D01*
X352198Y341399D01*
X359365Y338000D02*
X362764D01*
Y339699D01*
X362197Y340266D01*
X361631D01*
X361065Y339699D01*
Y338000D01*
Y339699D01*
X360498Y340266D01*
X359932D01*
X359365Y339699D01*
Y338000D01*
Y343665D02*
X359932Y342532D01*
X361065Y341399D01*
X362197D01*
X362764Y341965D01*
Y343098D01*
X362197Y343665D01*
X361631D01*
X361065Y343098D01*
Y341399D01*
X369365Y338000D02*
X372764D01*
Y339699D01*
X372198Y340266D01*
X371631D01*
X371065Y339699D01*
Y338000D01*
Y339699D01*
X370498Y340266D01*
X369932D01*
X369365Y339699D01*
Y338000D01*
Y341399D02*
Y343665D01*
X369932D01*
X372198Y341399D01*
X372764D01*
X379365Y338000D02*
X382764Y340266D01*
X379365D02*
X382764Y338000D01*
Y341399D02*
X379365D01*
Y343098D01*
X379932Y343665D01*
X381065D01*
X381631Y343098D01*
Y341399D01*
Y342532D02*
X382764Y343665D01*
X389365Y338000D02*
X389932D01*
X391065Y339133D01*
X389932Y340266D01*
X389365D01*
X391065Y339133D02*
X392764D01*
X389365Y341399D02*
X392764D01*
Y343098D01*
X392197Y343665D01*
X389932D01*
X389365Y343098D01*
Y341399D01*
X399365Y338000D02*
X402764Y340266D01*
X399365D02*
X402764Y338000D01*
X399365Y341399D02*
X402764D01*
Y343665D01*
X409365Y338000D02*
X409932D01*
X411064Y339133D01*
X409932Y340266D01*
X409365D01*
X411064Y339133D02*
X412764D01*
X409365Y341399D02*
X412197D01*
X412764Y341965D01*
Y343098D01*
X412197Y343665D01*
X409365D01*
X408764Y410335D02*
X412163D01*
Y412035D01*
X411596Y412601D01*
X409331D01*
X408764Y412035D01*
Y410335D01*
Y416000D02*
Y413734D01*
X412163D01*
Y416000D01*
X410463Y413734D02*
Y414867D01*
X398764Y400139D02*
X401030D01*
X402163Y401271D01*
X401030Y402404D01*
X398764D01*
X399330Y405803D02*
X398764Y405237D01*
Y404104D01*
X399330Y403537D01*
X399897D01*
X400463Y404104D01*
Y405237D01*
X401030Y405803D01*
X401596D01*
X402163Y405237D01*
Y404104D01*
X401596Y403537D01*
X398764Y406936D02*
X399330D01*
X400463Y408069D01*
X399330Y409202D01*
X398764D01*
X400463Y408069D02*
X402163D01*
Y410335D02*
X398764D01*
X402163Y412601D01*
X398764D01*
X399330Y416000D02*
X398764Y415434D01*
Y414301D01*
X399330Y413734D01*
X401596D01*
X402163Y414301D01*
Y415434D01*
X401596Y416000D01*
X388764Y400139D02*
X392163D01*
X390463D01*
Y402404D01*
X388764D01*
X392163D01*
X389331Y405803D02*
X388764Y405237D01*
Y404104D01*
X389331Y403537D01*
X389897D01*
X390463Y404104D01*
Y405237D01*
X391030Y405803D01*
X391596D01*
X392163Y405237D01*
Y404104D01*
X391596Y403537D01*
X388764Y406936D02*
X389331D01*
X390463Y408069D01*
X389331Y409202D01*
X388764D01*
X390463Y408069D02*
X392163D01*
Y410335D02*
X388764D01*
X392163Y412601D01*
X388764D01*
X389331Y416000D02*
X388764Y415434D01*
Y414301D01*
X389331Y413734D01*
X391596D01*
X392163Y414301D01*
Y415434D01*
X391596Y416000D01*
X379330Y397306D02*
Y396173D01*
X379897Y395607D01*
X382163D01*
X382729Y396173D01*
Y397306D01*
X382163Y397872D01*
X379897D01*
X379330Y397306D01*
X382729Y399006D02*
X379330D01*
X382729Y401271D01*
X379330D01*
X382729Y402404D02*
X380464Y404670D01*
X381596Y405803D02*
X378764D01*
X382163D02*
X382729D01*
X379330Y408636D02*
Y407503D01*
X379897Y406936D01*
X382163D01*
X382729Y407503D01*
Y408636D01*
X382163Y409202D01*
X379897D01*
X379330Y408636D01*
Y412601D02*
Y410335D01*
X381030D01*
Y411468D01*
Y410335D01*
X382729D01*
X379330Y416000D02*
Y413734D01*
X381030D01*
Y414867D01*
Y413734D01*
X382729D01*
X369331Y409202D02*
X368764Y408636D01*
Y407503D01*
X369331Y406936D01*
X371596D01*
X372163Y407503D01*
Y408636D01*
X371596Y409202D01*
X368764Y410335D02*
X372163D01*
Y412601D01*
X368764Y413734D02*
X372163D01*
X371030D01*
X368764Y416000D01*
X370463Y414301D01*
X372163Y416000D01*
X359331Y409202D02*
X358764Y408636D01*
Y407503D01*
X359331Y406936D01*
X361596D01*
X362163Y407503D01*
Y408636D01*
X361596Y409202D01*
X360464D01*
Y408069D01*
X362163Y410335D02*
X358764D01*
X362163Y412601D01*
X358764D01*
Y413734D02*
X362163D01*
Y415434D01*
X361596Y416000D01*
X359331D01*
X358764Y415434D01*
Y413734D01*
X349330Y412601D02*
X348764Y412035D01*
Y410902D01*
X349330Y410335D01*
X351596D01*
X352163Y410902D01*
Y412035D01*
X351596Y412601D01*
X350464D01*
Y411468D01*
X348764Y413734D02*
Y416000D01*
X349330D01*
X351596Y413734D01*
X352163D01*
X339331Y412601D02*
X338764Y412035D01*
Y410902D01*
X339331Y410335D01*
X341596D01*
X342163Y410902D01*
Y412035D01*
X341596Y412601D01*
X340463D01*
Y411468D01*
X338764Y416000D02*
X339331Y414867D01*
X340463Y413734D01*
X341596D01*
X342163Y414301D01*
Y415434D01*
X341596Y416000D01*
X341030D01*
X340463Y415434D01*
Y413734D01*
X329330Y412601D02*
X328764Y412035D01*
Y410902D01*
X329330Y410335D01*
X331596D01*
X332163Y410902D01*
Y412035D01*
X331596Y412601D01*
X330464D01*
Y411468D01*
X328764Y416000D02*
Y413734D01*
X330464D01*
X329897Y414867D01*
Y415434D01*
X330464Y416000D01*
X331596D01*
X332163Y415434D01*
Y414301D01*
X331596Y413734D01*
X319331Y412601D02*
X318764Y412035D01*
Y410902D01*
X319331Y410335D01*
X321596D01*
X322163Y410902D01*
Y412035D01*
X321596Y412601D01*
X320463D01*
Y411468D01*
X322163Y415434D02*
X318764D01*
X320463Y413734D01*
Y416000D01*
X309331Y412601D02*
X308764Y412035D01*
Y410902D01*
X309331Y410335D01*
X311596D01*
X312163Y410902D01*
Y412035D01*
X311596Y412601D01*
X310464D01*
Y411468D01*
X309331Y413734D02*
X308764Y414301D01*
Y415434D01*
X309331Y416000D01*
X309897D01*
X310464Y415434D01*
Y414867D01*
Y415434D01*
X311030Y416000D01*
X311596D01*
X312163Y415434D01*
Y414301D01*
X311596Y413734D01*
X299330Y412601D02*
X298764Y412035D01*
Y410902D01*
X299330Y410335D01*
X301596D01*
X302163Y410902D01*
Y412035D01*
X301596Y412601D01*
X300464D01*
Y411468D01*
X302163Y416000D02*
Y413734D01*
X299897Y416000D01*
X299330D01*
X298764Y415434D01*
Y414301D01*
X299330Y413734D01*
X289331Y413734D02*
X288764Y413168D01*
Y412035D01*
X289331Y411468D01*
X291596D01*
X292163Y412035D01*
Y413168D01*
X291596Y413734D01*
X290463D01*
Y412601D01*
X292163Y414867D02*
Y416000D01*
Y415434D01*
X288764D01*
X289331Y414867D01*
X279330Y412601D02*
X278764Y412035D01*
Y410902D01*
X279330Y410335D01*
X281596D01*
X282163Y410902D01*
Y412035D01*
X281596Y412601D01*
X280464D01*
Y411468D01*
X279330Y413734D02*
X278764Y414301D01*
Y415434D01*
X279330Y416000D01*
X281596D01*
X282163Y415434D01*
Y414301D01*
X281596Y413734D01*
X279330D01*
X269331Y404104D02*
X268764Y404670D01*
Y405803D01*
X269331Y406370D01*
X269897D01*
X270463Y405803D01*
Y405237D01*
Y405803D01*
X271030Y406370D01*
X271596D01*
X272163Y405803D01*
Y404670D01*
X271596Y404104D01*
X272163Y407503D02*
X271596D01*
Y408069D01*
X272163D01*
Y407503D01*
X269331Y410335D02*
X268764Y410902D01*
Y412035D01*
X269331Y412601D01*
X269897D01*
X270463Y412035D01*
Y411468D01*
Y412035D01*
X271030Y412601D01*
X271596D01*
X272163Y412035D01*
Y410902D01*
X271596Y410335D01*
X268764Y413734D02*
X271030D01*
X272163Y414867D01*
X271030Y416000D01*
X268764D01*
X229330Y409202D02*
X228764Y408636D01*
Y407503D01*
X229330Y406936D01*
X231596D01*
X232163Y407503D01*
Y408636D01*
X231596Y409202D01*
X230464D01*
Y408069D01*
X232163Y410335D02*
X228764D01*
X232163Y412601D01*
X228764D01*
Y413734D02*
X232163D01*
Y415434D01*
X231596Y416000D01*
X229330D01*
X228764Y415434D01*
Y413734D01*
X262163Y406936D02*
X258764D01*
Y408636D01*
X259331Y409202D01*
X260464D01*
X261030Y408636D01*
Y406936D01*
X258764Y410335D02*
X262163D01*
X261030Y411468D01*
X262163Y412601D01*
X258764D01*
X262163Y413734D02*
X258764D01*
X259897Y414867D01*
X258764Y416000D01*
X262163D01*
X248764Y410335D02*
X252163D01*
Y412601D01*
Y413734D02*
X249897D01*
X248764Y414867D01*
X249897Y416000D01*
X252163D01*
X250464D01*
Y413734D01*
X238764Y410335D02*
X242163D01*
Y412601D01*
X238764Y413734D02*
X242163D01*
X241030D01*
X238764Y416000D01*
X240463Y414301D01*
X242163Y416000D01*
X218764Y406370D02*
Y404104D01*
X220463D01*
X219897Y405237D01*
Y405803D01*
X220463Y406370D01*
X221596D01*
X222163Y405803D01*
Y404670D01*
X221596Y404104D01*
X218764Y407503D02*
X221030D01*
X222163Y408636D01*
X221030Y409769D01*
X218764D01*
Y410902D02*
Y412035D01*
Y411468D01*
X222163D01*
Y410902D01*
Y412035D01*
Y413734D02*
X218764D01*
X222163Y416000D01*
X218764D01*
D74*
X306523Y562866D02*
Y567114D01*
X304398Y564990D01*
X307231D01*
X308647Y566406D02*
X309355Y567114D01*
X310771D01*
X311479Y566406D01*
Y563574D01*
X310771Y562866D01*
X309355D01*
X308647Y563574D01*
Y566406D01*
X312895Y564990D02*
X315728D01*
X317144Y562866D02*
Y567114D01*
X319268D01*
X319977Y566406D01*
Y564990D01*
X319268Y564282D01*
X317144D01*
X321393Y562866D02*
X322809D01*
X322101D01*
Y565698D01*
X321393D01*
X324933Y562866D02*
Y565698D01*
X327058D01*
X327766Y564990D01*
Y562866D01*
X333431Y567114D02*
X336263D01*
X334847D01*
Y562866D01*
X340512Y567114D02*
X337679D01*
Y564990D01*
X339095D01*
X337679D01*
Y562866D01*
X341928Y567114D02*
X344760D01*
X343344D01*
Y562866D01*
X350425Y567114D02*
Y562866D01*
X352549D01*
X353257Y563574D01*
Y564282D01*
X352549Y564990D01*
X350425D01*
X352549D01*
X353257Y565698D01*
Y566406D01*
X352549Y567114D01*
X350425D01*
X354674Y565698D02*
Y562866D01*
Y564282D01*
X355382Y564990D01*
X356090Y565698D01*
X356798D01*
X361047Y562866D02*
X359630D01*
X358922Y563574D01*
Y564990D01*
X359630Y565698D01*
X361047D01*
X361755Y564990D01*
Y564282D01*
X358922D01*
X363879Y565698D02*
X365295D01*
X366003Y564990D01*
Y562866D01*
X363879D01*
X363171Y563574D01*
X363879Y564282D01*
X366003D01*
X367420Y562866D02*
Y567114D01*
Y564282D02*
X369544Y565698D01*
X367420Y564282D02*
X369544Y562866D01*
X372376D02*
X373793D01*
X374501Y563574D01*
Y564990D01*
X373793Y565698D01*
X372376D01*
X371668Y564990D01*
Y563574D01*
X372376Y562866D01*
X375917Y565698D02*
Y563574D01*
X376625Y562866D01*
X378749D01*
Y565698D01*
X380874Y566406D02*
Y565698D01*
X380166D01*
X381582D01*
X380874D01*
Y563574D01*
X381582Y562866D01*
X320436Y532448D02*
Y530324D01*
X321144Y529616D01*
X321852Y530324D01*
X322560Y529616D01*
X323269Y530324D01*
Y532448D01*
X324685Y529616D02*
X327517Y532448D01*
X328933Y533864D02*
Y529616D01*
X331766D01*
X336014Y533864D02*
X333182D01*
Y529616D01*
X336014D01*
X333182Y531740D02*
X334598D01*
X337431Y533864D02*
Y529616D01*
X339555D01*
X340263Y530324D01*
Y533156D01*
X339555Y533864D01*
X337431D01*
X345928D02*
Y529616D01*
X348052D01*
X348760Y530324D01*
Y531032D01*
X348052Y531740D01*
X345928D01*
X348052D01*
X348760Y532448D01*
Y533156D01*
X348052Y533864D01*
X345928D01*
X350885Y529616D02*
X352301D01*
X353009Y530324D01*
Y531740D01*
X352301Y532448D01*
X350885D01*
X350177Y531740D01*
Y530324D01*
X350885Y529616D01*
X355133D02*
X356549D01*
X357258Y530324D01*
Y531740D01*
X356549Y532448D01*
X355133D01*
X354425Y531740D01*
Y530324D01*
X355133Y529616D01*
X358674D02*
X360798D01*
X361506Y530324D01*
X360798Y531032D01*
X359382D01*
X358674Y531740D01*
X359382Y532448D01*
X361506D01*
X363631Y533156D02*
Y532448D01*
X362922D01*
X364339D01*
X363631D01*
Y530324D01*
X364339Y529616D01*
X373544D02*
X372836Y530324D01*
X372128Y529616D01*
X371420D01*
X370711Y530324D01*
Y531032D01*
X371420Y531740D01*
X370711Y532448D01*
Y533156D01*
X371420Y533864D01*
X372128D01*
X372836Y533156D01*
Y532448D01*
X372128Y531740D01*
X372836Y531032D01*
Y530324D01*
X373544Y531740D02*
X372836Y531032D01*
X371420Y531740D02*
X372128D01*
X311939Y522116D02*
Y526364D01*
X309815Y524240D01*
X312647D01*
X314063D02*
X316896D01*
X318312Y526364D02*
Y522116D01*
X319728Y523532D01*
X321144Y522116D01*
Y526364D01*
X322560Y522116D02*
X323977D01*
X323269D01*
Y524948D01*
X322560D01*
X326101D02*
Y522116D01*
Y523532D01*
X326809Y524240D01*
X327517Y524948D01*
X328225D01*
X332474Y522116D02*
X331058D01*
X330349Y522824D01*
Y524240D01*
X331058Y524948D01*
X332474D01*
X333182Y524240D01*
Y523532D01*
X330349D01*
X338847Y526364D02*
X341679D01*
X340263D01*
Y522116D01*
X343804D02*
X345220D01*
X345928Y522824D01*
Y524240D01*
X345220Y524948D01*
X343804D01*
X343095Y524240D01*
Y522824D01*
X343804Y522116D01*
X347344Y524948D02*
Y522824D01*
X348052Y522116D01*
X350177D01*
Y524948D01*
X354425D02*
X352301D01*
X351593Y524240D01*
Y522824D01*
X352301Y522116D01*
X354425D01*
X355841Y526364D02*
Y522116D01*
Y524240D01*
X356549Y524948D01*
X357966D01*
X358674Y524240D01*
Y522116D01*
X360090D02*
X362214D01*
X362922Y522824D01*
X362214Y523532D01*
X360798D01*
X360090Y524240D01*
X360798Y524948D01*
X362922D01*
X367171D02*
X365047D01*
X364339Y524240D01*
Y522824D01*
X365047Y522116D01*
X367171D01*
X368587Y524948D02*
Y522116D01*
Y523532D01*
X369295Y524240D01*
X370003Y524948D01*
X370711D01*
X374960Y522116D02*
X373544D01*
X372836Y522824D01*
Y524240D01*
X373544Y524948D01*
X374960D01*
X375668Y524240D01*
Y523532D01*
X372836D01*
X379209Y522116D02*
X377793D01*
X377084Y522824D01*
Y524240D01*
X377793Y524948D01*
X379209D01*
X379917Y524240D01*
Y523532D01*
X377084D01*
X381333Y522116D02*
Y524948D01*
X383457D01*
X384166Y524240D01*
Y522116D01*
X439881Y358866D02*
Y363114D01*
X437756Y360990D01*
X440589D01*
X442005Y362406D02*
X442713Y363114D01*
X444129D01*
X444837Y362406D01*
Y359574D01*
X444129Y358866D01*
X442713D01*
X442005Y359574D01*
Y362406D01*
X446253Y360990D02*
X449086D01*
X450502Y358866D02*
Y363114D01*
X452627D01*
X453335Y362406D01*
Y360990D01*
X452627Y360282D01*
X450502D01*
X454751Y358866D02*
X456167D01*
X455459D01*
Y361698D01*
X454751D01*
X458291Y358866D02*
Y361698D01*
X460416D01*
X461124Y360990D01*
Y358866D01*
X466789Y363114D02*
X469621D01*
X468205D01*
Y358866D01*
X473870Y363114D02*
X471037D01*
Y360990D01*
X472453D01*
X471037D01*
Y358866D01*
X475286Y363114D02*
X478118D01*
X476702D01*
Y358866D01*
X483783Y363114D02*
Y358866D01*
X485907D01*
X486616Y359574D01*
Y360282D01*
X485907Y360990D01*
X483783D01*
X485907D01*
X486616Y361698D01*
Y362406D01*
X485907Y363114D01*
X483783D01*
X488032Y361698D02*
Y358866D01*
Y360282D01*
X488740Y360990D01*
X489448Y361698D01*
X490156D01*
X494405Y358866D02*
X492988D01*
X492280Y359574D01*
Y360990D01*
X492988Y361698D01*
X494405D01*
X495113Y360990D01*
Y360282D01*
X492280D01*
X497237Y361698D02*
X498653D01*
X499361Y360990D01*
Y358866D01*
X497237D01*
X496529Y359574D01*
X497237Y360282D01*
X499361D01*
X500778Y358866D02*
Y363114D01*
Y360282D02*
X502902Y361698D01*
X500778Y360282D02*
X502902Y358866D01*
X505734D02*
X507151D01*
X507859Y359574D01*
Y360990D01*
X507151Y361698D01*
X505734D01*
X505026Y360990D01*
Y359574D01*
X505734Y358866D01*
X509275Y361698D02*
Y359574D01*
X509983Y358866D01*
X512107D01*
Y361698D01*
X514232Y362406D02*
Y361698D01*
X513523D01*
X514940D01*
X514232D01*
Y359574D01*
X514940Y358866D01*
X453794Y328448D02*
Y326324D01*
X454502Y325616D01*
X455210Y326324D01*
X455918Y325616D01*
X456627Y326324D01*
Y328448D01*
X458043Y325616D02*
X460875Y328448D01*
X462291Y329864D02*
Y325616D01*
X465124D01*
X469372Y329864D02*
X466540D01*
Y325616D01*
X469372D01*
X466540Y327740D02*
X467956D01*
X470789Y329864D02*
Y325616D01*
X472913D01*
X473621Y326324D01*
Y329156D01*
X472913Y329864D01*
X470789D01*
X479286D02*
Y325616D01*
X481410D01*
X482118Y326324D01*
Y327032D01*
X481410Y327740D01*
X479286D01*
X481410D01*
X482118Y328448D01*
Y329156D01*
X481410Y329864D01*
X479286D01*
X484243Y325616D02*
X485659D01*
X486367Y326324D01*
Y327740D01*
X485659Y328448D01*
X484243D01*
X483534Y327740D01*
Y326324D01*
X484243Y325616D01*
X488491D02*
X489907D01*
X490616Y326324D01*
Y327740D01*
X489907Y328448D01*
X488491D01*
X487783Y327740D01*
Y326324D01*
X488491Y325616D01*
X492032D02*
X494156D01*
X494864Y326324D01*
X494156Y327032D01*
X492740D01*
X492032Y327740D01*
X492740Y328448D01*
X494864D01*
X496988Y329156D02*
Y328448D01*
X496280D01*
X497697D01*
X496988D01*
Y326324D01*
X497697Y325616D01*
X506902D02*
X506194Y326324D01*
X505486Y325616D01*
X504778D01*
X504070Y326324D01*
Y327032D01*
X504778Y327740D01*
X504070Y328448D01*
Y329156D01*
X504778Y329864D01*
X505486D01*
X506194Y329156D01*
Y328448D01*
X505486Y327740D01*
X506194Y327032D01*
Y326324D01*
X506902Y327740D02*
X506194Y327032D01*
X504778Y327740D02*
X505486D01*
X445297Y318116D02*
Y322364D01*
X443173Y320240D01*
X446005D01*
X447421D02*
X450253D01*
X451670Y322364D02*
Y318116D01*
X453086Y319532D01*
X454502Y318116D01*
Y322364D01*
X455918Y318116D02*
X457335D01*
X456627D01*
Y320948D01*
X455918D01*
X459459D02*
Y318116D01*
Y319532D01*
X460167Y320240D01*
X460875Y320948D01*
X461583D01*
X465832Y318116D02*
X464416D01*
X463707Y318824D01*
Y320240D01*
X464416Y320948D01*
X465832D01*
X466540Y320240D01*
Y319532D01*
X463707D01*
X472205Y322364D02*
X475037D01*
X473621D01*
Y318116D01*
X477162D02*
X478578D01*
X479286Y318824D01*
Y320240D01*
X478578Y320948D01*
X477162D01*
X476453Y320240D01*
Y318824D01*
X477162Y318116D01*
X480702Y320948D02*
Y318824D01*
X481410Y318116D01*
X483534D01*
Y320948D01*
X487783D02*
X485659D01*
X484951Y320240D01*
Y318824D01*
X485659Y318116D01*
X487783D01*
X489199Y322364D02*
Y318116D01*
Y320240D01*
X489907Y320948D01*
X491324D01*
X492032Y320240D01*
Y318116D01*
X493448D02*
X495572D01*
X496280Y318824D01*
X495572Y319532D01*
X494156D01*
X493448Y320240D01*
X494156Y320948D01*
X496280D01*
X500529D02*
X498405D01*
X497697Y320240D01*
Y318824D01*
X498405Y318116D01*
X500529D01*
X501945Y320948D02*
Y318116D01*
Y319532D01*
X502653Y320240D01*
X503361Y320948D01*
X504070D01*
X508318Y318116D02*
X506902D01*
X506194Y318824D01*
Y320240D01*
X506902Y320948D01*
X508318D01*
X509026Y320240D01*
Y319532D01*
X506194D01*
X512567Y318116D02*
X511151D01*
X510442Y318824D01*
Y320240D01*
X511151Y320948D01*
X512567D01*
X513275Y320240D01*
Y319532D01*
X510442D01*
X514691Y318116D02*
Y320948D01*
X516815D01*
X517523Y320240D01*
Y318116D01*
X286787Y390366D02*
Y394614D01*
X284662Y392490D01*
X287495D01*
X288911Y393906D02*
X289619Y394614D01*
X291035D01*
X291743Y393906D01*
Y391074D01*
X291035Y390366D01*
X289619D01*
X288911Y391074D01*
Y393906D01*
X293160Y392490D02*
X295992D01*
X297408Y390366D02*
Y394614D01*
X299533D01*
X300241Y393906D01*
Y392490D01*
X299533Y391782D01*
X297408D01*
X301657Y390366D02*
X303073D01*
X302365D01*
Y393198D01*
X301657D01*
X305197Y390366D02*
Y393198D01*
X307322D01*
X308030Y392490D01*
Y390366D01*
X313695Y394614D02*
X316527D01*
X315111D01*
Y390366D01*
X320776Y394614D02*
X317943D01*
Y392490D01*
X319359D01*
X317943D01*
Y390366D01*
X322192Y394614D02*
X325024D01*
X323608D01*
Y390366D01*
X330689Y394614D02*
Y390366D01*
X332813D01*
X333522Y391074D01*
Y391782D01*
X332813Y392490D01*
X330689D01*
X332813D01*
X333522Y393198D01*
Y393906D01*
X332813Y394614D01*
X330689D01*
X334938Y393198D02*
Y390366D01*
Y391782D01*
X335646Y392490D01*
X336354Y393198D01*
X337062D01*
X341311Y390366D02*
X339895D01*
X339186Y391074D01*
Y392490D01*
X339895Y393198D01*
X341311D01*
X342019Y392490D01*
Y391782D01*
X339186D01*
X344143Y393198D02*
X345559D01*
X346267Y392490D01*
Y390366D01*
X344143D01*
X343435Y391074D01*
X344143Y391782D01*
X346267D01*
X347684Y390366D02*
Y394614D01*
Y391782D02*
X349808Y393198D01*
X347684Y391782D02*
X349808Y390366D01*
X352640D02*
X354057D01*
X354765Y391074D01*
Y392490D01*
X354057Y393198D01*
X352640D01*
X351932Y392490D01*
Y391074D01*
X352640Y390366D01*
X356181Y393198D02*
Y391074D01*
X356889Y390366D01*
X359013D01*
Y393198D01*
X361138Y393906D02*
Y393198D01*
X360430D01*
X361846D01*
X361138D01*
Y391074D01*
X361846Y390366D01*
X300700Y359948D02*
Y357824D01*
X301408Y357116D01*
X302116Y357824D01*
X302824Y357116D01*
X303533Y357824D01*
Y359948D01*
X304949Y357116D02*
X307781Y359948D01*
X309197Y361364D02*
Y357116D01*
X312030D01*
X316278Y361364D02*
X313446D01*
Y357116D01*
X316278D01*
X313446Y359240D02*
X314862D01*
X317695Y361364D02*
Y357116D01*
X319819D01*
X320527Y357824D01*
Y360656D01*
X319819Y361364D01*
X317695D01*
X326192D02*
Y357116D01*
X328316D01*
X329024Y357824D01*
Y358532D01*
X328316Y359240D01*
X326192D01*
X328316D01*
X329024Y359948D01*
Y360656D01*
X328316Y361364D01*
X326192D01*
X331149Y357116D02*
X332565D01*
X333273Y357824D01*
Y359240D01*
X332565Y359948D01*
X331149D01*
X330440Y359240D01*
Y357824D01*
X331149Y357116D01*
X335397D02*
X336813D01*
X337522Y357824D01*
Y359240D01*
X336813Y359948D01*
X335397D01*
X334689Y359240D01*
Y357824D01*
X335397Y357116D01*
X338938D02*
X341062D01*
X341770Y357824D01*
X341062Y358532D01*
X339646D01*
X338938Y359240D01*
X339646Y359948D01*
X341770D01*
X343895Y360656D02*
Y359948D01*
X343186D01*
X344603D01*
X343895D01*
Y357824D01*
X344603Y357116D01*
X353808D02*
X353100Y357824D01*
X352392Y357116D01*
X351684D01*
X350975Y357824D01*
Y358532D01*
X351684Y359240D01*
X350975Y359948D01*
Y360656D01*
X351684Y361364D01*
X352392D01*
X353100Y360656D01*
Y359948D01*
X352392Y359240D01*
X353100Y358532D01*
Y357824D01*
X353808Y359240D02*
X353100Y358532D01*
X351684Y359240D02*
X352392D01*
X292203Y349616D02*
Y353864D01*
X290078Y351740D01*
X292911D01*
X294327D02*
X297160D01*
X298576Y353864D02*
Y349616D01*
X299992Y351032D01*
X301408Y349616D01*
Y353864D01*
X302824Y349616D02*
X304241D01*
X303533D01*
Y352448D01*
X302824D01*
X306365D02*
Y349616D01*
Y351032D01*
X307073Y351740D01*
X307781Y352448D01*
X308489D01*
X312738Y349616D02*
X311322D01*
X310613Y350324D01*
Y351740D01*
X311322Y352448D01*
X312738D01*
X313446Y351740D01*
Y351032D01*
X310613D01*
X319111Y353864D02*
X321943D01*
X320527D01*
Y349616D01*
X324067D02*
X325484D01*
X326192Y350324D01*
Y351740D01*
X325484Y352448D01*
X324067D01*
X323359Y351740D01*
Y350324D01*
X324067Y349616D01*
X327608Y352448D02*
Y350324D01*
X328316Y349616D01*
X330440D01*
Y352448D01*
X334689D02*
X332565D01*
X331857Y351740D01*
Y350324D01*
X332565Y349616D01*
X334689D01*
X336105Y353864D02*
Y349616D01*
Y351740D01*
X336813Y352448D01*
X338230D01*
X338938Y351740D01*
Y349616D01*
X340354D02*
X342478D01*
X343186Y350324D01*
X342478Y351032D01*
X341062D01*
X340354Y351740D01*
X341062Y352448D01*
X343186D01*
X347435D02*
X345311D01*
X344603Y351740D01*
Y350324D01*
X345311Y349616D01*
X347435D01*
X348851Y352448D02*
Y349616D01*
Y351032D01*
X349559Y351740D01*
X350267Y352448D01*
X350975D01*
X355224Y349616D02*
X353808D01*
X353100Y350324D01*
Y351740D01*
X353808Y352448D01*
X355224D01*
X355932Y351740D01*
Y351032D01*
X353100D01*
X359473Y349616D02*
X358057D01*
X357348Y350324D01*
Y351740D01*
X358057Y352448D01*
X359473D01*
X360181Y351740D01*
Y351032D01*
X357348D01*
X361597Y349616D02*
Y352448D01*
X363721D01*
X364429Y351740D01*
Y349616D01*
M02*
