M48
;Layer_Color=9474304
;FILE_FORMAT=2:5
INCH,LZ
;TYPE=PLATED
T1F00S00C0.02500
T2F00S00C0.02756
T3F00S00C0.03150
T4F00S00C0.03346
T5F00S00C0.03543
T6F00S00C0.03937
T7F00S00C0.20900
%
T01
X094Y01949
X0945224Y0201803
X09975Y0266
X1017Y02475
X10445Y02573
X07655Y0294
X0761468Y03005
X07035Y0299
X0694752Y02955
X0655Y0302688
X0659Y0308188
X06415Y0308
X07392Y02376
X07495Y01995
X04375Y0317
X0663Y0313688
X06655Y0352031
X06477Y036
X06563Y03692
X067Y0392008
X07155Y03752
X0716589Y0365811
X07259Y03743
X0731Y03695
X073Y035
X07225Y0350063
X0717085Y0347752
X0713Y03433
X0732153Y0338252
X0716Y0313608
X0761468Y0351237
X0756Y03594
X0749Y03799
X07503Y03909
X07379Y03976
X07633Y03807
X05997Y0493
T02
X08325Y05555
X08425
X08525
T03
X1029Y02925
Y02975
Y03025
X0611374Y0305394
X06035
Y029752
X0611374
Y0289646
Y0281772
X06035
Y0289646
Y0273898
X0611374
X0422398
Y0281772
Y0289646
X0414524
Y029752
X0422398
Y0305394
X0414524
Y0281772
Y0273898
Y0313268
X0422398
Y0321142
X0414524
Y0329016
X0422398
Y033689
X0414524
Y0344764
X0422398
Y0352638
X0414524
Y0360512
X0422398
Y0368386
X0414524
Y037626
X0422398
Y0384134
Y0392008
Y0399882
Y0407756
Y041563
Y0423504
Y0431378
Y0439252
Y0447126
Y0455
Y0462874
X0414524
Y0455
Y0447126
Y0439252
Y0431378
Y0423504
Y041563
Y0407756
Y0399882
Y0392008
Y0384134
X06035
X0611374
Y0392008
X06035
Y0399882
X0611374
Y0407756
X06035
Y041563
X0611374
Y0423504
X06035
Y0431378
X0611374
Y0439252
X06035
Y0447126
X0611374
Y0455
X06035
Y0462874
X0611374
Y037626
X06035
Y0368386
X0611374
Y0360512
X06035
Y0352638
X0611374
Y0344764
X06035
Y033689
X0611374
Y0329016
X06035
Y0321142
X0611374
Y0313268
X06035
Y0470748
X0611374
Y0478622
X06035
Y0486496
X0611374
X0532634Y0509496
X052476
X0516886
X0509012
X0501138
X0493264
X048539
X0477516
X0469642
Y0517992
X0477516
X048539
X0493264
X0501138
X0509012
X0516886
X052476
X0532634
X0461768
X0453894
X044602
X0438146
X0430272
X0422398
X0414524
Y0509496
X0422398
X0430272
X0438146
X044602
X0453894
X0461768
X0422398Y0486496
X0414524
Y0478622
X0422398
Y0470748
X0414524
T04
X0959724Y016224
Y019224
X09325Y0222
Y0252
Y02715
Y03015
X0768Y0349
X0798
X08765Y0414
Y0444
T05
X0372Y0132
X0382
X0392
X0402
X0412
X0422
X0432
X0442
X0452
X0462
X0472
X0482
X0492
X0502
X0512
X0522
X0532
X0542
X0552
X0562
X06645Y0139
X06745
X07145
X07245
X0778Y01335
Y01545
X0788Y01335
X0798
X0808
X0818
X08725Y0146
Y0156
X0994Y01595
Y01695
Y01795
Y01895
X1024
Y01795
Y01695
Y01595
X1015Y02275
Y02325
Y02375
X0991476Y02215
X0963524
X0974524Y0289
X1002476
X0911Y0288
Y0278
Y0298
Y0252
Y0242
Y0232
Y0222
X0873Y01945
Y01845
X0778
Y01945
Y02045
Y02145
Y02245
Y02345
Y02445
X07445Y0209
X07345
X07245
X07145
X07045
X06945
X06845
X06745
X06645
X06545
X06445
X0778Y01745
Y01645
X0562Y0222
X0552
X0542
X0532
X0522
X0512
X0502
X0492
X0482
X0472
X0462
X0452
X0442
X0432
X0422
X0412
X0402
X0392
X0382
X0372
X0378Y03745
Y03845
Y03945
Y04045
Y04145
Y04245
Y04345
Y04445
Y04545
Y04645
X0642Y0459
X0652
X06745
X06845
X0751Y046
X0761
Y0429
X0771
X0781
X0791
X0801
X0811
X0821
X0831
X08275Y0393
Y0383
X08155Y0459
X07855
X08475Y04575
Y04675
X08775
Y04575
X0931Y03325
X0941
X097Y03345
Y03245
X1003106Y0324063
Y0334063
X10375Y03345
Y03245
X08775Y04775
Y04875
X08475
Y04775
X08155Y0479
Y0469
Y0489
X07855
Y0479
Y0469
X0761Y04875
X0751
Y0515
X0761
X07615Y054
X07515
X06845Y05395
X06745
X0652
X0642
X06415Y0515
X06515
X06745Y05145
X06845
Y04875
X06745
X06515
X06415
X0378Y04845
Y04745
T06
X0936563Y0106591
X0935579Y0131
X0945421
X0960185Y0122339
Y0114465
X0944437Y0106591
T07
X02695Y01235
X10275
Y05385
X02695
M30
