G04*
G04 #@! TF.GenerationSoftware,Altium Limited,Altium Designer,18.1.6 (161)*
G04*
G04 Layer_Color=16711935*
%FSLAX25Y25*%
%MOIN*%
G70*
G01*
G75*
%ADD63C,0.03937*%
%ADD64C,0.00118*%
D63*
X935579Y131000D02*
X945421D01*
X960185Y114465D02*
Y122339D01*
X936563Y106591D02*
X944437D01*
D64*
X916619Y78189D02*
X915831D01*
X915438Y78583D01*
X915831Y78976D01*
X916619D01*
X916028D01*
Y78189D01*
X916619Y79370D02*
Y79763D01*
Y79567D01*
X915438D01*
Y79370D01*
X916619Y80944D02*
Y80550D01*
X916422Y80354D01*
X916028D01*
X915831Y80550D01*
Y80944D01*
X916028Y81141D01*
X916225D01*
Y80354D01*
X915831Y81534D02*
X916619D01*
X916225D01*
X916028Y81731D01*
X915831Y81928D01*
Y82125D01*
X915635Y82912D02*
X915831D01*
Y82715D01*
Y83109D01*
Y82912D01*
X916422D01*
X916619Y83109D01*
Y84880D02*
X915438D01*
Y85470D01*
X915635Y85667D01*
X916028D01*
X916225Y85470D01*
Y84880D01*
X915635Y86848D02*
X915438Y86651D01*
Y86257D01*
X915635Y86061D01*
X916422D01*
X916619Y86257D01*
Y86651D01*
X916422Y86848D01*
X915438Y87241D02*
X916619D01*
Y87831D01*
X916422Y88028D01*
X916225D01*
X916028Y87831D01*
Y87241D01*
Y87831D01*
X915831Y88028D01*
X915635D01*
X915438Y87831D01*
Y87241D01*
X916619Y89799D02*
X915635D01*
X916028D01*
Y89603D01*
Y89996D01*
Y89799D01*
X915635D01*
X915438Y89996D01*
X915831Y90783D02*
Y91177D01*
X916028Y91374D01*
X916619D01*
Y90783D01*
X916422Y90587D01*
X916225Y90783D01*
Y91374D01*
X915438Y91767D02*
X916619D01*
Y92358D01*
X916422Y92554D01*
X916225D01*
X916028D01*
X915831Y92358D01*
Y91767D01*
X915635Y94326D02*
X915831D01*
Y94129D01*
Y94522D01*
Y94326D01*
X916422D01*
X916619Y94522D01*
Y95309D02*
Y95703D01*
X916422Y95900D01*
X916028D01*
X915831Y95703D01*
Y95309D01*
X916028Y95113D01*
X916422D01*
X916619Y95309D01*
Y97474D02*
Y98064D01*
X916422Y98261D01*
X916225Y98064D01*
Y97671D01*
X916028Y97474D01*
X915831Y97671D01*
Y98261D01*
X916619Y98655D02*
Y99048D01*
Y98852D01*
X915438D01*
Y98655D01*
X916619Y99835D02*
Y100229D01*
X916422Y100426D01*
X916028D01*
X915831Y100229D01*
Y99835D01*
X916028Y99639D01*
X916422D01*
X916619Y99835D01*
X915635Y101016D02*
X915831D01*
Y100819D01*
Y101213D01*
Y101016D01*
X916422D01*
X916619Y101213D01*
X915438Y103771D02*
X916619D01*
Y103181D01*
X916422Y102984D01*
X916028D01*
X915831Y103181D01*
Y103771D01*
X916619Y104755D02*
Y104362D01*
X916422Y104165D01*
X916028D01*
X915831Y104362D01*
Y104755D01*
X916028Y104952D01*
X916225D01*
Y104165D01*
X915635Y105542D02*
X915831D01*
Y105345D01*
Y105739D01*
Y105542D01*
X916422D01*
X916619Y105739D01*
X915831Y106526D02*
Y106920D01*
X916028Y107117D01*
X916619D01*
Y106526D01*
X916422Y106330D01*
X916225Y106526D01*
Y107117D01*
X916619Y107510D02*
Y107904D01*
Y107707D01*
X915831D01*
Y107510D01*
X916619Y108494D02*
Y108888D01*
Y108691D01*
X915438D01*
Y108494D01*
X916619Y109478D02*
Y110068D01*
X916422Y110265D01*
X916225Y110068D01*
Y109675D01*
X916028Y109478D01*
X915831Y109675D01*
Y110265D01*
X914650Y78189D02*
X913863D01*
X913469Y78583D01*
X913863Y78976D01*
X914650D01*
X914060D01*
Y78189D01*
X914650Y79370D02*
Y79960D01*
X914453Y80157D01*
X914256Y79960D01*
Y79567D01*
X914060Y79370D01*
X913863Y79567D01*
Y80157D01*
X914650Y80550D02*
Y81141D01*
X914453Y81338D01*
X914256Y81141D01*
Y80747D01*
X914060Y80550D01*
X913863Y80747D01*
Y81338D01*
X914650Y81731D02*
Y82125D01*
Y81928D01*
X913863D01*
Y81731D01*
X915044Y83109D02*
Y83305D01*
X914847Y83502D01*
X913863D01*
Y82912D01*
X914060Y82715D01*
X914453D01*
X914650Y82912D01*
Y83502D01*
Y83896D02*
X913863D01*
Y84486D01*
X914060Y84683D01*
X914650D01*
Y86257D02*
X913469D01*
X914256D02*
X913863Y86848D01*
X914256Y86257D02*
X914650Y86848D01*
Y88028D02*
Y87635D01*
X914453Y87438D01*
X914060D01*
X913863Y87635D01*
Y88028D01*
X914060Y88225D01*
X914256D01*
Y87438D01*
X914650Y89209D02*
Y88815D01*
X914453Y88619D01*
X914060D01*
X913863Y88815D01*
Y89209D01*
X914060Y89406D01*
X914256D01*
Y88619D01*
X915044Y89799D02*
X913863D01*
Y90390D01*
X914060Y90587D01*
X914453D01*
X914650Y90390D01*
Y89799D01*
X914060Y90980D02*
Y91767D01*
X914650Y92358D02*
Y92751D01*
X914453Y92948D01*
X914060D01*
X913863Y92751D01*
Y92358D01*
X914060Y92161D01*
X914453D01*
X914650Y92358D01*
X913863Y93342D02*
X914453D01*
X914650Y93538D01*
Y94129D01*
X913863D01*
X913666Y94719D02*
X913863D01*
Y94522D01*
Y94916D01*
Y94719D01*
X914453D01*
X914650Y94916D01*
X913863Y96884D02*
Y97277D01*
X914060Y97474D01*
X914650D01*
Y96884D01*
X914453Y96687D01*
X914256Y96884D01*
Y97474D01*
X913863Y97868D02*
X914650D01*
X914256D01*
X914060Y98064D01*
X913863Y98261D01*
Y98458D01*
X914650Y99639D02*
Y99245D01*
X914453Y99048D01*
X914060D01*
X913863Y99245D01*
Y99639D01*
X914060Y99835D01*
X914256D01*
Y99048D01*
X913863Y100426D02*
Y100820D01*
X914060Y101016D01*
X914650D01*
Y100426D01*
X914453Y100229D01*
X914256Y100426D01*
Y101016D01*
X913666Y102787D02*
X913863D01*
Y102591D01*
Y102984D01*
Y102787D01*
X914453D01*
X914650Y102984D01*
Y103771D02*
Y104165D01*
X914453Y104362D01*
X914060D01*
X913863Y104165D01*
Y103771D01*
X914060Y103575D01*
X914453D01*
X914650Y103771D01*
Y105936D02*
Y106526D01*
X914453Y106723D01*
X914256Y106526D01*
Y106133D01*
X914060Y105936D01*
X913863Y106133D01*
Y106723D01*
X914650Y107117D02*
Y107510D01*
Y107313D01*
X913469D01*
Y107117D01*
X914650Y108297D02*
Y108691D01*
X914453Y108888D01*
X914060D01*
X913863Y108691D01*
Y108297D01*
X914060Y108101D01*
X914453D01*
X914650Y108297D01*
X913666Y109478D02*
X913863D01*
Y109281D01*
Y109675D01*
Y109478D01*
X914453D01*
X914650Y109675D01*
X918587Y78189D02*
X917406D01*
X917800Y78583D01*
X917406Y78976D01*
X918587D01*
Y79960D02*
Y79567D01*
X918390Y79370D01*
X917997D01*
X917800Y79567D01*
Y79960D01*
X917997Y80157D01*
X918193D01*
Y79370D01*
X917800Y81338D02*
Y80747D01*
X917997Y80550D01*
X918390D01*
X918587Y80747D01*
Y81338D01*
X917406Y81731D02*
X918587D01*
X917997D01*
X917800Y81928D01*
Y82322D01*
X917997Y82518D01*
X918587D01*
Y84093D02*
Y84486D01*
Y84289D01*
X917406D01*
X917603Y84093D01*
X917997Y86257D02*
Y87044D01*
X917603Y89406D02*
X917406Y89209D01*
Y88815D01*
X917603Y88619D01*
X917800D01*
X917997Y88815D01*
Y89209D01*
X918193Y89406D01*
X918390D01*
X918587Y89209D01*
Y88815D01*
X918390Y88619D01*
X918587Y89799D02*
Y90193D01*
Y89996D01*
X917406D01*
Y89799D01*
X918587Y90980D02*
Y91374D01*
X918390Y91571D01*
X917997D01*
X917800Y91374D01*
Y90980D01*
X917997Y90783D01*
X918390D01*
X918587Y90980D01*
X917603Y92161D02*
X917800D01*
Y91964D01*
Y92358D01*
Y92161D01*
X918390D01*
X918587Y92358D01*
X917800Y94916D02*
Y94326D01*
X917997Y94129D01*
X918390D01*
X918587Y94326D01*
Y94916D01*
X917800Y95309D02*
X918390D01*
X918587Y95506D01*
Y96097D01*
X917800D01*
X917603Y96687D02*
X917800D01*
Y96490D01*
Y96884D01*
Y96687D01*
X918390D01*
X918587Y96884D01*
X917997Y97474D02*
Y98261D01*
X918587Y98852D02*
Y99245D01*
X918390Y99442D01*
X917997D01*
X917800Y99245D01*
Y98852D01*
X917997Y98655D01*
X918390D01*
X918587Y98852D01*
X917800Y99835D02*
X918390D01*
X918587Y100032D01*
Y100623D01*
X917800D01*
X917603Y101213D02*
X917800D01*
Y101016D01*
Y101410D01*
Y101213D01*
X918390D01*
X918587Y101410D01*
X920555Y78189D02*
X919375D01*
X919768Y78583D01*
X919375Y78976D01*
X920555D01*
Y79960D02*
Y79567D01*
X920359Y79370D01*
X919965D01*
X919768Y79567D01*
Y79960D01*
X919965Y80157D01*
X920162D01*
Y79370D01*
X919768Y81338D02*
Y80747D01*
X919965Y80550D01*
X920359D01*
X920555Y80747D01*
Y81338D01*
X919375Y81731D02*
X920555D01*
X919965D01*
X919768Y81928D01*
Y82322D01*
X919965Y82518D01*
X920555D01*
Y84880D02*
Y84093D01*
X919768Y84880D01*
X919571D01*
X919375Y84683D01*
Y84289D01*
X919571Y84093D01*
X919965Y86454D02*
Y87241D01*
X919571Y89603D02*
X919375Y89406D01*
Y89012D01*
X919571Y88815D01*
X920359D01*
X920555Y89012D01*
Y89406D01*
X920359Y89603D01*
X920555Y89996D02*
Y90390D01*
Y90193D01*
X919375D01*
Y89996D01*
X920555Y91571D02*
Y91177D01*
X920359Y90980D01*
X919965D01*
X919768Y91177D01*
Y91571D01*
X919965Y91767D01*
X920162D01*
Y90980D01*
X919768Y92358D02*
Y92751D01*
X919965Y92948D01*
X920555D01*
Y92358D01*
X920359Y92161D01*
X920162Y92358D01*
Y92948D01*
X919768Y93342D02*
X920555D01*
X920162D01*
X919965Y93538D01*
X919768Y93735D01*
Y93932D01*
Y94719D02*
Y95113D01*
X919965Y95309D01*
X920555D01*
Y94719D01*
X920359Y94522D01*
X920162Y94719D01*
Y95309D01*
X920555Y95703D02*
X919768D01*
Y96293D01*
X919965Y96490D01*
X920555D01*
X919768Y97671D02*
Y97080D01*
X919965Y96884D01*
X920359D01*
X920555Y97080D01*
Y97671D01*
Y98655D02*
Y98261D01*
X920359Y98064D01*
X919965D01*
X919768Y98261D01*
Y98655D01*
X919965Y98852D01*
X920162D01*
Y98064D01*
X920752Y99442D02*
X920555Y99639D01*
X920359D01*
Y99442D01*
X920555D01*
Y99639D01*
X920752Y99442D01*
X920949Y99245D01*
X920555Y101607D02*
X919768D01*
Y101803D01*
X919965Y102000D01*
X920555D01*
X919965D01*
X919768Y102197D01*
X919965Y102394D01*
X920555D01*
Y102984D02*
Y103378D01*
X920359Y103575D01*
X919965D01*
X919768Y103378D01*
Y102984D01*
X919965Y102787D01*
X920359D01*
X920555Y102984D01*
X919768Y103968D02*
X920555Y104362D01*
X919768Y104755D01*
X920555Y105739D02*
Y105346D01*
X920359Y105149D01*
X919965D01*
X919768Y105346D01*
Y105739D01*
X919965Y105936D01*
X920162D01*
Y105149D01*
X919571Y107707D02*
X919768D01*
Y107510D01*
Y107904D01*
Y107707D01*
X920359D01*
X920555Y107904D01*
Y108691D02*
Y109084D01*
X920359Y109281D01*
X919965D01*
X919768Y109084D01*
Y108691D01*
X919965Y108494D01*
X920359D01*
X920555Y108691D01*
Y110856D02*
Y111249D01*
Y111052D01*
X919768D01*
Y110856D01*
X920555Y111839D02*
X919768D01*
Y112430D01*
X919965Y112627D01*
X920555D01*
X919571Y113217D02*
X919768D01*
Y113020D01*
Y113414D01*
Y113217D01*
X920359D01*
X920555Y113414D01*
Y114594D02*
Y114201D01*
X920359Y114004D01*
X919965D01*
X919768Y114201D01*
Y114594D01*
X919965Y114791D01*
X920162D01*
Y114004D01*
X919768Y115185D02*
X920555D01*
X920162D01*
X919965Y115382D01*
X919768Y115578D01*
Y115775D01*
X920555Y116366D02*
X919768D01*
Y116956D01*
X919965Y117153D01*
X920555D01*
X919768Y117743D02*
Y118137D01*
X919965Y118333D01*
X920555D01*
Y117743D01*
X920359Y117546D01*
X920162Y117743D01*
Y118333D01*
X920555Y118727D02*
Y119121D01*
Y118924D01*
X919375D01*
Y118727D01*
X920949Y120892D02*
X919768D01*
Y121482D01*
X919965Y121679D01*
X920359D01*
X920555Y121482D01*
Y120892D01*
Y122072D02*
Y122466D01*
Y122269D01*
X919375D01*
Y122072D01*
X919768Y123253D02*
Y123647D01*
X919965Y123844D01*
X920555D01*
Y123253D01*
X920359Y123056D01*
X920162Y123253D01*
Y123844D01*
X920555Y124237D02*
X919768D01*
Y124827D01*
X919965Y125024D01*
X920555D01*
Y126008D02*
Y125615D01*
X920359Y125418D01*
X919965D01*
X919768Y125615D01*
Y126008D01*
X919965Y126205D01*
X920162D01*
Y125418D01*
X920555Y127779D02*
Y128173D01*
Y127976D01*
X919768D01*
Y127779D01*
X920555Y128960D02*
X919571D01*
X919965D01*
Y128763D01*
Y129157D01*
Y128960D01*
X919571D01*
X919375Y129157D01*
X920949Y130928D02*
X919768D01*
Y131518D01*
X919965Y131715D01*
X920359D01*
X920555Y131518D01*
Y130928D01*
X919768Y132108D02*
X920555D01*
X920162D01*
X919965Y132305D01*
X919768Y132502D01*
Y132699D01*
X920555Y133880D02*
Y133486D01*
X920359Y133289D01*
X919965D01*
X919768Y133486D01*
Y133880D01*
X919965Y134076D01*
X920162D01*
Y133289D01*
X920555Y134470D02*
Y135060D01*
X920359Y135257D01*
X920162Y135060D01*
Y134667D01*
X919965Y134470D01*
X919768Y134667D01*
Y135257D01*
X920555Y136241D02*
Y135847D01*
X920359Y135651D01*
X919965D01*
X919768Y135847D01*
Y136241D01*
X919965Y136438D01*
X920162D01*
Y135651D01*
X920555Y136831D02*
X919768D01*
Y137422D01*
X919965Y137619D01*
X920555D01*
X919571Y138209D02*
X919768D01*
Y138012D01*
Y138406D01*
Y138209D01*
X920359D01*
X920555Y138406D01*
M02*
