G04*
G04 #@! TF.GenerationSoftware,Altium Limited,Altium Designer,18.1.6 (161)*
G04*
G04 Layer_Color=8421504*
%FSLAX25Y25*%
%MOIN*%
G70*
G01*
G75*
%ADD16R,0.05906X0.05512*%
%ADD17R,0.05118X0.02756*%
%ADD18R,0.05512X0.05906*%
%ADD19O,0.01181X0.08071*%
%ADD20O,0.08071X0.01181*%
D16*
X863744Y426126D02*
D03*
Y434000D02*
D03*
X851500Y433937D02*
D03*
Y426063D02*
D03*
X831000Y476437D02*
D03*
Y468563D02*
D03*
X707000Y415953D02*
D03*
Y408079D02*
D03*
X700000Y281063D02*
D03*
Y288937D02*
D03*
X727000Y116626D02*
D03*
Y124500D02*
D03*
X712500Y116626D02*
D03*
Y124500D02*
D03*
X676000Y117063D02*
D03*
Y124937D02*
D03*
X660000Y117126D02*
D03*
Y125000D02*
D03*
X674500Y281063D02*
D03*
Y288937D02*
D03*
X1044500Y264563D02*
D03*
Y272437D02*
D03*
Y242126D02*
D03*
Y250000D02*
D03*
X687000Y281063D02*
D03*
Y288937D02*
D03*
X808000Y334374D02*
D03*
Y326500D02*
D03*
X795000Y334000D02*
D03*
Y326126D02*
D03*
X712500Y288937D02*
D03*
Y281063D02*
D03*
X657500Y330063D02*
D03*
Y337937D02*
D03*
X694000Y408142D02*
D03*
Y416016D02*
D03*
X782500Y326063D02*
D03*
Y333937D02*
D03*
X770500Y326063D02*
D03*
Y333937D02*
D03*
D17*
X945224Y186240D02*
D03*
Y182500D02*
D03*
Y178760D02*
D03*
X935776D02*
D03*
Y182500D02*
D03*
Y186240D02*
D03*
D18*
X973626Y240500D02*
D03*
X981500D02*
D03*
X973563Y256500D02*
D03*
X981437D02*
D03*
Y272000D02*
D03*
X973563D02*
D03*
X1017937Y256500D02*
D03*
X1010063D02*
D03*
X944224Y165740D02*
D03*
X936350D02*
D03*
X1010000Y272500D02*
D03*
X1017874D02*
D03*
X921437Y181500D02*
D03*
X913563D02*
D03*
X784374Y515500D02*
D03*
X776500D02*
D03*
X784500Y540000D02*
D03*
X776626D02*
D03*
X707000Y515000D02*
D03*
X699126D02*
D03*
X706874Y459000D02*
D03*
X699000D02*
D03*
X706937Y487882D02*
D03*
X699063D02*
D03*
X707000Y539500D02*
D03*
X699126D02*
D03*
D19*
X734122Y323980D02*
D03*
X732153D02*
D03*
X730185D02*
D03*
X728216D02*
D03*
X726248D02*
D03*
X724279D02*
D03*
X722311D02*
D03*
X720342D02*
D03*
X718374D02*
D03*
X716405D02*
D03*
X714437D02*
D03*
X712468D02*
D03*
X710500D02*
D03*
X708531D02*
D03*
X706563D02*
D03*
X704594D02*
D03*
X702626D02*
D03*
X700657D02*
D03*
X698689D02*
D03*
X696720D02*
D03*
X694752D02*
D03*
X692783D02*
D03*
X690815D02*
D03*
X688846D02*
D03*
X686878D02*
D03*
Y384020D02*
D03*
X688846D02*
D03*
X690815D02*
D03*
X692783D02*
D03*
X694752D02*
D03*
X696720D02*
D03*
X698689D02*
D03*
X700657D02*
D03*
X702626D02*
D03*
X704594D02*
D03*
X706563D02*
D03*
X708531D02*
D03*
X710500D02*
D03*
X712468D02*
D03*
X714437D02*
D03*
X716405D02*
D03*
X718374D02*
D03*
X720342D02*
D03*
X722311D02*
D03*
X724279D02*
D03*
X726248D02*
D03*
X728216D02*
D03*
X730185D02*
D03*
X732153D02*
D03*
X734122D02*
D03*
D20*
X680480Y330378D02*
D03*
Y332346D02*
D03*
Y334315D02*
D03*
Y336283D02*
D03*
Y338252D02*
D03*
Y340220D02*
D03*
Y342189D02*
D03*
Y344157D02*
D03*
Y346126D02*
D03*
Y348094D02*
D03*
Y350063D02*
D03*
Y352031D02*
D03*
Y354000D02*
D03*
Y355968D02*
D03*
Y357937D02*
D03*
Y359905D02*
D03*
Y361874D02*
D03*
Y363842D02*
D03*
Y365811D02*
D03*
Y367779D02*
D03*
Y369748D02*
D03*
Y371716D02*
D03*
Y373685D02*
D03*
Y375653D02*
D03*
Y377622D02*
D03*
X740520D02*
D03*
Y375653D02*
D03*
Y373685D02*
D03*
Y371716D02*
D03*
Y369748D02*
D03*
Y367779D02*
D03*
Y365811D02*
D03*
Y363842D02*
D03*
Y361874D02*
D03*
Y359905D02*
D03*
Y357937D02*
D03*
Y355968D02*
D03*
Y354000D02*
D03*
Y352031D02*
D03*
Y350063D02*
D03*
Y348094D02*
D03*
Y346126D02*
D03*
Y344157D02*
D03*
Y342189D02*
D03*
Y340220D02*
D03*
Y338252D02*
D03*
Y336283D02*
D03*
Y334315D02*
D03*
Y332346D02*
D03*
Y330378D02*
D03*
M02*
