G04*
G04 #@! TF.GenerationSoftware,Altium Limited,Altium Designer,18.1.6 (161)*
G04*
G04 Layer_Color=16711935*
%FSLAX25Y25*%
%MOIN*%
G70*
G01*
G75*
%ADD62C,0.00500*%
%ADD66C,0.00394*%
D62*
X741917Y333744D02*
G03*
X741957Y333784I-0J39D01*
G01*
Y334768D02*
G03*
X741917Y334807I-39J0D01*
G01*
X717803Y322504D02*
G03*
X717843Y322465I39J0D01*
G01*
X718827D02*
G03*
X718866Y322504I0J39D01*
G01*
X696150D02*
G03*
X696189Y322465I39J0D01*
G01*
X697173D02*
G03*
X697213Y322504I0J39D01*
G01*
X679004Y374177D02*
G03*
X678965Y374138I0J-39D01*
G01*
Y373153D02*
G03*
X679004Y373114I39J0D01*
G01*
Y362366D02*
G03*
X678965Y362327I-0J-39D01*
G01*
Y361343D02*
G03*
X679004Y361303I39J0D01*
G01*
Y340713D02*
G03*
X678965Y340673I0J-39D01*
G01*
Y339689D02*
G03*
X679004Y339650I39J0D01*
G01*
X703118Y385417D02*
G03*
X703079Y385457I-39J0D01*
G01*
X702095D02*
G03*
X702055Y385417I0J-39D01*
G01*
X724772D02*
G03*
X724732Y385457I-39J0D01*
G01*
X723748D02*
G03*
X723709Y385417I0J-39D01*
G01*
X741917Y367209D02*
G03*
X741957Y367248I0J39D01*
G01*
Y368232D02*
G03*
X741917Y368272I-39J0D01*
G01*
Y345555D02*
G03*
X741957Y345595I-0J39D01*
G01*
Y346579D02*
G03*
X741917Y346618I-39J0D01*
G01*
X729614Y322504D02*
G03*
X729654Y322465I39J0D01*
G01*
X730638D02*
G03*
X730677Y322504I0J39D01*
G01*
X707961D02*
G03*
X708000Y322465I39J0D01*
G01*
X708984D02*
G03*
X709024Y322504I0J39D01*
G01*
X686307D02*
G03*
X686346Y322465I39J0D01*
G01*
X687331D02*
G03*
X687370Y322504I0J39D01*
G01*
X691307Y385417D02*
G03*
X691268Y385457I-39J0D01*
G01*
X690283D02*
G03*
X690244Y385417I0J-39D01*
G01*
X679004Y350555D02*
G03*
X678965Y350516I0J-39D01*
G01*
Y349532D02*
G03*
X679004Y349492I39J0D01*
G01*
X712961Y385417D02*
G03*
X712921Y385457I-39J0D01*
G01*
X711937D02*
G03*
X711898Y385417I0J-39D01*
G01*
X734614D02*
G03*
X734575Y385457I-39J0D01*
G01*
X733591D02*
G03*
X733551Y385417I0J-39D01*
G01*
X741917Y357366D02*
G03*
X741957Y357405I-0J39D01*
G01*
Y358390D02*
G03*
X741917Y358429I-39J0D01*
G01*
Y335713D02*
G03*
X741957Y335752I-0J39D01*
G01*
Y336736D02*
G03*
X741917Y336776I-39J0D01*
G01*
X719772Y322504D02*
G03*
X719811Y322465I39J0D01*
G01*
X720795D02*
G03*
X720835Y322504I0J39D01*
G01*
X698118D02*
G03*
X698158Y322465I39J0D01*
G01*
X699142D02*
G03*
X699181Y322504I0J39D01*
G01*
X679004Y372209D02*
G03*
X678965Y372169I0J-39D01*
G01*
Y371185D02*
G03*
X679004Y371146I39J0D01*
G01*
Y360398D02*
G03*
X678965Y360358I-0J-39D01*
G01*
Y359374D02*
G03*
X679004Y359335I39J0D01*
G01*
Y338744D02*
G03*
X678965Y338705I0J-39D01*
G01*
Y337720D02*
G03*
X679004Y337681I39J0D01*
G01*
X701150Y385417D02*
G03*
X701110Y385457I-39J0D01*
G01*
X700126D02*
G03*
X700087Y385417I0J-39D01*
G01*
X722803D02*
G03*
X722764Y385457I-39J0D01*
G01*
X721780D02*
G03*
X721740Y385417I0J-39D01*
G01*
X741917Y369177D02*
G03*
X741957Y369216I0J39D01*
G01*
Y370201D02*
G03*
X741917Y370240I-39J0D01*
G01*
Y347524D02*
G03*
X741957Y347563I-0J39D01*
G01*
Y348547D02*
G03*
X741917Y348587I-39J0D01*
G01*
X731583Y322504D02*
G03*
X731622Y322465I39J0D01*
G01*
X732606D02*
G03*
X732646Y322504I0J39D01*
G01*
X709929D02*
G03*
X709969Y322465I39J0D01*
G01*
X710953D02*
G03*
X710992Y322504I0J39D01*
G01*
X688276D02*
G03*
X688315Y322465I39J0D01*
G01*
X689299D02*
G03*
X689339Y322504I0J39D01*
G01*
Y385417D02*
G03*
X689299Y385457I-39J0D01*
G01*
X688315D02*
G03*
X688276Y385417I0J-39D01*
G01*
X679004Y348587D02*
G03*
X678965Y348547I0J-39D01*
G01*
Y347563D02*
G03*
X679004Y347524I39J0D01*
G01*
X710992Y385417D02*
G03*
X710953Y385457I-39J0D01*
G01*
X709969D02*
G03*
X709929Y385417I0J-39D01*
G01*
X732646D02*
G03*
X732606Y385457I-39J0D01*
G01*
X731622D02*
G03*
X731583Y385417I0J-39D01*
G01*
X741917Y359335D02*
G03*
X741957Y359374I-0J39D01*
G01*
Y360358D02*
G03*
X741917Y360398I-39J0D01*
G01*
Y337681D02*
G03*
X741957Y337720I-0J39D01*
G01*
Y338705D02*
G03*
X741917Y338744I-39J0D01*
G01*
X721740Y322504D02*
G03*
X721780Y322465I39J0D01*
G01*
X722764D02*
G03*
X722803Y322504I0J39D01*
G01*
X700087D02*
G03*
X700126Y322465I39J0D01*
G01*
X701110D02*
G03*
X701150Y322504I0J39D01*
G01*
X679004Y370240D02*
G03*
X678965Y370201I0J-39D01*
G01*
Y369216D02*
G03*
X679004Y369177I39J0D01*
G01*
Y358429D02*
G03*
X678965Y358390I-0J-39D01*
G01*
Y357405D02*
G03*
X679004Y357366I39J0D01*
G01*
Y336776D02*
G03*
X678965Y336736I0J-39D01*
G01*
Y335752D02*
G03*
X679004Y335713I39J0D01*
G01*
X699181Y385417D02*
G03*
X699142Y385457I-39J0D01*
G01*
X698158D02*
G03*
X698118Y385417I0J-39D01*
G01*
X720835D02*
G03*
X720795Y385457I-39J0D01*
G01*
X719811D02*
G03*
X719772Y385417I0J-39D01*
G01*
X741917Y371146D02*
G03*
X741957Y371185I0J39D01*
G01*
Y372169D02*
G03*
X741917Y372209I-39J0D01*
G01*
Y349492D02*
G03*
X741957Y349532I-0J39D01*
G01*
Y350516D02*
G03*
X741917Y350555I-39J0D01*
G01*
X733551Y322504D02*
G03*
X733591Y322465I39J0D01*
G01*
X734575D02*
G03*
X734614Y322504I0J39D01*
G01*
X711898D02*
G03*
X711937Y322465I39J0D01*
G01*
X712921D02*
G03*
X712961Y322504I0J39D01*
G01*
X690244D02*
G03*
X690283Y322465I39J0D01*
G01*
X691268D02*
G03*
X691307Y322504I0J39D01*
G01*
X687370Y385417D02*
G03*
X687331Y385457I-39J0D01*
G01*
X686346D02*
G03*
X686307Y385417I0J-39D01*
G01*
X679004Y346618D02*
G03*
X678965Y346579I0J-39D01*
G01*
Y345595D02*
G03*
X679004Y345555I39J0D01*
G01*
X709024Y385417D02*
G03*
X708984Y385457I-39J0D01*
G01*
X708000D02*
G03*
X707961Y385417I0J-39D01*
G01*
X741917Y355398D02*
G03*
X741957Y355437I-0J39D01*
G01*
Y356421D02*
G03*
X741917Y356461I-39J0D01*
G01*
X730677Y385417D02*
G03*
X730638Y385457I-39J0D01*
G01*
X729654D02*
G03*
X729614Y385417I0J-39D01*
G01*
X741917Y361303D02*
G03*
X741957Y361343I0J39D01*
G01*
Y362327D02*
G03*
X741917Y362366I-39J0D01*
G01*
Y339650D02*
G03*
X741957Y339689I-0J39D01*
G01*
Y340673D02*
G03*
X741917Y340713I-39J0D01*
G01*
X723709Y322504D02*
G03*
X723748Y322465I39J0D01*
G01*
X724732D02*
G03*
X724772Y322504I0J39D01*
G01*
X702055D02*
G03*
X702095Y322465I39J0D01*
G01*
X703079D02*
G03*
X703118Y322504I0J39D01*
G01*
X679004Y368272D02*
G03*
X678965Y368232I0J-39D01*
G01*
Y367248D02*
G03*
X679004Y367209I39J0D01*
G01*
Y356461D02*
G03*
X678965Y356421I-0J-39D01*
G01*
Y355437D02*
G03*
X679004Y355398I39J0D01*
G01*
Y334807D02*
G03*
X678965Y334768I0J-39D01*
G01*
Y333784D02*
G03*
X679004Y333744I39J0D01*
G01*
X697213Y385417D02*
G03*
X697173Y385457I-39J0D01*
G01*
X696189D02*
G03*
X696150Y385417I0J-39D01*
G01*
X718866D02*
G03*
X718827Y385457I-39J0D01*
G01*
X717843D02*
G03*
X717803Y385417I0J-39D01*
G01*
X741917Y373114D02*
G03*
X741957Y373153I0J39D01*
G01*
Y374138D02*
G03*
X741917Y374177I-39J0D01*
G01*
Y351461D02*
G03*
X741957Y351500I-0J39D01*
G01*
Y352484D02*
G03*
X741917Y352524I-39J0D01*
G01*
Y329807D02*
G03*
X741957Y329847I-0J39D01*
G01*
Y330831D02*
G03*
X741917Y330870I-39J0D01*
G01*
X713866Y322504D02*
G03*
X713906Y322465I39J0D01*
G01*
X714890D02*
G03*
X714929Y322504I0J39D01*
G01*
X692213D02*
G03*
X692252Y322465I39J0D01*
G01*
X693236D02*
G03*
X693276Y322504I0J39D01*
G01*
X679004Y378114D02*
G03*
X678965Y378075I0J-39D01*
G01*
Y377091D02*
G03*
X679004Y377051I39J0D01*
G01*
Y344650D02*
G03*
X678965Y344610I0J-39D01*
G01*
Y343626D02*
G03*
X679004Y343587I39J0D01*
G01*
X707055Y385417D02*
G03*
X707016Y385457I-39J0D01*
G01*
X706032D02*
G03*
X705992Y385417I0J-39D01*
G01*
X728709D02*
G03*
X728669Y385457I-39J0D01*
G01*
X727685D02*
G03*
X727646Y385417I0J-39D01*
G01*
X741917Y363272D02*
G03*
X741957Y363311I0J39D01*
G01*
Y364295D02*
G03*
X741917Y364335I-39J0D01*
G01*
Y341618D02*
G03*
X741957Y341657I-0J39D01*
G01*
Y342642D02*
G03*
X741917Y342681I-39J0D01*
G01*
X725677Y322504D02*
G03*
X725717Y322465I39J0D01*
G01*
X726701D02*
G03*
X726740Y322504I0J39D01*
G01*
X704024D02*
G03*
X704063Y322465I39J0D01*
G01*
X705047D02*
G03*
X705087Y322504I0J39D01*
G01*
X679004Y366303D02*
G03*
X678965Y366264I0J-39D01*
G01*
Y365280D02*
G03*
X679004Y365240I39J0D01*
G01*
Y332839D02*
G03*
X678965Y332799I0J-39D01*
G01*
Y331815D02*
G03*
X679004Y331776I39J0D01*
G01*
X695244Y385417D02*
G03*
X695205Y385457I-39J0D01*
G01*
X694220D02*
G03*
X694181Y385417I0J-39D01*
G01*
X679004Y354492D02*
G03*
X678965Y354453I-0J-39D01*
G01*
Y353468D02*
G03*
X679004Y353429I39J0D01*
G01*
X716898Y385417D02*
G03*
X716858Y385457I-39J0D01*
G01*
X715874D02*
G03*
X715835Y385417I0J-39D01*
G01*
X741917Y375083D02*
G03*
X741957Y375122I0J39D01*
G01*
Y376106D02*
G03*
X741917Y376146I-39J0D01*
G01*
Y353429D02*
G03*
X741957Y353468I-0J39D01*
G01*
Y354453D02*
G03*
X741917Y354492I-39J0D01*
G01*
Y331776D02*
G03*
X741957Y331815I-0J39D01*
G01*
Y332799D02*
G03*
X741917Y332839I-39J0D01*
G01*
X715835Y322504D02*
G03*
X715874Y322465I39J0D01*
G01*
X716858D02*
G03*
X716898Y322504I0J39D01*
G01*
X694181D02*
G03*
X694220Y322465I39J0D01*
G01*
X695205D02*
G03*
X695244Y322504I0J39D01*
G01*
X679004Y376146D02*
G03*
X678965Y376106I0J-39D01*
G01*
Y375122D02*
G03*
X679004Y375083I39J0D01*
G01*
Y364335D02*
G03*
X678965Y364295I-0J-39D01*
G01*
Y363311D02*
G03*
X679004Y363272I39J0D01*
G01*
Y342681D02*
G03*
X678965Y342642I0J-39D01*
G01*
Y341657D02*
G03*
X679004Y341618I39J0D01*
G01*
X705087Y385417D02*
G03*
X705047Y385457I-39J0D01*
G01*
X704063D02*
G03*
X704024Y385417I0J-39D01*
G01*
X726740D02*
G03*
X726701Y385457I-39J0D01*
G01*
X725717D02*
G03*
X725677Y385417I0J-39D01*
G01*
X741917Y365240D02*
G03*
X741957Y365280I0J39D01*
G01*
Y366264D02*
G03*
X741917Y366303I-39J0D01*
G01*
Y343587D02*
G03*
X741957Y343626I-0J39D01*
G01*
Y344610D02*
G03*
X741917Y344650I-39J0D01*
G01*
X727646Y322504D02*
G03*
X727685Y322465I39J0D01*
G01*
X728669D02*
G03*
X728709Y322504I0J39D01*
G01*
X705992D02*
G03*
X706032Y322465I39J0D01*
G01*
X707016D02*
G03*
X707055Y322504I0J39D01*
G01*
X679004Y330870D02*
G03*
X678965Y330831I0J-39D01*
G01*
Y329847D02*
G03*
X679004Y329807I39J0D01*
G01*
X693276Y385417D02*
G03*
X693236Y385457I-39J0D01*
G01*
X692252D02*
G03*
X692213Y385417I0J-39D01*
G01*
X679004Y352524D02*
G03*
X678965Y352484I-0J-39D01*
G01*
Y351500D02*
G03*
X679004Y351461I39J0D01*
G01*
X714929Y385417D02*
G03*
X714890Y385457I-39J0D01*
G01*
X713906D02*
G03*
X713866Y385417I0J-39D01*
G01*
X741917Y377051D02*
G03*
X741957Y377091I-0J39D01*
G01*
Y378075D02*
G03*
X741917Y378114I-39J0D01*
G01*
X730146Y332307D02*
G03*
X734083Y332307I1969J0D01*
G01*
D02*
G03*
X730146Y332307I-1969J0D01*
G01*
X739532Y334807D02*
X740095D01*
X738810D02*
X739532D01*
X738020D02*
X738810D01*
X741957Y333783D02*
Y334768D01*
X738810Y333744D02*
X739532D01*
X740487D02*
X741917D01*
X739532D02*
X740095D01*
Y334807D02*
X740487D01*
X741917D01*
X740095Y333744D02*
X740487D01*
X738020D02*
X738810D01*
X718866Y324326D02*
Y324889D01*
Y325612D01*
Y326402D01*
X717842Y322465D02*
X718827D01*
X717803Y324889D02*
Y325612D01*
Y322504D02*
Y323934D01*
Y324326D02*
Y324889D01*
X718866Y323934D02*
Y324326D01*
Y322504D02*
Y323934D01*
X717803D02*
Y324326D01*
Y325612D02*
Y326402D01*
X697213Y324326D02*
Y324889D01*
Y325612D01*
Y326402D01*
X696189Y322465D02*
X697173D01*
X696150Y324889D02*
Y325612D01*
Y322504D02*
Y323934D01*
Y324326D02*
Y324889D01*
X697213Y323934D02*
Y324326D01*
Y322504D02*
Y323934D01*
X696150D02*
Y324326D01*
Y325612D02*
Y326402D01*
X680826Y373114D02*
X681389D01*
X682112D01*
X682901D01*
X678964Y373153D02*
Y374138D01*
X681389Y374177D02*
X682112D01*
X679004D02*
X680434D01*
X680826D02*
X681389D01*
X680434Y373114D02*
X680826D01*
X679004D02*
X680434D01*
Y374177D02*
X680826D01*
X682112D02*
X682901D01*
X680826Y361303D02*
X681389D01*
X682112D01*
X682901D01*
X678964Y361342D02*
Y362327D01*
X681389Y362366D02*
X682112D01*
X679004D02*
X680434D01*
X680826D02*
X681389D01*
X680434Y361303D02*
X680826D01*
X679004D02*
X680434D01*
Y362366D02*
X680826D01*
X682112D02*
X682901D01*
X680826Y339650D02*
X681389D01*
X682112D01*
X682901D01*
X678964Y339689D02*
Y340673D01*
X681389Y340713D02*
X682112D01*
X679004D02*
X680434D01*
X680826D02*
X681389D01*
X680434Y339650D02*
X680826D01*
X679004D02*
X680434D01*
Y340713D02*
X680826D01*
X682112D02*
X682901D01*
X702055Y383032D02*
Y383595D01*
Y382310D02*
Y383032D01*
Y381520D02*
Y382310D01*
X702094Y385457D02*
X703079D01*
X703118Y382310D02*
Y383032D01*
Y383987D02*
Y385417D01*
Y383032D02*
Y383595D01*
X702055D02*
Y383987D01*
Y385417D01*
X703118Y383595D02*
Y383987D01*
Y381520D02*
Y382310D01*
X723709Y383032D02*
Y383595D01*
Y382310D02*
Y383032D01*
Y381520D02*
Y382310D01*
X723748Y385457D02*
X724732D01*
X724772Y382310D02*
Y383032D01*
Y383987D02*
Y385417D01*
Y383032D02*
Y383595D01*
X723709D02*
Y383987D01*
Y385417D01*
X724772Y383595D02*
Y383987D01*
Y381520D02*
Y382310D01*
X739532Y368272D02*
X740095D01*
X738810D02*
X739532D01*
X738020D02*
X738810D01*
X741957Y367248D02*
Y368232D01*
X738810Y367209D02*
X739532D01*
X740487D02*
X741917D01*
X739532D02*
X740095D01*
Y368272D02*
X740487D01*
X741917D01*
X740095Y367209D02*
X740487D01*
X738020D02*
X738810D01*
X739532Y346618D02*
X740095D01*
X738810D02*
X739532D01*
X738020D02*
X738810D01*
X741957Y345594D02*
Y346579D01*
X738810Y345555D02*
X739532D01*
X740487D02*
X741917D01*
X739532D02*
X740095D01*
Y346618D02*
X740487D01*
X741917D01*
X740095Y345555D02*
X740487D01*
X738020D02*
X738810D01*
X730677Y324326D02*
Y324889D01*
Y325612D01*
Y326402D01*
X729653Y322465D02*
X730638D01*
X729614Y324889D02*
Y325612D01*
Y322504D02*
Y323934D01*
Y324326D02*
Y324889D01*
X730677Y323934D02*
Y324326D01*
Y322504D02*
Y323934D01*
X729614D02*
Y324326D01*
Y325612D02*
Y326402D01*
X709024Y324326D02*
Y324889D01*
Y325612D01*
Y326402D01*
X708000Y322465D02*
X708984D01*
X707961Y324889D02*
Y325612D01*
Y322504D02*
Y323934D01*
Y324326D02*
Y324889D01*
X709024Y323934D02*
Y324326D01*
Y322504D02*
Y323934D01*
X707961D02*
Y324326D01*
Y325612D02*
Y326402D01*
X687370Y324326D02*
Y324889D01*
Y325612D01*
Y326402D01*
X686346Y322465D02*
X687331D01*
X686307Y324889D02*
Y325612D01*
Y322504D02*
Y323934D01*
Y324326D02*
Y324889D01*
X687370Y323934D02*
Y324326D01*
Y322504D02*
Y323934D01*
X686307D02*
Y324326D01*
Y325612D02*
Y326402D01*
X690244Y383032D02*
Y383595D01*
Y382310D02*
Y383032D01*
Y381520D02*
Y382310D01*
X690283Y385457D02*
X691268D01*
X691307Y382310D02*
Y383032D01*
Y383987D02*
Y385417D01*
Y383032D02*
Y383595D01*
X690244D02*
Y383987D01*
Y385417D01*
X691307Y383595D02*
Y383987D01*
Y381520D02*
Y382310D01*
X680826Y349492D02*
X681389D01*
X682112D01*
X682901D01*
X678964Y349531D02*
Y350516D01*
X681389Y350555D02*
X682112D01*
X679004D02*
X680434D01*
X680826D02*
X681389D01*
X680434Y349492D02*
X680826D01*
X679004D02*
X680434D01*
Y350555D02*
X680826D01*
X682112D02*
X682901D01*
X711898Y383032D02*
Y383595D01*
Y382310D02*
Y383032D01*
Y381520D02*
Y382310D01*
X711937Y385457D02*
X712921D01*
X712961Y382310D02*
Y383032D01*
Y383987D02*
Y385417D01*
Y383032D02*
Y383595D01*
X711898D02*
Y383987D01*
Y385417D01*
X712961Y383595D02*
Y383987D01*
Y381520D02*
Y382310D01*
X733551Y383032D02*
Y383595D01*
Y382310D02*
Y383032D01*
Y381520D02*
Y382310D01*
X733590Y385457D02*
X734575D01*
X734614Y382310D02*
Y383032D01*
Y383987D02*
Y385417D01*
Y383032D02*
Y383595D01*
X733551D02*
Y383987D01*
Y385417D01*
X734614Y383595D02*
Y383987D01*
Y381520D02*
Y382310D01*
X739532Y358429D02*
X740095D01*
X738810D02*
X739532D01*
X738020D02*
X738810D01*
X741957Y357405D02*
Y358390D01*
X738810Y357366D02*
X739532D01*
X740487D02*
X741917D01*
X739532D02*
X740095D01*
Y358429D02*
X740487D01*
X741917D01*
X740095Y357366D02*
X740487D01*
X738020D02*
X738810D01*
X739532Y336776D02*
X740095D01*
X738810D02*
X739532D01*
X738020D02*
X738810D01*
X741957Y335752D02*
Y336736D01*
X738810Y335713D02*
X739532D01*
X740487D02*
X741917D01*
X739532D02*
X740095D01*
Y336776D02*
X740487D01*
X741917D01*
X740095Y335713D02*
X740487D01*
X738020D02*
X738810D01*
X720835Y324326D02*
Y324889D01*
Y325612D01*
Y326402D01*
X719811Y322465D02*
X720795D01*
X719772Y324889D02*
Y325612D01*
Y322504D02*
Y323934D01*
Y324326D02*
Y324889D01*
X720835Y323934D02*
Y324326D01*
Y322504D02*
Y323934D01*
X719772D02*
Y324326D01*
Y325612D02*
Y326402D01*
X699181Y324326D02*
Y324889D01*
Y325612D01*
Y326402D01*
X698157Y322465D02*
X699142D01*
X698118Y324889D02*
Y325612D01*
Y322504D02*
Y323934D01*
Y324326D02*
Y324889D01*
X699181Y323934D02*
Y324326D01*
Y322504D02*
Y323934D01*
X698118D02*
Y324326D01*
Y325612D02*
Y326402D01*
X680826Y371146D02*
X681389D01*
X682112D01*
X682901D01*
X678964Y371185D02*
Y372169D01*
X681389Y372209D02*
X682112D01*
X679004D02*
X680434D01*
X680826D02*
X681389D01*
X680434Y371146D02*
X680826D01*
X679004D02*
X680434D01*
Y372209D02*
X680826D01*
X682112D02*
X682901D01*
X680826Y359335D02*
X681389D01*
X682112D01*
X682901D01*
X678964Y359374D02*
Y360358D01*
X681389Y360398D02*
X682112D01*
X679004D02*
X680434D01*
X680826D02*
X681389D01*
X680434Y359335D02*
X680826D01*
X679004D02*
X680434D01*
Y360398D02*
X680826D01*
X682112D02*
X682901D01*
X680826Y337681D02*
X681389D01*
X682112D01*
X682901D01*
X678964Y337720D02*
Y338705D01*
X681389Y338744D02*
X682112D01*
X679004D02*
X680434D01*
X680826D02*
X681389D01*
X680434Y337681D02*
X680826D01*
X679004D02*
X680434D01*
Y338744D02*
X680826D01*
X682112D02*
X682901D01*
X700087Y383032D02*
Y383595D01*
Y382310D02*
Y383032D01*
Y381520D02*
Y382310D01*
X700126Y385457D02*
X701110D01*
X701150Y382310D02*
Y383032D01*
Y383987D02*
Y385417D01*
Y383032D02*
Y383595D01*
X700087D02*
Y383987D01*
Y385417D01*
X701150Y383595D02*
Y383987D01*
Y381520D02*
Y382310D01*
X721740Y383032D02*
Y383595D01*
Y382310D02*
Y383032D01*
Y381520D02*
Y382310D01*
X721779Y385457D02*
X722764D01*
X722803Y382310D02*
Y383032D01*
Y383987D02*
Y385417D01*
Y383032D02*
Y383595D01*
X721740D02*
Y383987D01*
Y385417D01*
X722803Y383595D02*
Y383987D01*
Y381520D02*
Y382310D01*
X739532Y370240D02*
X740095D01*
X738810D02*
X739532D01*
X738020D02*
X738810D01*
X741957Y369216D02*
Y370201D01*
X738810Y369177D02*
X739532D01*
X740487D02*
X741917D01*
X739532D02*
X740095D01*
Y370240D02*
X740487D01*
X741917D01*
X740095Y369177D02*
X740487D01*
X738020D02*
X738810D01*
X739532Y348587D02*
X740095D01*
X738810D02*
X739532D01*
X738020D02*
X738810D01*
X741957Y347563D02*
Y348547D01*
X738810Y347524D02*
X739532D01*
X740487D02*
X741917D01*
X739532D02*
X740095D01*
Y348587D02*
X740487D01*
X741917D01*
X740095Y347524D02*
X740487D01*
X738020D02*
X738810D01*
X732646Y324326D02*
Y324889D01*
Y325612D01*
Y326402D01*
X731622Y322465D02*
X732606D01*
X731583Y324889D02*
Y325612D01*
Y322504D02*
Y323934D01*
Y324326D02*
Y324889D01*
X732646Y323934D02*
Y324326D01*
Y322504D02*
Y323934D01*
X731583D02*
Y324326D01*
Y325612D02*
Y326402D01*
X710992Y324326D02*
Y324889D01*
Y325612D01*
Y326402D01*
X709968Y322465D02*
X710953D01*
X709929Y324889D02*
Y325612D01*
Y322504D02*
Y323934D01*
Y324326D02*
Y324889D01*
X710992Y323934D02*
Y324326D01*
Y322504D02*
Y323934D01*
X709929D02*
Y324326D01*
Y325612D02*
Y326402D01*
X689338Y324326D02*
Y324889D01*
Y325612D01*
Y326402D01*
X688315Y322465D02*
X689299D01*
X688275Y324889D02*
Y325612D01*
Y322504D02*
Y323934D01*
Y324326D02*
Y324889D01*
X689338Y323934D02*
Y324326D01*
Y322504D02*
Y323934D01*
X688275D02*
Y324326D01*
Y325612D02*
Y326402D01*
Y383032D02*
Y383595D01*
Y382310D02*
Y383032D01*
Y381520D02*
Y382310D01*
X688315Y385457D02*
X689299D01*
X689338Y382310D02*
Y383032D01*
Y383987D02*
Y385417D01*
Y383032D02*
Y383595D01*
X688275D02*
Y383987D01*
Y385417D01*
X689338Y383595D02*
Y383987D01*
Y381520D02*
Y382310D01*
X680826Y347524D02*
X681389D01*
X682112D01*
X682901D01*
X678964Y347563D02*
Y348547D01*
X681389Y348587D02*
X682112D01*
X679004D02*
X680434D01*
X680826D02*
X681389D01*
X680434Y347524D02*
X680826D01*
X679004D02*
X680434D01*
Y348587D02*
X680826D01*
X682112D02*
X682901D01*
X709929Y383032D02*
Y383595D01*
Y382310D02*
Y383032D01*
Y381520D02*
Y382310D01*
X709968Y385457D02*
X710953D01*
X710992Y382310D02*
Y383032D01*
Y383987D02*
Y385417D01*
Y383032D02*
Y383595D01*
X709929D02*
Y383987D01*
Y385417D01*
X710992Y383595D02*
Y383987D01*
Y381520D02*
Y382310D01*
X731583Y383032D02*
Y383595D01*
Y382310D02*
Y383032D01*
Y381520D02*
Y382310D01*
X731622Y385457D02*
X732606D01*
X732646Y382310D02*
Y383032D01*
Y383987D02*
Y385417D01*
Y383032D02*
Y383595D01*
X731583D02*
Y383987D01*
Y385417D01*
X732646Y383595D02*
Y383987D01*
Y381520D02*
Y382310D01*
X739532Y360398D02*
X740095D01*
X738810D02*
X739532D01*
X738020D02*
X738810D01*
X741957Y359374D02*
Y360358D01*
X738810Y359335D02*
X739532D01*
X740487D02*
X741917D01*
X739532D02*
X740095D01*
Y360398D02*
X740487D01*
X741917D01*
X740095Y359335D02*
X740487D01*
X738020D02*
X738810D01*
X739532Y338744D02*
X740095D01*
X738810D02*
X739532D01*
X738020D02*
X738810D01*
X741957Y337720D02*
Y338705D01*
X738810Y337681D02*
X739532D01*
X740487D02*
X741917D01*
X739532D02*
X740095D01*
Y338744D02*
X740487D01*
X741917D01*
X740095Y337681D02*
X740487D01*
X738020D02*
X738810D01*
X722803Y324326D02*
Y324889D01*
Y325612D01*
Y326402D01*
X721779Y322465D02*
X722764D01*
X721740Y324889D02*
Y325612D01*
Y322504D02*
Y323934D01*
Y324326D02*
Y324889D01*
X722803Y323934D02*
Y324326D01*
Y322504D02*
Y323934D01*
X721740D02*
Y324326D01*
Y325612D02*
Y326402D01*
X701150Y324326D02*
Y324889D01*
Y325612D01*
Y326402D01*
X700126Y322465D02*
X701110D01*
X700087Y324889D02*
Y325612D01*
Y322504D02*
Y323934D01*
Y324326D02*
Y324889D01*
X701150Y323934D02*
Y324326D01*
Y322504D02*
Y323934D01*
X700087D02*
Y324326D01*
Y325612D02*
Y326402D01*
X680826Y369177D02*
X681389D01*
X682112D01*
X682901D01*
X678964Y369216D02*
Y370201D01*
X681389Y370240D02*
X682112D01*
X679004D02*
X680434D01*
X680826D02*
X681389D01*
X680434Y369177D02*
X680826D01*
X679004D02*
X680434D01*
Y370240D02*
X680826D01*
X682112D02*
X682901D01*
X680826Y357366D02*
X681389D01*
X682112D01*
X682901D01*
X678964Y357405D02*
Y358390D01*
X681389Y358429D02*
X682112D01*
X679004D02*
X680434D01*
X680826D02*
X681389D01*
X680434Y357366D02*
X680826D01*
X679004D02*
X680434D01*
Y358429D02*
X680826D01*
X682112D02*
X682901D01*
X680826Y335713D02*
X681389D01*
X682112D01*
X682901D01*
X678964Y335752D02*
Y336736D01*
X681389Y336776D02*
X682112D01*
X679004D02*
X680434D01*
X680826D02*
X681389D01*
X680434Y335713D02*
X680826D01*
X679004D02*
X680434D01*
Y336776D02*
X680826D01*
X682112D02*
X682901D01*
X698118Y383032D02*
Y383595D01*
Y382310D02*
Y383032D01*
Y381520D02*
Y382310D01*
X698157Y385457D02*
X699142D01*
X699181Y382310D02*
Y383032D01*
Y383987D02*
Y385417D01*
Y383032D02*
Y383595D01*
X698118D02*
Y383987D01*
Y385417D01*
X699181Y383595D02*
Y383987D01*
Y381520D02*
Y382310D01*
X719772Y383032D02*
Y383595D01*
Y382310D02*
Y383032D01*
Y381520D02*
Y382310D01*
X719811Y385457D02*
X720795D01*
X720835Y382310D02*
Y383032D01*
Y383987D02*
Y385417D01*
Y383032D02*
Y383595D01*
X719772D02*
Y383987D01*
Y385417D01*
X720835Y383595D02*
Y383987D01*
Y381520D02*
Y382310D01*
X739532Y372209D02*
X740095D01*
X738810D02*
X739532D01*
X738020D02*
X738810D01*
X741957Y371185D02*
Y372169D01*
X738810Y371146D02*
X739532D01*
X740487D02*
X741917D01*
X739532D02*
X740095D01*
Y372209D02*
X740487D01*
X741917D01*
X740095Y371146D02*
X740487D01*
X738020D02*
X738810D01*
X739532Y350555D02*
X740095D01*
X738810D02*
X739532D01*
X738020D02*
X738810D01*
X741957Y349531D02*
Y350516D01*
X738810Y349492D02*
X739532D01*
X740487D02*
X741917D01*
X739532D02*
X740095D01*
Y350555D02*
X740487D01*
X741917D01*
X740095Y349492D02*
X740487D01*
X738020D02*
X738810D01*
X734614Y324326D02*
Y324889D01*
Y325612D01*
Y326402D01*
X733590Y322465D02*
X734575D01*
X733551Y324889D02*
Y325612D01*
Y322504D02*
Y323934D01*
Y324326D02*
Y324889D01*
X734614Y323934D02*
Y324326D01*
Y322504D02*
Y323934D01*
X733551D02*
Y324326D01*
Y325612D02*
Y326402D01*
X712961Y324326D02*
Y324889D01*
Y325612D01*
Y326402D01*
X711937Y322465D02*
X712921D01*
X711898Y324889D02*
Y325612D01*
Y322504D02*
Y323934D01*
Y324326D02*
Y324889D01*
X712961Y323934D02*
Y324326D01*
Y322504D02*
Y323934D01*
X711898D02*
Y324326D01*
Y325612D02*
Y326402D01*
X691307Y324326D02*
Y324889D01*
Y325612D01*
Y326402D01*
X690283Y322465D02*
X691268D01*
X690244Y324889D02*
Y325612D01*
Y322504D02*
Y323934D01*
Y324326D02*
Y324889D01*
X691307Y323934D02*
Y324326D01*
Y322504D02*
Y323934D01*
X690244D02*
Y324326D01*
Y325612D02*
Y326402D01*
X686307Y383032D02*
Y383595D01*
Y382310D02*
Y383032D01*
Y381520D02*
Y382310D01*
X686346Y385457D02*
X687331D01*
X687370Y382310D02*
Y383032D01*
Y383987D02*
Y385417D01*
Y383032D02*
Y383595D01*
X686307D02*
Y383987D01*
Y385417D01*
X687370Y383595D02*
Y383987D01*
Y381520D02*
Y382310D01*
X680826Y345555D02*
X681389D01*
X682112D01*
X682901D01*
X678964Y345594D02*
Y346579D01*
X681389Y346618D02*
X682112D01*
X679004D02*
X680434D01*
X680826D02*
X681389D01*
X680434Y345555D02*
X680826D01*
X679004D02*
X680434D01*
Y346618D02*
X680826D01*
X682112D02*
X682901D01*
X707961Y383032D02*
Y383595D01*
Y382310D02*
Y383032D01*
Y381520D02*
Y382310D01*
X708000Y385457D02*
X708984D01*
X709024Y382310D02*
Y383032D01*
Y383987D02*
Y385417D01*
Y383032D02*
Y383595D01*
X707961D02*
Y383987D01*
Y385417D01*
X709024Y383595D02*
Y383987D01*
Y381520D02*
Y382310D01*
X739532Y356461D02*
X740095D01*
X738810D02*
X739532D01*
X738020D02*
X738810D01*
X741957Y355437D02*
Y356421D01*
X738810Y355398D02*
X739532D01*
X740487D02*
X741917D01*
X739532D02*
X740095D01*
Y356461D02*
X740487D01*
X741917D01*
X740095Y355398D02*
X740487D01*
X738020D02*
X738810D01*
X729614Y383032D02*
Y383595D01*
Y382310D02*
Y383032D01*
Y381520D02*
Y382310D01*
X729653Y385457D02*
X730638D01*
X730677Y382310D02*
Y383032D01*
Y383987D02*
Y385417D01*
Y383032D02*
Y383595D01*
X729614D02*
Y383987D01*
Y385417D01*
X730677Y383595D02*
Y383987D01*
Y381520D02*
Y382310D01*
X739532Y362366D02*
X740095D01*
X738810D02*
X739532D01*
X738020D02*
X738810D01*
X741957Y361342D02*
Y362327D01*
X738810Y361303D02*
X739532D01*
X740487D02*
X741917D01*
X739532D02*
X740095D01*
Y362366D02*
X740487D01*
X741917D01*
X740095Y361303D02*
X740487D01*
X738020D02*
X738810D01*
X739532Y340713D02*
X740095D01*
X738810D02*
X739532D01*
X738020D02*
X738810D01*
X741957Y339689D02*
Y340673D01*
X738810Y339650D02*
X739532D01*
X740487D02*
X741917D01*
X739532D02*
X740095D01*
Y340713D02*
X740487D01*
X741917D01*
X740095Y339650D02*
X740487D01*
X738020D02*
X738810D01*
X724772Y324326D02*
Y324889D01*
Y325612D01*
Y326402D01*
X723748Y322465D02*
X724732D01*
X723709Y324889D02*
Y325612D01*
Y322504D02*
Y323934D01*
Y324326D02*
Y324889D01*
X724772Y323934D02*
Y324326D01*
Y322504D02*
Y323934D01*
X723709D02*
Y324326D01*
Y325612D02*
Y326402D01*
X703118Y324326D02*
Y324889D01*
Y325612D01*
Y326402D01*
X702094Y322465D02*
X703079D01*
X702055Y324889D02*
Y325612D01*
Y322504D02*
Y323934D01*
Y324326D02*
Y324889D01*
X703118Y323934D02*
Y324326D01*
Y322504D02*
Y323934D01*
X702055D02*
Y324326D01*
Y325612D02*
Y326402D01*
X680826Y367209D02*
X681389D01*
X682112D01*
X682901D01*
X678964Y367248D02*
Y368232D01*
X681389Y368272D02*
X682112D01*
X679004D02*
X680434D01*
X680826D02*
X681389D01*
X680434Y367209D02*
X680826D01*
X679004D02*
X680434D01*
Y368272D02*
X680826D01*
X682112D02*
X682901D01*
X680826Y355398D02*
X681389D01*
X682112D01*
X682901D01*
X678964Y355437D02*
Y356421D01*
X681389Y356461D02*
X682112D01*
X679004D02*
X680434D01*
X680826D02*
X681389D01*
X680434Y355398D02*
X680826D01*
X679004D02*
X680434D01*
Y356461D02*
X680826D01*
X682112D02*
X682901D01*
X680826Y333744D02*
X681389D01*
X682112D01*
X682901D01*
X678964Y333783D02*
Y334768D01*
X681389Y334807D02*
X682112D01*
X679004D02*
X680434D01*
X680826D02*
X681389D01*
X680434Y333744D02*
X680826D01*
X679004D02*
X680434D01*
Y334807D02*
X680826D01*
X682112D02*
X682901D01*
X696150Y383032D02*
Y383595D01*
Y382310D02*
Y383032D01*
Y381520D02*
Y382310D01*
X696189Y385457D02*
X697173D01*
X697213Y382310D02*
Y383032D01*
Y383987D02*
Y385417D01*
Y383032D02*
Y383595D01*
X696150D02*
Y383987D01*
Y385417D01*
X697213Y383595D02*
Y383987D01*
Y381520D02*
Y382310D01*
X717803Y383032D02*
Y383595D01*
Y382310D02*
Y383032D01*
Y381520D02*
Y382310D01*
X717842Y385457D02*
X718827D01*
X718866Y382310D02*
Y383032D01*
Y383987D02*
Y385417D01*
Y383032D02*
Y383595D01*
X717803D02*
Y383987D01*
Y385417D01*
X718866Y383595D02*
Y383987D01*
Y381520D02*
Y382310D01*
X739532Y374177D02*
X740095D01*
X738810D02*
X739532D01*
X738020D02*
X738810D01*
X741957Y373153D02*
Y374138D01*
X738810Y373114D02*
X739532D01*
X740487D02*
X741917D01*
X739532D02*
X740095D01*
Y374177D02*
X740487D01*
X741917D01*
X740095Y373114D02*
X740487D01*
X738020D02*
X738810D01*
X739532Y352524D02*
X740095D01*
X738810D02*
X739532D01*
X738020D02*
X738810D01*
X741957Y351500D02*
Y352484D01*
X738810Y351461D02*
X739532D01*
X740487D02*
X741917D01*
X739532D02*
X740095D01*
Y352524D02*
X740487D01*
X741917D01*
X740095Y351461D02*
X740487D01*
X738020D02*
X738810D01*
X739532Y330870D02*
X740095D01*
X738810D02*
X739532D01*
X738020D02*
X738810D01*
X741957Y329846D02*
Y330831D01*
X738810Y329807D02*
X739532D01*
X740487D02*
X741917D01*
X739532D02*
X740095D01*
Y330870D02*
X740487D01*
X741917D01*
X740095Y329807D02*
X740487D01*
X738020D02*
X738810D01*
X714929Y324326D02*
Y324889D01*
Y325612D01*
Y326402D01*
X713905Y322465D02*
X714890D01*
X713866Y324889D02*
Y325612D01*
Y322504D02*
Y323934D01*
Y324326D02*
Y324889D01*
X714929Y323934D02*
Y324326D01*
Y322504D02*
Y323934D01*
X713866D02*
Y324326D01*
Y325612D02*
Y326402D01*
X693275Y324326D02*
Y324889D01*
Y325612D01*
Y326402D01*
X692252Y322465D02*
X693236D01*
X692213Y324889D02*
Y325612D01*
Y322504D02*
Y323934D01*
Y324326D02*
Y324889D01*
X693275Y323934D02*
Y324326D01*
Y322504D02*
Y323934D01*
X692213D02*
Y324326D01*
Y325612D02*
Y326402D01*
X680826Y377051D02*
X681389D01*
X682112D01*
X682901D01*
X678964Y377091D02*
Y378075D01*
X681389Y378114D02*
X682112D01*
X679004D02*
X680434D01*
X680826D02*
X681389D01*
X680434Y377051D02*
X680826D01*
X679004D02*
X680434D01*
Y378114D02*
X680826D01*
X682112D02*
X682901D01*
X680826Y343587D02*
X681389D01*
X682112D01*
X682901D01*
X678964Y343626D02*
Y344610D01*
X681389Y344650D02*
X682112D01*
X679004D02*
X680434D01*
X680826D02*
X681389D01*
X680434Y343587D02*
X680826D01*
X679004D02*
X680434D01*
Y344650D02*
X680826D01*
X682112D02*
X682901D01*
X705992Y383032D02*
Y383595D01*
Y382310D02*
Y383032D01*
Y381520D02*
Y382310D01*
X706031Y385457D02*
X707016D01*
X707055Y382310D02*
Y383032D01*
Y383987D02*
Y385417D01*
Y383032D02*
Y383595D01*
X705992D02*
Y383987D01*
Y385417D01*
X707055Y383595D02*
Y383987D01*
Y381520D02*
Y382310D01*
X727646Y383032D02*
Y383595D01*
Y382310D02*
Y383032D01*
Y381520D02*
Y382310D01*
X727685Y385457D02*
X728669D01*
X728709Y382310D02*
Y383032D01*
Y383987D02*
Y385417D01*
Y383032D02*
Y383595D01*
X727646D02*
Y383987D01*
Y385417D01*
X728709Y383595D02*
Y383987D01*
Y381520D02*
Y382310D01*
X739532Y364335D02*
X740095D01*
X738810D02*
X739532D01*
X738020D02*
X738810D01*
X741957Y363311D02*
Y364295D01*
X738810Y363272D02*
X739532D01*
X740487D02*
X741917D01*
X739532D02*
X740095D01*
Y364335D02*
X740487D01*
X741917D01*
X740095Y363272D02*
X740487D01*
X738020D02*
X738810D01*
X739532Y342681D02*
X740095D01*
X738810D02*
X739532D01*
X738020D02*
X738810D01*
X741957Y341657D02*
Y342642D01*
X738810Y341618D02*
X739532D01*
X740487D02*
X741917D01*
X739532D02*
X740095D01*
Y342681D02*
X740487D01*
X741917D01*
X740095Y341618D02*
X740487D01*
X738020D02*
X738810D01*
X726740Y324326D02*
Y324889D01*
Y325612D01*
Y326402D01*
X725716Y322465D02*
X726701D01*
X725677Y324889D02*
Y325612D01*
Y322504D02*
Y323934D01*
Y324326D02*
Y324889D01*
X726740Y323934D02*
Y324326D01*
Y322504D02*
Y323934D01*
X725677D02*
Y324326D01*
Y325612D02*
Y326402D01*
X705087Y324326D02*
Y324889D01*
Y325612D01*
Y326402D01*
X704063Y322465D02*
X705047D01*
X704024Y324889D02*
Y325612D01*
Y322504D02*
Y323934D01*
Y324326D02*
Y324889D01*
X705087Y323934D02*
Y324326D01*
Y322504D02*
Y323934D01*
X704024D02*
Y324326D01*
Y325612D02*
Y326402D01*
X680826Y365240D02*
X681389D01*
X682112D01*
X682901D01*
X678964Y365279D02*
Y366264D01*
X681389Y366303D02*
X682112D01*
X679004D02*
X680434D01*
X680826D02*
X681389D01*
X680434Y365240D02*
X680826D01*
X679004D02*
X680434D01*
Y366303D02*
X680826D01*
X682112D02*
X682901D01*
X680826Y331776D02*
X681389D01*
X682112D01*
X682901D01*
X678964Y331815D02*
Y332799D01*
X681389Y332839D02*
X682112D01*
X679004D02*
X680434D01*
X680826D02*
X681389D01*
X680434Y331776D02*
X680826D01*
X679004D02*
X680434D01*
Y332839D02*
X680826D01*
X682112D02*
X682901D01*
X694181Y383032D02*
Y383595D01*
Y382310D02*
Y383032D01*
Y381520D02*
Y382310D01*
X694220Y385457D02*
X695205D01*
X695244Y382310D02*
Y383032D01*
Y383987D02*
Y385417D01*
Y383032D02*
Y383595D01*
X694181D02*
Y383987D01*
Y385417D01*
X695244Y383595D02*
Y383987D01*
Y381520D02*
Y382310D01*
X680826Y353429D02*
X681389D01*
X682112D01*
X682901D01*
X678964Y353468D02*
Y354453D01*
X681389Y354492D02*
X682112D01*
X679004D02*
X680434D01*
X680826D02*
X681389D01*
X680434Y353429D02*
X680826D01*
X679004D02*
X680434D01*
Y354492D02*
X680826D01*
X682112D02*
X682901D01*
X715835Y383032D02*
Y383595D01*
Y382310D02*
Y383032D01*
Y381520D02*
Y382310D01*
X715874Y385457D02*
X716858D01*
X716898Y382310D02*
Y383032D01*
Y383987D02*
Y385417D01*
Y383032D02*
Y383595D01*
X715835D02*
Y383987D01*
Y385417D01*
X716898Y383595D02*
Y383987D01*
Y381520D02*
Y382310D01*
X739532Y376146D02*
X740095D01*
X738810D02*
X739532D01*
X738020D02*
X738810D01*
X741957Y375122D02*
Y376106D01*
X738810Y375083D02*
X739532D01*
X740487D02*
X741917D01*
X739532D02*
X740095D01*
Y376146D02*
X740487D01*
X741917D01*
X740095Y375083D02*
X740487D01*
X738020D02*
X738810D01*
X739532Y354492D02*
X740095D01*
X738810D02*
X739532D01*
X738020D02*
X738810D01*
X741957Y353468D02*
Y354453D01*
X738810Y353429D02*
X739532D01*
X740487D02*
X741917D01*
X739532D02*
X740095D01*
Y354492D02*
X740487D01*
X741917D01*
X740095Y353429D02*
X740487D01*
X738020D02*
X738810D01*
X739532Y332839D02*
X740095D01*
X738810D02*
X739532D01*
X738020D02*
X738810D01*
X741957Y331815D02*
Y332799D01*
X738810Y331776D02*
X739532D01*
X740487D02*
X741917D01*
X739532D02*
X740095D01*
Y332839D02*
X740487D01*
X741917D01*
X740095Y331776D02*
X740487D01*
X738020D02*
X738810D01*
X716898Y324326D02*
Y324889D01*
Y325612D01*
Y326402D01*
X715874Y322465D02*
X716858D01*
X715835Y324889D02*
Y325612D01*
Y322504D02*
Y323934D01*
Y324326D02*
Y324889D01*
X716898Y323934D02*
Y324326D01*
Y322504D02*
Y323934D01*
X715835D02*
Y324326D01*
Y325612D02*
Y326402D01*
X695244Y324326D02*
Y324889D01*
Y325612D01*
Y326402D01*
X694220Y322465D02*
X695205D01*
X694181Y324889D02*
Y325612D01*
Y322504D02*
Y323934D01*
Y324326D02*
Y324889D01*
X695244Y323934D02*
Y324326D01*
Y322504D02*
Y323934D01*
X694181D02*
Y324326D01*
Y325612D02*
Y326402D01*
X680826Y375083D02*
X681389D01*
X682112D01*
X682901D01*
X678964Y375122D02*
Y376106D01*
X681389Y376146D02*
X682112D01*
X679004D02*
X680434D01*
X680826D02*
X681389D01*
X680434Y375083D02*
X680826D01*
X679004D02*
X680434D01*
Y376146D02*
X680826D01*
X682112D02*
X682901D01*
X680826Y363272D02*
X681389D01*
X682112D01*
X682901D01*
X678964Y363311D02*
Y364295D01*
X681389Y364335D02*
X682112D01*
X679004D02*
X680434D01*
X680826D02*
X681389D01*
X680434Y363272D02*
X680826D01*
X679004D02*
X680434D01*
Y364335D02*
X680826D01*
X682112D02*
X682901D01*
X680826Y341618D02*
X681389D01*
X682112D01*
X682901D01*
X678964Y341657D02*
Y342642D01*
X681389Y342681D02*
X682112D01*
X679004D02*
X680434D01*
X680826D02*
X681389D01*
X680434Y341618D02*
X680826D01*
X679004D02*
X680434D01*
Y342681D02*
X680826D01*
X682112D02*
X682901D01*
X704024Y383032D02*
Y383595D01*
Y382310D02*
Y383032D01*
Y381520D02*
Y382310D01*
X704063Y385457D02*
X705047D01*
X705087Y382310D02*
Y383032D01*
Y383987D02*
Y385417D01*
Y383032D02*
Y383595D01*
X704024D02*
Y383987D01*
Y385417D01*
X705087Y383595D02*
Y383987D01*
Y381520D02*
Y382310D01*
X725677Y383032D02*
Y383595D01*
Y382310D02*
Y383032D01*
Y381520D02*
Y382310D01*
X725716Y385457D02*
X726701D01*
X726740Y382310D02*
Y383032D01*
Y383987D02*
Y385417D01*
Y383032D02*
Y383595D01*
X725677D02*
Y383987D01*
Y385417D01*
X726740Y383595D02*
Y383987D01*
Y381520D02*
Y382310D01*
X739532Y366303D02*
X740095D01*
X738810D02*
X739532D01*
X738020D02*
X738810D01*
X741957Y365279D02*
Y366264D01*
X738810Y365240D02*
X739532D01*
X740487D02*
X741917D01*
X739532D02*
X740095D01*
Y366303D02*
X740487D01*
X741917D01*
X740095Y365240D02*
X740487D01*
X738020D02*
X738810D01*
X739532Y344650D02*
X740095D01*
X738810D02*
X739532D01*
X738020D02*
X738810D01*
X741957Y343626D02*
Y344610D01*
X738810Y343587D02*
X739532D01*
X740487D02*
X741917D01*
X739532D02*
X740095D01*
Y344650D02*
X740487D01*
X741917D01*
X740095Y343587D02*
X740487D01*
X738020D02*
X738810D01*
X728709Y324326D02*
Y324889D01*
Y325612D01*
Y326402D01*
X727685Y322465D02*
X728669D01*
X727646Y324889D02*
Y325612D01*
Y322504D02*
Y323934D01*
Y324326D02*
Y324889D01*
X728709Y323934D02*
Y324326D01*
Y322504D02*
Y323934D01*
X727646D02*
Y324326D01*
Y325612D02*
Y326402D01*
X707055Y324326D02*
Y324889D01*
Y325612D01*
Y326402D01*
X706031Y322465D02*
X707016D01*
X705992Y324889D02*
Y325612D01*
Y322504D02*
Y323934D01*
Y324326D02*
Y324889D01*
X707055Y323934D02*
Y324326D01*
Y322504D02*
Y323934D01*
X705992D02*
Y324326D01*
Y325612D02*
Y326402D01*
X680826Y329807D02*
X681389D01*
X682112D01*
X682901D01*
X678964Y329846D02*
Y330831D01*
X681389Y330870D02*
X682112D01*
X679004D02*
X680434D01*
X680826D02*
X681389D01*
X680434Y329807D02*
X680826D01*
X679004D02*
X680434D01*
Y330870D02*
X680826D01*
X682112D02*
X682901D01*
X692213Y383032D02*
Y383595D01*
Y382310D02*
Y383032D01*
Y381520D02*
Y382310D01*
X692252Y385457D02*
X693236D01*
X693275Y382310D02*
Y383032D01*
Y383987D02*
Y385417D01*
Y383032D02*
Y383595D01*
X692213D02*
Y383987D01*
Y385417D01*
X693275Y383595D02*
Y383987D01*
Y381520D02*
Y382310D01*
X680826Y351461D02*
X681389D01*
X682112D01*
X682901D01*
X678964Y351500D02*
Y352484D01*
X681389Y352524D02*
X682112D01*
X679004D02*
X680434D01*
X680826D02*
X681389D01*
X680434Y351461D02*
X680826D01*
X679004D02*
X680434D01*
Y352524D02*
X680826D01*
X682112D02*
X682901D01*
X713866Y383032D02*
Y383595D01*
Y382310D02*
Y383032D01*
Y381520D02*
Y382310D01*
X713905Y385457D02*
X714890D01*
X714929Y382310D02*
Y383032D01*
Y383987D02*
Y385417D01*
Y383032D02*
Y383595D01*
X713866D02*
Y383987D01*
Y385417D01*
X714929Y383595D02*
Y383987D01*
Y381520D02*
Y382310D01*
X739532Y378114D02*
X740095D01*
X738810D02*
X739532D01*
X738020D02*
X738810D01*
X741957Y377091D02*
Y378075D01*
X738810Y377051D02*
X739532D01*
X740487D02*
X741917D01*
X739532D02*
X740095D01*
Y378114D02*
X740487D01*
X741917D01*
X740095Y377051D02*
X740487D01*
X738020D02*
X738810D01*
X737429Y328615D02*
Y379307D01*
X683492Y328615D02*
X685115Y326992D01*
X737429Y379307D02*
X738020Y379551D01*
X682901D02*
X684870Y381520D01*
X738020Y328370D02*
Y379551D01*
X682901Y328370D02*
Y379551D01*
Y328370D02*
X684870Y326402D01*
X735806Y380929D02*
X737429Y379307D01*
X685115Y380929D02*
X735806D01*
X683492Y379307D02*
X685115Y380929D01*
X735806D02*
X736051Y381520D01*
Y326402D02*
X738020Y328370D01*
X735806Y326992D02*
X737429Y328615D01*
X684870Y381520D02*
X685115Y380929D01*
X737429Y328615D02*
X738020Y328370D01*
X684870Y381520D02*
X736051D01*
X684870Y326402D02*
X685115Y326992D01*
X684870Y326402D02*
X736051D01*
X685115Y326992D02*
X735806D01*
X682901Y379551D02*
X683492Y379307D01*
X735806Y326992D02*
X736051Y326402D01*
X683492Y328615D02*
Y379307D01*
X736051Y381520D02*
X738020Y379551D01*
X682901Y328370D02*
X683492Y328615D01*
D66*
X1009095Y224705D02*
G03*
X1009095Y240295I5906J7795D01*
G01*
X1001028Y190937D02*
G03*
X1001028Y190937I-1969J0D01*
G01*
X853839Y489232D02*
G03*
X853839Y489232I-1969J0D01*
G01*
X791839Y490732D02*
G03*
X791839Y490732I-1969J0D01*
G01*
X860988Y425831D02*
X866500D01*
X860988Y434295D02*
X866500D01*
X860988Y425831D02*
Y434295D01*
X866500Y425831D02*
Y434295D01*
X848744Y434232D02*
X854256D01*
X848744Y425768D02*
X854256D01*
Y434232D01*
X848744Y425768D02*
Y434232D01*
X833756Y468268D02*
Y476732D01*
X828244Y468268D02*
Y476732D01*
X833756D01*
X828244Y468268D02*
X833756D01*
X709756Y407784D02*
Y416248D01*
X704244Y407784D02*
Y416248D01*
X709756D01*
X704244Y407784D02*
X709756D01*
X697244Y280768D02*
Y289232D01*
X702756Y280768D02*
Y289232D01*
X697244Y280768D02*
X702756D01*
X697244Y289232D02*
X702756D01*
X724244Y116331D02*
X729756D01*
X724244Y124795D02*
X729756D01*
Y116331D02*
Y124795D01*
X724244Y116331D02*
Y124795D01*
X709744Y116331D02*
X715256D01*
X709744Y124795D02*
X715256D01*
Y116331D02*
Y124795D01*
X709744Y116331D02*
Y124795D01*
X673244Y116768D02*
X678756D01*
X673244Y125232D02*
X678756D01*
Y116768D02*
Y125232D01*
X673244Y116768D02*
Y125232D01*
X657244Y116831D02*
X662756D01*
X657244Y125295D02*
X662756D01*
Y116831D02*
Y125295D01*
X657244Y116831D02*
Y125295D01*
X936957Y176398D02*
X944043D01*
X936957Y188602D02*
X944043D01*
Y176398D02*
Y188602D01*
X936957Y176398D02*
Y188602D01*
X671744Y280768D02*
Y289232D01*
X677256Y280768D02*
Y289232D01*
X671744Y280768D02*
X677256D01*
X671744Y289232D02*
X677256D01*
X973331Y243256D02*
X981795D01*
X973331Y237744D02*
X981795D01*
X973331D02*
Y243256D01*
X981795Y237744D02*
Y243256D01*
X973268Y259256D02*
X981732D01*
X973268Y253744D02*
X981732D01*
X973268D02*
Y259256D01*
X981732Y253744D02*
Y259256D01*
X973268Y269244D02*
X981732D01*
X973268Y274756D02*
X981732D01*
Y269244D02*
Y274756D01*
X973268Y269244D02*
Y274756D01*
X1009094Y224705D02*
Y240295D01*
X1009768Y253744D02*
X1018232D01*
X1009768Y259256D02*
X1018232D01*
Y253744D02*
Y259256D01*
X1009768Y253744D02*
Y259256D01*
X1041744Y264268D02*
Y272732D01*
X1047256Y264268D02*
Y272732D01*
X1041744Y264268D02*
X1047256D01*
X1041744Y272732D02*
X1047256D01*
X1041744Y241831D02*
Y250295D01*
X1047256Y241831D02*
Y250295D01*
X1041744Y241831D02*
X1047256D01*
X1041744Y250295D02*
X1047256D01*
X936055Y162984D02*
X944520D01*
X936055Y168496D02*
X944520D01*
Y162984D02*
Y168496D01*
X936055Y162984D02*
Y168496D01*
X684244Y280768D02*
Y289232D01*
X689756Y280768D02*
Y289232D01*
X684244Y280768D02*
X689756D01*
X684244Y289232D02*
X689756D01*
X1009705Y275256D02*
X1018169D01*
X1009705Y269744D02*
X1018169D01*
X1009705D02*
Y275256D01*
X1018169Y269744D02*
Y275256D01*
X995516Y154520D02*
Y194480D01*
X1022484Y154520D02*
Y194480D01*
X995516D02*
X1022484D01*
X995516Y154520D02*
X1022484D01*
X913268Y178744D02*
X921732D01*
X913268Y184256D02*
X921732D01*
Y178744D02*
Y184256D01*
X913268Y178744D02*
Y184256D01*
X784669Y512744D02*
Y518256D01*
X776205Y512744D02*
Y518256D01*
Y512744D02*
X784669D01*
X776205Y518256D02*
X784669D01*
X784795Y537244D02*
Y542756D01*
X776331Y537244D02*
Y542756D01*
Y537244D02*
X784795D01*
X776331Y542756D02*
X784795D01*
X707295Y512244D02*
Y517756D01*
X698831Y512244D02*
Y517756D01*
Y512244D02*
X707295D01*
X698831Y517756D02*
X707295D01*
X707169Y456244D02*
Y461756D01*
X698705Y456244D02*
Y461756D01*
Y456244D02*
X707169D01*
X698705Y461756D02*
X707169D01*
X707232Y485126D02*
Y490638D01*
X698768Y485126D02*
Y490638D01*
Y485126D02*
X707232D01*
X698768Y490638D02*
X707232D01*
X707295Y536744D02*
Y542256D01*
X698831Y536744D02*
Y542256D01*
Y536744D02*
X707295D01*
X698831Y542256D02*
X707295D01*
X810756Y326205D02*
Y334669D01*
X805244Y326205D02*
Y334669D01*
X810756D01*
X805244Y326205D02*
X810756D01*
X797756Y325831D02*
Y334295D01*
X792244Y325831D02*
Y334295D01*
X797756D01*
X792244Y325831D02*
X797756D01*
X715256Y280768D02*
Y289232D01*
X709744Y280768D02*
Y289232D01*
X715256D01*
X709744Y280768D02*
X715256D01*
X654744Y329768D02*
Y338232D01*
X660256Y329768D02*
Y338232D01*
X654744Y329768D02*
X660256D01*
X654744Y338232D02*
X660256D01*
X691244Y407847D02*
Y416311D01*
X696756Y407847D02*
Y416311D01*
X691244Y407847D02*
X696756D01*
X691244Y416311D02*
X696756D01*
X779744Y325768D02*
Y334232D01*
X785256Y325768D02*
Y334232D01*
X779744Y325768D02*
X785256D01*
X779744Y334232D02*
X785256D01*
X767744Y325768D02*
Y334232D01*
X773256Y325768D02*
Y334232D01*
X767744Y325768D02*
X773256D01*
X767744Y334232D02*
X773256D01*
X848327Y452224D02*
X876673D01*
X848327Y492776D02*
X876673D01*
Y452224D02*
Y492776D01*
X848327Y452224D02*
Y492776D01*
X786327Y453724D02*
X814673D01*
X786327Y494276D02*
X814673D01*
Y453724D02*
Y494276D01*
X786327Y453724D02*
Y494276D01*
M02*
