G04*
G04 #@! TF.GenerationSoftware,Altium Limited,Altium Designer,18.1.6 (161)*
G04*
G04 Layer_Color=255*
%FSLAX25Y25*%
%MOIN*%
G70*
G01*
G75*
%ADD16R,0.05906X0.05512*%
%ADD17R,0.05118X0.02756*%
%ADD18R,0.05512X0.05906*%
%ADD19O,0.01181X0.08071*%
%ADD20O,0.08071X0.01181*%
%ADD44C,0.05512*%
%ADD45C,0.05906*%
%ADD46R,0.05906X0.05906*%
%ADD47R,0.05906X0.05906*%
%ADD48C,0.04724*%
%ADD49R,0.04724X0.04724*%
%ADD50R,0.04724X0.04724*%
%ADD51C,0.05906*%
%ADD52O,0.07874X0.15748*%
%ADD53O,0.15748X0.07874*%
%ADD54O,0.17717X0.07874*%
%ADD55O,0.07874X0.03937*%
%ADD56O,0.07874X0.03937*%
%ADD57C,0.30000*%
D16*
X863744Y426126D02*
D03*
Y434000D02*
D03*
X851500Y433937D02*
D03*
Y426063D02*
D03*
X831000Y476437D02*
D03*
Y468563D02*
D03*
X707000Y415953D02*
D03*
Y408079D02*
D03*
X700000Y281063D02*
D03*
Y288937D02*
D03*
X727000Y116626D02*
D03*
Y124500D02*
D03*
X712500Y116626D02*
D03*
Y124500D02*
D03*
X676000Y117063D02*
D03*
Y124937D02*
D03*
X660000Y117126D02*
D03*
Y125000D02*
D03*
X674500Y281063D02*
D03*
Y288937D02*
D03*
X1044500Y264563D02*
D03*
Y272437D02*
D03*
Y242126D02*
D03*
Y250000D02*
D03*
X687000Y281063D02*
D03*
Y288937D02*
D03*
X808000Y334374D02*
D03*
Y326500D02*
D03*
X795000Y334000D02*
D03*
Y326126D02*
D03*
X712500Y288937D02*
D03*
Y281063D02*
D03*
X657500Y330063D02*
D03*
Y337937D02*
D03*
X694000Y408142D02*
D03*
Y416016D02*
D03*
X782500Y326063D02*
D03*
Y333937D02*
D03*
X770500Y326063D02*
D03*
Y333937D02*
D03*
D17*
X945224Y186240D02*
D03*
Y182500D02*
D03*
Y178760D02*
D03*
X935776D02*
D03*
Y182500D02*
D03*
Y186240D02*
D03*
D18*
X973626Y240500D02*
D03*
X981500D02*
D03*
X973563Y256500D02*
D03*
X981437D02*
D03*
Y272000D02*
D03*
X973563D02*
D03*
X1017937Y256500D02*
D03*
X1010063D02*
D03*
X944224Y165740D02*
D03*
X936350D02*
D03*
X1010000Y272500D02*
D03*
X1017874D02*
D03*
X921437Y181500D02*
D03*
X913563D02*
D03*
X784374Y515500D02*
D03*
X776500D02*
D03*
X784500Y540000D02*
D03*
X776626D02*
D03*
X707000Y515000D02*
D03*
X699126D02*
D03*
X706874Y459000D02*
D03*
X699000D02*
D03*
X706937Y487882D02*
D03*
X699063D02*
D03*
X707000Y539500D02*
D03*
X699126D02*
D03*
D19*
X734122Y323980D02*
D03*
X732153D02*
D03*
X730185D02*
D03*
X728216D02*
D03*
X726248D02*
D03*
X724279D02*
D03*
X722311D02*
D03*
X720342D02*
D03*
X718374D02*
D03*
X716405D02*
D03*
X714437D02*
D03*
X712468D02*
D03*
X710500D02*
D03*
X708531D02*
D03*
X706563D02*
D03*
X704594D02*
D03*
X702626D02*
D03*
X700657D02*
D03*
X698689D02*
D03*
X696720D02*
D03*
X694752D02*
D03*
X692783D02*
D03*
X690815D02*
D03*
X688846D02*
D03*
X686878D02*
D03*
Y384020D02*
D03*
X688846D02*
D03*
X690815D02*
D03*
X692783D02*
D03*
X694752D02*
D03*
X696720D02*
D03*
X698689D02*
D03*
X700657D02*
D03*
X702626D02*
D03*
X704594D02*
D03*
X706563D02*
D03*
X708531D02*
D03*
X710500D02*
D03*
X712468D02*
D03*
X714437D02*
D03*
X716405D02*
D03*
X718374D02*
D03*
X720342D02*
D03*
X722311D02*
D03*
X724279D02*
D03*
X726248D02*
D03*
X728216D02*
D03*
X730185D02*
D03*
X732153D02*
D03*
X734122D02*
D03*
D20*
X680480Y330378D02*
D03*
Y332346D02*
D03*
Y334315D02*
D03*
Y336283D02*
D03*
Y338252D02*
D03*
Y340220D02*
D03*
Y342189D02*
D03*
Y344157D02*
D03*
Y346126D02*
D03*
Y348094D02*
D03*
Y350063D02*
D03*
Y352031D02*
D03*
Y354000D02*
D03*
Y355968D02*
D03*
Y357937D02*
D03*
Y359905D02*
D03*
Y361874D02*
D03*
Y363842D02*
D03*
Y365811D02*
D03*
Y367779D02*
D03*
Y369748D02*
D03*
Y371716D02*
D03*
Y373685D02*
D03*
Y375653D02*
D03*
Y377622D02*
D03*
X740520D02*
D03*
Y375653D02*
D03*
Y373685D02*
D03*
Y371716D02*
D03*
Y369748D02*
D03*
Y367779D02*
D03*
Y365811D02*
D03*
Y363842D02*
D03*
Y361874D02*
D03*
Y359905D02*
D03*
Y357937D02*
D03*
Y355968D02*
D03*
Y354000D02*
D03*
Y352031D02*
D03*
Y350063D02*
D03*
Y348094D02*
D03*
Y346126D02*
D03*
Y344157D02*
D03*
Y342189D02*
D03*
Y340220D02*
D03*
Y338252D02*
D03*
Y336283D02*
D03*
Y334315D02*
D03*
Y332346D02*
D03*
Y330378D02*
D03*
D44*
X876500Y414000D02*
D03*
Y444000D02*
D03*
X932500Y271500D02*
D03*
Y301500D02*
D03*
Y222000D02*
D03*
Y252000D02*
D03*
X768000Y349000D02*
D03*
X798000D02*
D03*
X959724Y162240D02*
D03*
Y192240D02*
D03*
D45*
X378000Y374500D02*
D03*
Y384500D02*
D03*
Y394500D02*
D03*
Y404500D02*
D03*
Y414500D02*
D03*
Y424500D02*
D03*
Y434500D02*
D03*
Y444500D02*
D03*
Y454500D02*
D03*
Y464500D02*
D03*
Y474500D02*
D03*
X827500Y383000D02*
D03*
X970000Y334500D02*
D03*
X1003106Y334063D02*
D03*
X1037500Y334500D02*
D03*
X941000Y332500D02*
D03*
X818000Y133500D02*
D03*
X808000D02*
D03*
X798000D02*
D03*
X788000D02*
D03*
X562000Y132000D02*
D03*
X552000D02*
D03*
X542000D02*
D03*
X532000D02*
D03*
X522000D02*
D03*
X512000D02*
D03*
X502000D02*
D03*
X492000D02*
D03*
X482000D02*
D03*
X472000D02*
D03*
X462000D02*
D03*
X452000D02*
D03*
X442000D02*
D03*
X432000D02*
D03*
X422000D02*
D03*
X412000D02*
D03*
X402000D02*
D03*
X392000D02*
D03*
X382000D02*
D03*
X562000Y222000D02*
D03*
X552000D02*
D03*
X542000D02*
D03*
X532000D02*
D03*
X522000D02*
D03*
X512000D02*
D03*
X502000D02*
D03*
X492000D02*
D03*
X482000D02*
D03*
X472000D02*
D03*
X462000D02*
D03*
X452000D02*
D03*
X442000D02*
D03*
X432000D02*
D03*
X422000D02*
D03*
X412000D02*
D03*
X402000D02*
D03*
X392000D02*
D03*
X382000D02*
D03*
X734500Y209000D02*
D03*
X724500D02*
D03*
X714500D02*
D03*
X704500D02*
D03*
X694500D02*
D03*
X684500D02*
D03*
X674500D02*
D03*
X664500D02*
D03*
X654500D02*
D03*
X644500D02*
D03*
X664500Y139000D02*
D03*
X714500D02*
D03*
X911000Y242000D02*
D03*
Y232000D02*
D03*
Y222000D02*
D03*
Y278000D02*
D03*
Y288000D02*
D03*
X821000Y429000D02*
D03*
X811000D02*
D03*
X801000D02*
D03*
X791000D02*
D03*
X781000D02*
D03*
X771000D02*
D03*
X761000D02*
D03*
X974524Y289000D02*
D03*
X963524Y221500D02*
D03*
X960185Y114465D02*
D03*
Y122339D02*
D03*
X936563Y106591D02*
D03*
X944437D02*
D03*
X994000Y179500D02*
D03*
Y169500D02*
D03*
Y159500D02*
D03*
X1024000Y189500D02*
D03*
Y179500D02*
D03*
Y169500D02*
D03*
Y159500D02*
D03*
X873000Y194500D02*
D03*
X872500Y156000D02*
D03*
X751000Y515000D02*
D03*
X751500Y540000D02*
D03*
X674500Y459000D02*
D03*
X778000Y234500D02*
D03*
Y214500D02*
D03*
Y204500D02*
D03*
Y194500D02*
D03*
Y184500D02*
D03*
Y174500D02*
D03*
Y164500D02*
D03*
Y154500D02*
D03*
Y224500D02*
D03*
X674500Y487500D02*
D03*
Y514500D02*
D03*
Y539500D02*
D03*
X751000Y460000D02*
D03*
Y487500D02*
D03*
X641500D02*
D03*
Y515000D02*
D03*
X642000Y459000D02*
D03*
Y539500D02*
D03*
X877500Y457500D02*
D03*
Y467500D02*
D03*
Y477500D02*
D03*
Y487500D02*
D03*
X847500Y457500D02*
D03*
Y467500D02*
D03*
Y477500D02*
D03*
X815500Y459000D02*
D03*
Y469000D02*
D03*
Y479000D02*
D03*
Y489000D02*
D03*
X785500Y459000D02*
D03*
Y469000D02*
D03*
Y479000D02*
D03*
D46*
X378000Y484500D02*
D03*
X827500Y393000D02*
D03*
X970000Y324500D02*
D03*
X1003106Y324063D02*
D03*
X1037500Y324500D02*
D03*
X911000Y252000D02*
D03*
Y298000D02*
D03*
X873000Y184500D02*
D03*
X872500Y146000D02*
D03*
X778000Y244500D02*
D03*
D47*
X931000Y332500D02*
D03*
X778000Y133500D02*
D03*
X372000Y132000D02*
D03*
Y222000D02*
D03*
X744500Y209000D02*
D03*
X674500Y139000D02*
D03*
X724500D02*
D03*
X831000Y429000D02*
D03*
X1002476Y289000D02*
D03*
X991476Y221500D02*
D03*
X994000Y189500D02*
D03*
X761000Y515000D02*
D03*
X761500Y540000D02*
D03*
X684500Y459000D02*
D03*
Y487500D02*
D03*
Y514500D02*
D03*
Y539500D02*
D03*
X761000Y460000D02*
D03*
Y487500D02*
D03*
X651500D02*
D03*
Y515000D02*
D03*
X652000Y459000D02*
D03*
Y539500D02*
D03*
X847500Y487500D02*
D03*
X785500Y489000D02*
D03*
D48*
X611374Y384134D02*
D03*
X603500D02*
D03*
X611374Y392008D02*
D03*
X603500D02*
D03*
X611374Y399882D02*
D03*
X603500D02*
D03*
X611374Y407756D02*
D03*
X603500D02*
D03*
X611374Y415630D02*
D03*
X603500D02*
D03*
X611374Y423504D02*
D03*
X603500D02*
D03*
X611374Y431378D02*
D03*
X603500D02*
D03*
X611374Y439252D02*
D03*
X603500D02*
D03*
X611374Y447126D02*
D03*
X603500D02*
D03*
X611374Y455000D02*
D03*
X603500D02*
D03*
X611374Y462874D02*
D03*
X603500D02*
D03*
X611374Y470748D02*
D03*
X603500D02*
D03*
X611374Y478622D02*
D03*
X603500D02*
D03*
X611374Y486496D02*
D03*
X603500Y376260D02*
D03*
X611374D02*
D03*
X603500Y368386D02*
D03*
X611374D02*
D03*
Y281772D02*
D03*
X603500D02*
D03*
Y360512D02*
D03*
X611374D02*
D03*
X603500Y352638D02*
D03*
X611374D02*
D03*
X603500Y344764D02*
D03*
X611374D02*
D03*
X603500Y336890D02*
D03*
X611374D02*
D03*
X603500Y329016D02*
D03*
X611374D02*
D03*
X603500Y321142D02*
D03*
X611374D02*
D03*
X603500Y313268D02*
D03*
X611374D02*
D03*
X603500Y305394D02*
D03*
X611374D02*
D03*
X603500Y297520D02*
D03*
X611374D02*
D03*
X603500Y289646D02*
D03*
X611374D02*
D03*
X422398D02*
D03*
X414524D02*
D03*
X422398Y297520D02*
D03*
X414524D02*
D03*
X422398Y305394D02*
D03*
X414524D02*
D03*
X422398Y313268D02*
D03*
X414524D02*
D03*
X422398Y321142D02*
D03*
X414524D02*
D03*
X422398Y329016D02*
D03*
X414524D02*
D03*
X422398Y336890D02*
D03*
X414524D02*
D03*
X422398Y344764D02*
D03*
X414524D02*
D03*
X422398Y352638D02*
D03*
X414524D02*
D03*
X422398Y360512D02*
D03*
X414524D02*
D03*
Y281772D02*
D03*
X422398D02*
D03*
Y368386D02*
D03*
X414524D02*
D03*
X422398Y376260D02*
D03*
X414524D02*
D03*
X422398Y486496D02*
D03*
X414524Y478622D02*
D03*
X422398D02*
D03*
X414524Y470748D02*
D03*
X422398D02*
D03*
X414524Y462874D02*
D03*
X422398D02*
D03*
X414524Y455000D02*
D03*
X422398D02*
D03*
X414524Y447126D02*
D03*
X422398D02*
D03*
X414524Y439252D02*
D03*
X422398D02*
D03*
X414524Y431378D02*
D03*
X422398D02*
D03*
X414524Y423504D02*
D03*
X422398D02*
D03*
X414524Y415630D02*
D03*
X422398D02*
D03*
X414524Y407756D02*
D03*
X422398D02*
D03*
X414524Y399882D02*
D03*
X422398D02*
D03*
X414524Y392008D02*
D03*
X422398D02*
D03*
X414524Y384134D02*
D03*
X422398D02*
D03*
X532634Y517992D02*
D03*
Y509496D02*
D03*
X524760Y517992D02*
D03*
Y509496D02*
D03*
X516886Y517992D02*
D03*
Y509496D02*
D03*
X509012Y517992D02*
D03*
Y509496D02*
D03*
X501138Y517992D02*
D03*
Y509496D02*
D03*
X493264Y517992D02*
D03*
Y509496D02*
D03*
X485390Y517992D02*
D03*
Y509496D02*
D03*
X477516Y517992D02*
D03*
Y509496D02*
D03*
X469642Y517992D02*
D03*
Y509496D02*
D03*
X461768Y517992D02*
D03*
Y509496D02*
D03*
X453894Y517992D02*
D03*
Y509496D02*
D03*
X446020Y517992D02*
D03*
Y509496D02*
D03*
X438146Y517992D02*
D03*
Y509496D02*
D03*
X430272Y517992D02*
D03*
Y509496D02*
D03*
X422398Y517992D02*
D03*
Y509496D02*
D03*
X414524Y517992D02*
D03*
X603500Y273898D02*
D03*
X611374D02*
D03*
X422398D02*
D03*
X414524D02*
D03*
X852500Y555500D02*
D03*
X842500D02*
D03*
D49*
X603500Y486496D02*
D03*
X414524D02*
D03*
D50*
Y509496D02*
D03*
X832500Y555500D02*
D03*
D51*
X945421Y131000D02*
D03*
X935579D02*
D03*
D52*
X960185Y118402D02*
D03*
D53*
X940500Y106591D02*
D03*
D54*
Y131000D02*
D03*
D55*
X1029000Y302500D02*
D03*
Y297500D02*
D03*
Y292500D02*
D03*
X1015000Y237500D02*
D03*
Y227500D02*
D03*
D56*
Y232500D02*
D03*
D57*
X269500Y538500D02*
D03*
Y123500D02*
D03*
X1027500D02*
D03*
Y538500D02*
D03*
M02*
