G04*
G04 #@! TF.GenerationSoftware,Altium Limited,Altium Designer,18.1.6 (161)*
G04*
G04 Layer_Color=32768*
%FSLAX25Y25*%
%MOIN*%
G70*
G01*
G75*
%ADD66C,0.00394*%
%ADD67C,0.00197*%
D66*
X858823Y421402D02*
X868665D01*
X858823Y438724D02*
X868665D01*
X858823Y421402D02*
Y438724D01*
X868665Y421402D02*
Y438724D01*
X863744Y428095D02*
Y432032D01*
X861776Y430063D02*
X865713D01*
X846579Y438661D02*
X856421D01*
X846579Y421339D02*
X856421D01*
Y438661D01*
X846579Y421339D02*
Y438661D01*
X851500Y428032D02*
Y431969D01*
X849532Y430000D02*
X853469D01*
X829031Y472500D02*
X832969D01*
X831000Y470531D02*
Y474469D01*
X835921Y463839D02*
Y481161D01*
X826079Y463839D02*
Y481161D01*
X835921D01*
X826079Y463839D02*
X835921D01*
X705031Y412016D02*
X708968D01*
X707000Y410047D02*
Y413984D01*
X711921Y403354D02*
Y420677D01*
X702079Y403354D02*
Y420677D01*
X711921D01*
X702079Y403354D02*
X711921D01*
X698031Y285000D02*
X701969D01*
X700000Y283031D02*
Y286969D01*
X695079Y276339D02*
Y293661D01*
X704921Y276339D02*
Y293661D01*
X695079Y276339D02*
X704921D01*
X695079Y293661D02*
X704921D01*
X722079Y111902D02*
X731921D01*
X722079Y129224D02*
X731921D01*
Y111902D02*
Y129224D01*
X722079Y111902D02*
Y129224D01*
X727000Y118594D02*
Y122531D01*
X725032Y120563D02*
X728969D01*
X707579Y111902D02*
X717421D01*
X707579Y129224D02*
X717421D01*
Y111902D02*
Y129224D01*
X707579Y111902D02*
Y129224D01*
X712500Y118594D02*
Y122531D01*
X710532Y120563D02*
X714469D01*
X671079Y112339D02*
X680921D01*
X671079Y129661D02*
X680921D01*
Y112339D02*
Y129661D01*
X671079Y112339D02*
Y129661D01*
X676000Y119031D02*
Y122969D01*
X674032Y121000D02*
X677969D01*
X655079Y112402D02*
X664921D01*
X655079Y129724D02*
X664921D01*
Y112402D02*
Y129724D01*
X655079Y112402D02*
Y129724D01*
X660000Y119094D02*
Y123031D01*
X658032Y121063D02*
X661969D01*
X940500Y180532D02*
Y184469D01*
X938532Y182500D02*
X942469D01*
X931248Y174429D02*
X949752D01*
X931248Y190571D02*
X949752D01*
Y174429D02*
Y190571D01*
X931248Y174429D02*
Y190571D01*
X672532Y285000D02*
X676469D01*
X674500Y283032D02*
Y286969D01*
X669579Y276339D02*
Y293661D01*
X679421Y276339D02*
Y293661D01*
X669579Y276339D02*
X679421D01*
X669579Y293661D02*
X679421D01*
X977563Y238531D02*
Y242469D01*
X975594Y240500D02*
X979532D01*
X968902Y245421D02*
X986224D01*
X968902Y235579D02*
X986224D01*
X968902D02*
Y245421D01*
X986224Y235579D02*
Y245421D01*
X977500Y254531D02*
Y258469D01*
X975532Y256500D02*
X979469D01*
X968839Y261421D02*
X986161D01*
X968839Y251579D02*
X986161D01*
X968839D02*
Y261421D01*
X986161Y251579D02*
Y261421D01*
X977500Y270032D02*
Y273969D01*
X975531Y272000D02*
X979468D01*
X968839Y267079D02*
X986161D01*
X968839Y276921D02*
X986161D01*
Y267079D02*
Y276921D01*
X968839Y267079D02*
Y276921D01*
X1015000Y230531D02*
Y234469D01*
X1013031Y232500D02*
X1016968D01*
X1014000Y254532D02*
Y258469D01*
X1012031Y256500D02*
X1015968D01*
X1005339Y251579D02*
X1022661D01*
X1005339Y261421D02*
X1022661D01*
Y251579D02*
Y261421D01*
X1005339Y251579D02*
Y261421D01*
X1042531Y268500D02*
X1046469D01*
X1044500Y266531D02*
Y270469D01*
X1039579Y259839D02*
Y277161D01*
X1049421Y259839D02*
Y277161D01*
X1039579Y259839D02*
X1049421D01*
X1039579Y277161D02*
X1049421D01*
X1042531Y246063D02*
X1046469D01*
X1044500Y244095D02*
Y248032D01*
X1039579Y237402D02*
Y254724D01*
X1049421Y237402D02*
Y254724D01*
X1039579Y237402D02*
X1049421D01*
X1039579Y254724D02*
X1049421D01*
X940287Y163772D02*
Y167709D01*
X938319Y165740D02*
X942256D01*
X931626Y160819D02*
X948949D01*
X931626Y170661D02*
X948949D01*
Y160819D02*
Y170661D01*
X931626Y160819D02*
Y170661D01*
X685032Y285000D02*
X688969D01*
X687000Y283032D02*
Y286969D01*
X682079Y276339D02*
Y293661D01*
X691921Y276339D02*
Y293661D01*
X682079Y276339D02*
X691921D01*
X682079Y293661D02*
X691921D01*
X1013937Y270531D02*
Y274468D01*
X1011969Y272500D02*
X1015906D01*
X1005276Y277421D02*
X1022598D01*
X1005276Y267579D02*
X1022598D01*
X1005276D02*
Y277421D01*
X1022598Y267579D02*
Y277421D01*
X1007031Y174500D02*
X1010968D01*
X1009000Y172532D02*
Y176469D01*
X917500Y179531D02*
Y183469D01*
X915531Y181500D02*
X919468D01*
X908839Y176579D02*
X926161D01*
X908839Y186421D02*
X926161D01*
Y176579D02*
Y186421D01*
X908839Y176579D02*
Y186421D01*
X789098Y510579D02*
Y520421D01*
X771776Y510579D02*
Y520421D01*
Y510579D02*
X789098D01*
X771776Y520421D02*
X789098D01*
X778468Y515500D02*
X782406D01*
X780437Y513532D02*
Y517469D01*
X789224Y535079D02*
Y544921D01*
X771902Y535079D02*
Y544921D01*
Y535079D02*
X789224D01*
X771902Y544921D02*
X789224D01*
X778595Y540000D02*
X782532D01*
X780563Y538031D02*
Y541969D01*
X711724Y510079D02*
Y519921D01*
X694402Y510079D02*
Y519921D01*
Y510079D02*
X711724D01*
X694402Y519921D02*
X711724D01*
X701095Y515000D02*
X705032D01*
X703063Y513031D02*
Y516969D01*
X711598Y454079D02*
Y463921D01*
X694276Y454079D02*
Y463921D01*
Y454079D02*
X711598D01*
X694276Y463921D02*
X711598D01*
X700969Y459000D02*
X704906D01*
X702937Y457031D02*
Y460969D01*
X711661Y482961D02*
Y492803D01*
X694339Y482961D02*
Y492803D01*
Y482961D02*
X711661D01*
X694339Y492803D02*
X711661D01*
X701032Y487882D02*
X704969D01*
X703000Y485913D02*
Y489850D01*
X711724Y534579D02*
Y544421D01*
X694402Y534579D02*
Y544421D01*
Y534579D02*
X711724D01*
X694402Y544421D02*
X711724D01*
X701095Y539500D02*
X705032D01*
X703063Y537531D02*
Y541469D01*
X806031Y330437D02*
X809968D01*
X808000Y328468D02*
Y332406D01*
X812921Y321776D02*
Y339098D01*
X803079Y321776D02*
Y339098D01*
X812921D01*
X803079Y321776D02*
X812921D01*
X793031Y330063D02*
X796968D01*
X795000Y328094D02*
Y332032D01*
X799921Y321402D02*
Y338724D01*
X790079Y321402D02*
Y338724D01*
X799921D01*
X790079Y321402D02*
X799921D01*
X710531Y285000D02*
X714468D01*
X712500Y283031D02*
Y286968D01*
X717421Y276339D02*
Y293661D01*
X707579Y276339D02*
Y293661D01*
X717421D01*
X707579Y276339D02*
X717421D01*
X655532Y334000D02*
X659469D01*
X657500Y332031D02*
Y335968D01*
X652579Y325339D02*
Y342661D01*
X662421Y325339D02*
Y342661D01*
X652579Y325339D02*
X662421D01*
X652579Y342661D02*
X662421D01*
X692032Y412079D02*
X695969D01*
X694000Y410110D02*
Y414047D01*
X689079Y403417D02*
Y420740D01*
X698921Y403417D02*
Y420740D01*
X689079Y403417D02*
X698921D01*
X689079Y420740D02*
X698921D01*
X780532Y330000D02*
X784469D01*
X782500Y328032D02*
Y331969D01*
X777579Y321339D02*
Y338661D01*
X787421Y321339D02*
Y338661D01*
X777579Y321339D02*
X787421D01*
X777579Y338661D02*
X787421D01*
X768532Y330000D02*
X772469D01*
X770500Y328032D02*
Y331969D01*
X765579Y321339D02*
Y338661D01*
X775421Y321339D02*
Y338661D01*
X765579Y321339D02*
X775421D01*
X765579Y338661D02*
X775421D01*
X862500Y470532D02*
Y474469D01*
X860532Y472500D02*
X864469D01*
X800500Y472032D02*
Y475969D01*
X798531Y474000D02*
X802468D01*
X746524Y317976D02*
Y390024D01*
X674476Y317976D02*
Y390024D01*
Y317976D02*
X746524D01*
X674476Y390024D02*
X746524D01*
X708531Y354000D02*
X712468D01*
X710500Y352031D02*
Y355968D01*
D67*
X989906Y153437D02*
Y195563D01*
X1028094Y153437D02*
Y195563D01*
X989906D02*
X1028094D01*
X989906Y153437D02*
X1028094D01*
M02*
